<?xml version="1.0" standalone="no"?>
<!DOCTYPE svg PUBLIC "-//W3C//DTD SVG 1.1//EN" "http://www.w3.org/Graphics/SVG/1.1/DTD/svg11.dtd" >
<svg xmlns="http://www.w3.org/2000/svg" xmlns:xlink="http://www.w3.org/1999/xlink" version="1.1">
<metadata></metadata>
<defs>
<font id="truenoblack_outline_italic" horiz-adv-x="1413" >
<font-face units-per-em="2048" ascent="1638" descent="-410" />
<missing-glyph horiz-adv-x="428" />
<glyph unicode="&#xfb01;" horiz-adv-x="1558" d="M103 788l42 291q3 22 22 36.5t37 14.5h102l4 29q29 198 190 316t389 116q147 0 239 -35q15 -6 22.5 -20.5t4.5 -30.5l-67 -362q-3 -18 -17 -32q4 -7 5.5 -17.5t0.5 -14.5l-42 -291q-3 -22 -21.5 -36.5t-36.5 -14.5h-166l-106 -737q-3 -22 -22 -36.5t-37 -14.5h-459 q-22 0 -34 16.5t-10 34.5l107 737h-103q-22 0 -34 16.5t-10 34.5zM213 840h103q18 0 32 -15t11 -37l-106 -737h356l107 737q2 18 19 35t39 17h166l27 188h-166q-18 0 -32 14.5t-11 36.5l1 11q10 66 60.5 106.5t119.5 38.5q29 0 62 -11l45 246q-76 19 -172 19 q-195 1 -317 -88.5t-144 -241.5l-12 -80q-2 -18 -19 -34.5t-39 -16.5h-103zM898 1130h43q-12 3 -19 3q-14 0 -24 -3zM934 0l161 1120q3 22 22 36.5t37 14.5h461q22 0 34 -16.5t10 -34.5l-162 -1120q-3 -22 -21.5 -36.5t-36.5 -14.5h-461q-22 0 -34 16.5t-10 34.5zM1044 51 h358l147 1018h-359zM1139 1440q18 123 110.5 203.5t215.5 80.5t192.5 -80.5t51.5 -203.5t-110.5 -204t-215.5 -81t-192.5 81t-51.5 204zM1242 1440q-12 -83 31 -133t125 -50t139 50t69 133q12 82 -30.5 132t-125.5 50q-82 0 -139 -49.5t-69 -132.5z" />
<glyph unicode="&#xfb02;" horiz-adv-x="1579" d="M103 788l42 291q3 22 22 36.5t37 14.5h102l4 29q29 198 190 316t389 116q147 0 239 -35q15 -6 22.5 -20.5t4.5 -30.5l-67 -362q-3 -18 -17 -32q4 -7 5.5 -17.5t0.5 -14.5l-42 -291q-3 -22 -21.5 -36.5t-36.5 -14.5h-166l-106 -737q-3 -22 -22 -36.5t-37 -14.5h-459 q-22 0 -34 16.5t-10 34.5l107 737h-103q-22 0 -34 16.5t-10 34.5zM213 840h103q18 0 32 -15t11 -37l-106 -737h356l107 737q2 18 19 35t39 17h166l27 188h-166q-18 0 -32 14.5t-11 36.5l1 11q10 66 60.5 106.5t119.5 38.5q29 0 62 -11l45 246q-76 19 -172 19 q-195 1 -317 -88.5t-144 -241.5l-12 -80q-2 -18 -19 -34.5t-39 -16.5h-103zM898 1130h43q-12 3 -19 3q-14 0 -24 -3zM944 0l219 1520q3 22 22 36.5t37 14.5h460q22 0 34 -16.5t10 -34.5l-219 -1520q-3 -22 -21.5 -36.5t-36.5 -14.5h-461q-22 0 -34 16.5t-10 34.5zM1054 51 h358l205 1417h-359z" />
<glyph horiz-adv-x="0" />
<glyph horiz-adv-x="682" />
<glyph unicode=" "  horiz-adv-x="428" />
<glyph unicode="&#x09;" horiz-adv-x="428" />
<glyph unicode="&#xa0;" horiz-adv-x="428" />
<glyph unicode="!" horiz-adv-x="602" d="M59 195q17 113 101 186.5t196 73.5q114 0 178 -73.5t47 -186.5q-17 -114 -101.5 -188.5t-198.5 -74.5q-113 0 -175.5 74.5t-46.5 188.5zM161 195q-10 -73 26.5 -116.5t108.5 -43.5q74 0 123.5 43.5t59.5 116.5q11 72 -26.5 114.5t-110.5 42.5q-72 0 -121.5 -42.5 t-59.5 -114.5zM183 1051v8l55 377q3 22 21.5 36.5t36.5 14.5h438q22 0 34 -16.5t10 -34.5l-54 -377q0 -4 -2 -8l-158 -530q-6 -19 -22.5 -31.5t-34.5 -12.5h-274q-19 0 -32 13t-13 31zM286 1063l5 -483h187l144 483l46 321h-335z" />
<glyph unicode="&#x22;" horiz-adv-x="1042" d="M189 817l90 619q3 22 21.5 36.5t36.5 14.5h344q22 0 34 -16.5t10 -34.5l-89 -619q-3 -22 -22 -36.5t-37 -14.5h-344q-22 0 -34 16.5t-10 34.5zM299 868h242l74 516h-241zM642 817l89 619q3 22 22 36.5t37 14.5h344q22 0 34 -16.5t10 -34.5l-89 -619q-3 -22 -22 -36.5 t-37 -14.5h-344q-22 0 -34 16.5t-10 34.5zM752 868h241l75 516h-242z" />
<glyph unicode="#" horiz-adv-x="1525" d="M-1 289l84 313q5 19 22.5 32t34.5 13h222l33 123h-206q-21 0 -36 14t-7 43l82 314q5 19 22.5 32t35.5 13h220l69 256q5 20 22 32.5t35 12.5h328q21 0 35.5 -14t6.5 -44l-65 -243h112l68 256q5 19 22.5 32t35.5 13h327q21 0 36 -14t7 -44l-65 -243h208q21 0 36 -14t7 -43 l-82 -314q-5 -20 -22 -32.5t-35 -12.5h-224l-33 -123h208q21 0 36 -13.5t7 -43.5l-84 -314q-5 -19 -22.5 -32t-35.5 -13h-221l-63 -237q-5 -19 -22.5 -32t-34.5 -13h-328q-21 0 -36 13.5t-7 43.5l61 225h-112l-64 -237q-5 -19 -22.5 -32t-34.5 -13h-328q-21 0 -35.5 13.5 t-6.5 43.5l60 225h-208q-21 0 -36 14t-7 44zM114 334h209q30 0 39 -18.5t3 -39.5l-60 -225h224l64 238q5 17 21.5 31t35.5 14h215q30 0 39.5 -19t3.5 -39l-60 -225h224l64 238q5 17 21.5 31t35.5 14h221l57 211h-209q-30 0 -39 18.5t-3 38.5l61 226q5 17 21 30.5t36 13.5 h223l55 211h-209q-30 0 -39 18.5t-3 39.5l65 243h-225l-68 -256q-5 -17 -21.5 -31t-35.5 -14h-215q-30 0 -39.5 19t-3.5 39l65 243h-224l-69 -256q-5 -17 -21.5 -31t-35.5 -14h-221l-55 -211h207q30 0 39 -18.5t3 -38.5l-61 -225q-5 -17 -21.5 -31t-35.5 -14h-221zM677 602 l61 226q5 17 21 30.5t36 13.5h215q30 0 39.5 -18.5t3.5 -38.5l-61 -225q-5 -17 -21.5 -31t-35.5 -14h-215q-30 0 -39.5 18.5t-3.5 38.5zM792 647h112l34 123h-112z" />
<glyph unicode="$" horiz-adv-x="1359" d="M-4 204.5q-1 19.5 9 33.5l227 356q3 6 8.5 12t16 14.5t25.5 7t31 -16.5q89 -84 237.5 -148t246.5 -64q64 0 67 23q2 14 -22 24.5t-65.5 19.5t-96 19.5t-113.5 28t-117 41t-108.5 62.5t-86.5 88.5t-51 122.5t-2 161q25 175 147 300.5t309 179.5l43 300q3 22 22 37t37 15 h340q22 0 34 -17t10 -35l-40 -273q276 -35 465 -167q15 -10 17 -30t-8 -35l-224 -360q-12 -19 -32.5 -26.5t-41.5 3.5q-103 61 -236.5 111t-209.5 50q-30 0 -37 -5q0 -1 -1 -3q-2 -13 22 -23t65.5 -19.5t96 -20.5t113.5 -30t117 -44t107.5 -65.5t85.5 -92t50.5 -127 t1.5 -166.5q-16 -110 -69 -199.5t-132 -150t-172.5 -98t-200.5 -53.5l-41 -283q-3 -22 -21.5 -36.5t-36.5 -14.5h-340q-22 0 -34 16.5t-10 34.5l44 306q-261 59 -432 206q-13 11 -14 30.5zM115 231q164 -124 401 -170q16 -3 26.5 -17.5t7.5 -33.5l-42 -297h237l40 277 q2 18 17.5 33.5t35.5 17.5q212 21 350.5 123t164.5 282q11 76 -6 136t-54.5 98t-89 67.5t-110.5 48t-118.5 35t-112.5 33.5t-93 38t-60.5 54.5t-14.5 77.5q5 38 27 62q42 49 128 49q91 0 212 -42.5t237 -106.5l168 270q-186 112 -431 133q-19 2 -31 16.5t-9 34.5l39 268 h-238l-41 -288q-2 -16 -15 -31t-31 -19q-175 -41 -279.5 -142.5t-125.5 -248.5q-11 -73 6.5 -130t55 -93t89.5 -63.5t111.5 -45t119 -32.5t112.5 -31.5t93 -38t61 -55t14 -78.5q-10 -66 -64 -95.5t-120 -29.5q-110 0 -250.5 55.5t-249.5 140.5z" />
<glyph unicode="%" horiz-adv-x="2187" d="M145 1006q32 219 181 354t360 135t321 -135.5t78 -353.5q-32 -220 -180.5 -357t-359.5 -137t-321.5 137t-78.5 357zM247 1006q-26 -182 58.5 -287t254.5 -105q169 0 283 105t140 287q26 181 -57.5 284t-253.5 103t-284.5 -103t-140.5 -284zM320.5 -10.5 q3.5 16.5 22.5 39.5l1204 1436q19 22 46 22h428q4 0 10.5 -0.5t19.5 -4.5t19.5 -11.5t3 -24.5t-22.5 -40l-1204 -1435q-19 -22 -45 -22h-428q-4 0 -10.5 0.5t-20 4.5t-20 11.5t-3 24zM434 1006q14 103 72 175t146 72q87 0 124 -71.5t22 -175.5q-15 -105 -73 -177.5 t-145 -72.5q-59 0 -96 36t-48.5 91.5t-1.5 122.5zM486 51h304l1118 1333h-303zM536 1006q-11 -77 7.5 -112.5t51.5 -35.5q32 0 61 35.5t40 112.5q11 76 -7.5 110.5t-51.5 34.5t-61.5 -34.5t-39.5 -110.5zM1310 432q32 219 181 354.5t360 135.5t321 -136t78 -354 q-32 -220 -181 -356.5t-360 -136.5t-321 136.5t-78 356.5zM1412 432q-26 -182 58 -286.5t254 -104.5q169 0 283 104.5t140 286.5q26 181 -57.5 284t-253.5 103t-284 -103t-140 -284zM1598 432q15 103 73 175.5t145 72.5t124.5 -72t22.5 -176q-15 -105 -73 -177.5t-145 -72.5 q-59 0 -96.5 36t-49 91.5t-1.5 122.5zM1701 432q-11 -77 7.5 -112t50.5 -35q33 0 61.5 35t39.5 112q11 76 -8 111t-51 35t-60.5 -35t-39.5 -111z" />
<glyph unicode="&#x26;" horiz-adv-x="1445" d="M116 410q33 232 299 389q-64 144 -43 291q28 193 180.5 305t373.5 112q140 0 247 -47.5t162 -138t38 -207.5q-25 -174 -181 -299l273 -218q12 -9 15 -26t-4 -32q-50 -107 -127 -207l143 -153q14 -13 11.5 -35.5t-21.5 -39.5l-263 -223q-17 -14 -38 -14t-33 14l-136 151 q-192 -104 -392 -104q-245 0 -389.5 135t-114.5 347zM219 410q-24 -164 91 -271.5t325 -107.5q193 0 371 108q15 9 33 7.5t29 -13.5l130 -144l179 152l-136 145q-11 12 -11 31t13 35q74 92 123 184l-177 141q-35 -74 -77 -139q-12 -18 -25 -26t-22.5 -7.5t-18 5.5t-12 9 t-5.5 6q-85 100 -132 161q-38 49 26 81q117 55 180 100q72 51 114.5 110t53.5 137q18 125 -80 208t-280 83q-188 0 -302 -84t-135 -231q-10 -70 2 -134t54 -145q10 -22 1.5 -42.5t-28.5 -30.5q-125 -67 -196.5 -142.5t-87.5 -185.5zM496 444q13 88 106 158q15 12 36.5 11.5 t33.5 -15.5q117 -145 193 -234q20 -27 14.5 -45.5t-22.5 -27.5l-17 -9q-76 -36 -155 -36q-91 0 -146.5 54.5t-42.5 143.5zM599 444q-6 -45 19.5 -70.5t80.5 -25.5q9 0 33 3q-32 38 -113 138q-17 -21 -20 -45zM729 1092q10 66 54 113.5t110 47.5q61 0 95.5 -41t25.5 -102 q-18 -122 -189 -218q-20 -11 -40 -5.5t-28 23.5q-41 92 -28 182zM831 1092q-6 -39 4 -81q70 49 77 99q6 41 -33 41q-40 0 -48 -59zM1020 707q8 -10 23.5 -28t23.5 -29q28 51 51 113q-41 -25 -98 -56z" />
<glyph unicode="'" horiz-adv-x="589" d="M189 817l90 619q3 22 21.5 36.5t36.5 14.5h344q22 0 34 -16.5t10 -34.5l-89 -619q-3 -22 -22 -36.5t-37 -14.5h-344q-22 0 -34 16.5t-10 34.5zM299 868h242l74 516h-241z" />
<glyph unicode="(" horiz-adv-x="757" d="M136 633q37 254 143 489.5t271 426.5q19 22 45 22h412h10t18.5 -3.5t19.5 -11t4 -24t-20 -39.5q-140 -186 -237.5 -408t-130.5 -452t0 -452t120 -408q2 -3 4 -8.5t4 -19t-1.5 -23.5t-19 -18.5t-42.5 -8.5h-411q-27 0 -39 21q-110 191 -148.5 427.5t-1.5 489.5zM238.5 188 q32.5 -214 127.5 -391h297q-74 187 -99.5 393t4.5 443q63 434 336 835h-297q-145 -176 -240 -390t-128 -445t-0.5 -445z" />
<glyph unicode=")" horiz-adv-x="757" d="M-119 -266.5q3 16.5 20 39.5q140 186 237.5 408t130.5 452t0 452t-120 408q-2 3 -4 8.5t-4 19t1.5 23.5t19 18.5t42.5 8.5h411q26 0 39 -22q110 -191 148.5 -427t1.5 -489q-37 -254 -143 -490t-271 -427q-18 -21 -45 -21h-412h-10t-18.5 3.5t-19.5 11t-4 24zM37 -203h296 q145 176 240 390.5t128 445.5t0.5 444.5t-127.5 390.5h-297q74 -187 99.5 -392.5t-4.5 -442.5q-63 -437 -335 -836z" />
<glyph unicode="*" horiz-adv-x="831" d="M139 990q-8 19 0.5 39.5t29.5 31.5l83 42l-70 40q-17 10 -21 29.5t10 40.5l141 199q13 18 34.5 24t40.5 -6l66 -46l11 85q2 21 19 37t39 16h226q21 0 34 -15.5t9 -37.5l-14 -87l80 44q19 11 39.5 6t28.5 -24l85 -195q8 -18 -0.5 -39t-30.5 -32l-82 -39l71 -42 q17 -10 20.5 -30.5t-10.5 -40.5l-141 -196q-13 -18 -34.5 -24t-39.5 6l-68 46l-9 -85q-2 -21 -19 -37t-40 -16h-225q-21 0 -34.5 15.5t-9.5 37.5l16 88l-82 -46q-19 -11 -39.5 -6t-28.5 24zM255 996l45 -102l121 67q44 21 59.5 11t13.5 -33l-2 -23l-23 -130h120l14 128 q5 44 26 55t39 1l19 -11l101 -68l76 105l-107 63q-22 13 -29 27.5t-0.5 25t16 19.5t18.5 13l9 5l123 60l-45 103l-119 -66q-44 -21 -59.5 -11t-13.5 33l2 23l22 128h-121l-16 -128q-3 -28 -13 -42.5t-22 -16t-23 1.5t-18 8l-8 5l-99 68l-75 -106l104 -60q23 -13 30 -27 t1 -24.5t-15.5 -19.5t-18.5 -14l-9 -5z" />
<glyph unicode="+" horiz-adv-x="1064" d="M87 530l41 287q3 22 22 36.5t37 14.5h276l40 277q3 22 21.5 36.5t36.5 14.5h287q22 0 34 -16.5t10 -34.5l-40 -277h277q22 0 33.5 -16.5t9.5 -34.5l-41 -287q-3 -22 -21.5 -36.5t-36.5 -14.5h-277l-40 -276q-3 -22 -21.5 -36.5t-36.5 -14.5h-287q-22 0 -34 16.5t-10 34.5 l40 276h-277q-22 0 -33.5 16.5t-9.5 34.5zM196 582h277q18 0 32.5 -15t11.5 -37l-40 -276h184l40 276q2 18 19.5 35t39.5 17h276l27 184h-277q-18 0 -32.5 14.5t-11.5 36.5l40 277h-184l-40 -277q-2 -18 -19.5 -34.5t-39.5 -16.5h-276z" />
<glyph unicode="," horiz-adv-x="542" d="M-52.5 -243q0.5 15 12.5 37l124 225q-59 68 -44 176q16 113 102 186.5t198 73.5q106 0 173 -69.5t50 -188.5q-14 -100 -92 -193l-216 -258q-19 -22 -45 -22h-213q0 1 -8 0t-17.5 2.5t-17 9.5t-7 21zM88 -174h110l197 236q56 67 65 135q11 76 -27.5 115.5t-107.5 39.5 q-72 0 -122 -43t-60 -114q-11 -80 40 -118q13 -10 16 -28t-6 -34z" />
<glyph unicode="-" horiz-adv-x="778" d="M122 489l41 287q3 22 22 36.5t37 14.5h573q22 0 34 -16.5t10 -34.5l-41 -287q-3 -22 -22 -36.5t-37 -14.5h-573q-22 0 -34 16.5t-10 34.5zM232 541h471l26 184h-471z" />
<glyph unicode="." horiz-adv-x="542" d="M38 195q17 113 101.5 186.5t196.5 73.5q114 0 178 -73.5t47 -186.5q-17 -114 -101.5 -188.5t-198.5 -74.5q-113 0 -176 74.5t-47 188.5zM141 195q-10 -73 26 -116.5t108 -43.5q74 0 123.5 43.5t59.5 116.5q11 72 -26.5 114.5t-110.5 42.5q-72 0 -121 -42.5t-59 -114.5z " />
<glyph unicode="/" horiz-adv-x="763" d="M-189 -224q2 12 10 28l943 1864q8 15 23.5 24.5t29.5 9.5h385q0 -1 7.5 0t16.5 -2.5t17 -9.5t8 -21t-11 -36l-942 -1863q-8 -15 -23.5 -24.5t-29.5 -9.5h-385h-4.5t-9.5 0.5t-13 2.5t-12 6.5t-9 11.5t-1 19zM-53 -162h276l891 1761h-276z" />
<glyph unicode="0" horiz-adv-x="1460" d="M124 719q53 371 268 576.5t555 205.5q337 0 493 -206t103 -576q-53 -371 -268.5 -578t-552.5 -207q-340 0 -496 207t-102 578zM226 719q-49 -337 81 -509.5t429 -172.5q296 0 476 173t229 509t-81.5 508t-426.5 172q-299 0 -478.5 -172t-228.5 -508zM594.5 479 q-3.5 98 16.5 240q33 227 96 332.5t191 105.5q86 0 128.5 -50.5t46 -148t-16.5 -239.5q-33 -227 -96 -333.5t-189 -106.5q-87 0 -130 51t-46.5 149zM695.5 540.5q-2.5 -68.5 9.5 -103t30 -45.5t51 -11q32 0 53.5 11t43 45.5t38.5 103t33 178.5q16 109 18.5 177.5t-9.5 102.5 t-30 45t-50 11q-33 0 -54.5 -11t-43 -45t-38.5 -102t-33 -178t-18.5 -178.5z" />
<glyph unicode="1" horiz-adv-x="890" d="M106 1061l54 375q3 22 21.5 36.5t36.5 14.5h725q22 0 34 -16.5t10 -34.5l-207 -1436q-3 -22 -21.5 -36.5t-36.5 -14.5h-475q-22 0 -34 16.5t-10 34.5l145 1010h-198q-22 0 -34 16.5t-10 34.5zM216 1112h198q18 0 32.5 -14.5t11.5 -36.5l-145 -1010h372l192 1333h-622z " />
<glyph unicode="2" horiz-adv-x="1249" d="M29 0l42 297q3 18 20 35l572 518q45 42 77.5 85.5t34.5 61.5q1 8 0.5 13.5t-10 8.5t-30.5 3q-67 0 -168.5 -45.5t-213.5 -127.5q-7 -5 -15 -8.5t-19.5 -6t-22.5 5t-18 25.5l-127 342q-6 17 2 36.5t24 29.5q373 234 702 234q116 0 215 -31t168.5 -86.5t103 -139 t19.5 -183.5q-19 -132 -114.5 -257.5t-254.5 -264.5l-148 -129h392q22 0 34 -16.5t10 -34.5l-53 -365q-3 -22 -21.5 -36.5t-36.5 -14.5h-1121q-22 0 -33.5 16.5t-9.5 34.5zM138 51h1018l38 262h-465q-45 0 -50.5 22t11.5 44l16 22l248 217q302 263 328 449 q21 147 -94.5 242.5t-323.5 95.5q-279 0 -600 -191l91 -247q235 157 395 157q61 0 98.5 -34t28.5 -93q-13 -90 -150 -217l-556 -504z" />
<glyph unicode="3" horiz-adv-x="1177" d="M-41 159.5q-1 18.5 9 34.5l241 360q2 3 5 8t12.5 14.5t19 13t23 -2t26.5 -24.5q2 -2 4.5 -6.5t3.5 -6.5q-4 9 -4 30l35 247q3 23 21 37l205 172h-349q-22 0 -34 16.5t-10 34.5l50 345q3 22 21.5 36.5t36.5 14.5h1012q22 0 34 -16.5t10 -34.5l-39 -267q-3 -23 -21 -37 l-275 -232q139 -44 211.5 -159t48.5 -280q-34 -235 -229 -382t-472 -147q-169 0 -326 54.5t-257 147.5q-12 11 -13 29.5zM78 184q88 -69 221 -111t271 -42q242 0 398.5 118.5t184.5 307.5q20 139 -41.5 228t-182.5 119l-59 14q-26 6 -36.5 17.5t-7.5 23t10 22t15 17.5l8 7 l334 282l28 193h-909l-35 -241h426q28 0 40.5 -9t10.5 -22.5t-8 -26.5t-14 -22l-7 -9l-291 -245l-26 -174h209q90 0 138 -46t36 -130t-73.5 -130t-151.5 -46q-182 0 -317 162zM309 542q116 -161 272 -161q58 0 79.5 16t27.5 58q6 41 -10.5 57t-75.5 16h-260q-17 0 -33 14z " />
<glyph unicode="4" horiz-adv-x="1359" d="M40 276l45 312q1 10 8 22l542 848q19 29 50 29h453q0 -1 8.5 0.5t18.5 -2.5t18 -10t6.5 -22t-15.5 -39l-294 -472h423q22 0 34 -16.5t10 -34.5l-32 -223h131q22 0 34 -17t10 -35l-49 -340q-3 -22 -22 -36.5t-37 -14.5h-131l-32 -225q-3 -22 -22 -36.5t-37 -14.5h-440 q-22 0 -34 16.5t-10 34.5l32 225h-624q-22 0 -34 16.5t-10 34.5zM150 328h624q18 0 32.5 -15t11.5 -37l-32 -225h338l32 225q2 18 19.5 35t39.5 17h131l34 237h-131q-18 0 -32.5 14.5t-11.5 36.5l32 224h-338l-32 -224q-2 -18 -19.5 -34.5t-39.5 -16.5h-194q-25 0 -38 7.5 t-13.5 18.5t2.5 22t8 19l5 7l464 745h-340l-517 -808zM710 668h62l19 130z" />
<glyph unicode="5" horiz-adv-x="1251" d="M-20 159q-2 19 9 35l219 328q-20 3 -30.5 19t-8.5 32l124 863q3 22 21.5 36.5t36.5 14.5h1002q22 0 34 -16.5t10 -34.5l-53 -365q-3 -22 -21.5 -36.5t-36.5 -14.5h-516l-8 -49h13q180 0 312.5 -57.5t197 -167.5t43.5 -257q-24 -169 -126.5 -297t-261.5 -196t-352 -68 q-160 0 -320 54.5t-273 146.5q-13 11 -15 30zM99 187q99 -70 235.5 -113t267.5 -43q260 0 427 124.5t197 333.5q24 171 -98.5 275t-367.5 104h-63q-18 0 -32.5 15t-11.5 37l22 151q2 18 19 34.5t39 16.5h516l38 262h-899l-110 -759h353q91 0 141.5 -43t38.5 -125 q-12 -85 -75 -131.5t-155 -46.5q-185 0 -313 160zM343 522q106 -141 253 -141q61 0 84 17t29 59q5 35 -12.5 50t-80.5 15h-273z" />
<glyph unicode="6" horiz-adv-x="1327" d="M122 702q52 361 290.5 583t578.5 222q141 0 276.5 -35.5t227.5 -98.5q16 -11 18 -32t-10 -36l-228 -332q-20 -29 -53 -27q110 -65 158.5 -186t26.5 -275q-36 -252 -229 -404.5t-465 -152.5q-215 0 -361 97t-204.5 272t-25.5 405zM224 702q-45 -314 88.5 -492.5 t414.5 -178.5q237 0 392.5 122.5t185.5 331.5q19 134 -23 231.5t-135 147.5q-81 43 -195 43q-166 0 -275 -92q-40 -30 -58 -22t-21 33l-2 26q20 140 118.5 215.5t252.5 75.5q155 0 260 -71l162 237q-80 43 -191 69.5t-221 26.5q-299 0 -503 -189.5t-250 -513.5zM584 485 q13 85 73.5 133t147.5 48q85 0 129.5 -48t32.5 -131q-13 -85 -71 -133.5t-145 -48.5t-133 48t-34 132zM686 485q-6 -45 9.5 -61t69.5 -16q53 0 73 16.5t27 62.5q6 44 -8.5 60t-66.5 16q-54 0 -76 -17t-28 -61zM744 967q103 43 223 43q124 0 221 -46q-88 76 -235 76 q-149 0 -209 -73z" />
<glyph unicode="7" horiz-adv-x="1263" d="M163 1071l52 365q3 22 22 36.5t37 14.5h1185q22 0 34 -16.5t10 -34.5l-45 -318q-1 -6 -8 -20l-655 -1119q-17 -30 -51 -30h-502q0 1 -8.5 -0.5t-18 2.5t-17 10t-6.5 22t14 38l585 999h-116l-21 -150q0 -2 -0.5 -5t-2.5 -11t-5 -14.5t-9 -13.5t-14 -10t-21 -1.5t-28 9.5 l-389 201q-27 14 -22 46zM270 1103l293 -151l17 119q2 18 19.5 34.5t39.5 16.5h246q39 0 48 -18t-1 -36l-11 -18l-585 -999h390l631 1078l36 255h-1083z" />
<glyph unicode="8" horiz-adv-x="1343" d="M58 399q16 112 88.5 212.5t179.5 164.5q-55 63 -80 139t-14 154q20 135 111.5 235.5t232 151.5t311.5 51q264 0 412.5 -122t118.5 -330q-23 -157 -157 -280q82 -65 119.5 -161.5t21.5 -205.5q-32 -222 -238 -351t-503 -129q-194 0 -337.5 55.5t-215 163t-50.5 252.5z M160 399q-24 -164 112 -266t404 -102t433.5 104t190.5 273q14 97 -28.5 182.5t-127.5 131.5q-22 12 -29.5 25.5t-2.5 24t13.5 19.5t16.5 14l8 5q65 42 110 109t55 136q23 157 -93.5 253.5t-349.5 96.5q-231 0 -373.5 -93t-164.5 -243q-10 -66 22 -138t95 -121 q31 -28 26 -47.5t-26 -30.5l-21 -11q-109 -46 -182.5 -134.5t-87.5 -187.5zM513 449q13 89 81.5 136.5t168.5 47.5t156 -47.5t43 -136.5q-13 -88 -82.5 -134.5t-169.5 -46.5t-155 46.5t-42 134.5zM616 449q-6 -42 15.5 -60t93.5 -18q73 0 100.5 18.5t33.5 59.5 q6 43 -16.5 62t-94.5 19t-99 -18.5t-33 -62.5zM624 1030q12 81 72.5 124.5t147.5 43.5t136 -43.5t37 -124.5q-11 -79 -72.5 -120.5t-147.5 -41.5q-87 0 -136 41.5t-37 120.5zM726 1030q-5 -32 11.5 -45.5t74.5 -13.5t78 13.5t24 45.5q5 37 -11 51.5t-73 14.5 q-58 0 -78.5 -15t-25.5 -51z" />
<glyph unicode="9" horiz-adv-x="1327" d="M21 95q-2 21 10 36l228 332q20 28 53 26q-110 65 -158.5 186t-26.5 275q36 252 229 404.5t465 152.5q215 0 361 -97t204.5 -272t25.5 -405q-52 -361 -290.5 -583t-578.5 -222q-140 0 -276 36t-228 99q-16 11 -18 32zM145 126q80 -43 191 -69t221 -26q299 0 503 189 t250 513q45 315 -88.5 493.5t-414.5 178.5q-236 0 -392 -123t-186 -332q-19 -134 23 -231t135 -147q83 -44 195 -44q166 0 275 92q40 30 58 22t21 -33l2 -25q-20 -140 -119 -215.5t-253 -75.5q-155 0 -259 70zM346 472q89 -77 235 -77q148 0 209 74q-103 -43 -223 -43 q-124 0 -221 46zM567 948q13 85 71 133.5t145 48.5t133 -48t34 -132q-13 -85 -73.5 -132.5t-147.5 -47.5q-85 0 -129.5 47.5t-32.5 130.5zM669 948q-6 -44 8.5 -60t66.5 -16q54 0 76 17t28 61q6 45 -9.5 61.5t-69.5 16.5q-52 0 -72.5 -17t-27.5 -63z" />
<glyph unicode=":" horiz-adv-x="542" d="M38 195q17 113 101.5 186.5t196.5 73.5q114 0 178 -73.5t47 -186.5q-17 -114 -101.5 -188.5t-198.5 -74.5q-113 0 -176 74.5t-47 188.5zM126 803q17 113 101.5 186.5t196.5 73.5q114 0 177.5 -73.5t46.5 -186.5q-16 -114 -101 -188t-199 -74q-113 0 -175.5 74t-46.5 188z M141 195q-10 -73 26 -116.5t108 -43.5q74 0 123.5 43.5t59.5 116.5q11 72 -26.5 114.5t-110.5 42.5q-72 0 -121 -42.5t-59 -114.5zM228 803q-10 -73 26.5 -116.5t108.5 -43.5q74 0 123.5 43.5t59.5 116.5q11 72 -26.5 115t-110.5 43q-72 0 -121 -43t-60 -115z" />
<glyph unicode=";" horiz-adv-x="542" d="M-52.5 -243q0.5 15 12.5 37l124 225q-59 68 -44 176q16 113 102 186.5t198 73.5q106 0 173 -69.5t50 -188.5q-14 -100 -92 -193l-216 -258q-19 -22 -45 -22h-213q0 1 -8 0t-17.5 2.5t-17 9.5t-7 21zM88 -174h110l197 236q56 67 65 135q11 76 -27.5 115.5t-107.5 39.5 q-72 0 -122 -43t-60 -114q-11 -80 40 -118q13 -10 16 -28t-6 -34zM126 803q17 113 101.5 186.5t196.5 73.5q114 0 177.5 -73.5t46.5 -186.5q-16 -114 -101 -188t-199 -74q-113 0 -175.5 74t-46.5 188zM228 803q-10 -73 26.5 -116.5t108.5 -43.5q74 0 123.5 43.5t59.5 116.5 q11 72 -26.5 115t-110.5 43q-72 0 -121 -43t-60 -115z" />
<glyph unicode="&#x3c;" horiz-adv-x="1064" d="M79 479l53 365q5 34 39 47l996 379q2 1 4.5 2t10.5 3.5t14 2.5t15 -1.5t13 -8t7.5 -17t-0.5 -28.5l-46 -320q-5 -36 -40 -48l-547 -193l491 -194q31 -11 26 -48l-46 -320q0 -2 -0.5 -4.5t-2.5 -10t-5 -14t-8.5 -13t-13.5 -10t-20 -2.5t-27 7l-887 379q-31 13 -26 47z M187 514l791 -338l30 208l-581 230q-25 10 -32.5 23.5t-0.5 25.5t17 22.5t20 16.5l10 7l647 230l30 208l-889 -338z" />
<glyph unicode="=" horiz-adv-x="1064" d="M54 305l42 287q3 22 21.5 36.5t36.5 14.5h942q22 0 34 -16.5t10 -34.5l-41 -287q-3 -22 -22 -36.5t-37 -14.5h-942q-22 0 -34 16.5t-10 34.5zM119 756l41 286q3 22 22 37t37 15h942q22 0 34 -17t10 -35l-41 -286q-3 -22 -22 -36.5t-37 -14.5h-942q-22 0 -34 16.5 t-10 34.5zM164 356h840l26 185h-839zM229 807h840l26 184h-840z" />
<glyph unicode="&#x3e;" horiz-adv-x="1064" d="M28 121l46 319q5 36 40 48l547 194l-491 194q-32 12 -27 48l46 319q0 2 0.5 4.5t2.5 10t5 14t9 13.5t14 10.5t20 2.5t27 -7l887 -379q14 -6 20.5 -19.5t4.5 -28.5l-52 -364q-2 -16 -13.5 -29.5t-25.5 -18.5l-997 -379q-3 -1 -8 -3t-17.5 -3.5t-21 1.5t-14 16.5t-2.5 36.5 zM141 197l888 337l43 296l-791 337l-30 -208l581 -229q25 -10 32.5 -23.5t0.5 -25.5t-17 -23t-20 -18l-10 -6l-647 -229z" />
<glyph unicode="?" horiz-adv-x="1019" d="M85 932q38 266 209.5 420.5t430.5 154.5q238 0 364 -112t97 -312q-10 -69 -35.5 -129t-59 -104t-72 -82.5t-75.5 -70.5t-68 -61t-52.5 -60.5t-26.5 -63.5q-3 -22 -22 -36.5t-37 -14.5h-342q-22 0 -34 16.5t-10 34.5q13 93 47.5 169t74.5 122.5t78 82.5t65.5 66t31.5 56 t0 30t-34 4q-32 0 -48.5 -19.5t-26.5 -90.5q-3 -22 -22 -36.5t-37 -14.5h-352q-22 0 -34 16.5t-10 34.5zM197 983h250q19 73 67 117.5t116 44.5q63 0 96.5 -37t24.5 -100q-7 -47 -27.5 -87t-47 -67.5t-58.5 -59.5t-60.5 -61t-54 -73.5t-38.5 -96.5h242q19 54 53.5 102.5 t72 81.5t79.5 71t76.5 72.5t61 84.5t34.5 108q22 153 -72.5 237.5t-301.5 84.5t-338.5 -108.5t-174.5 -313.5zM262 195q17 113 101 186.5t196 73.5q114 0 178 -73.5t47 -186.5q-17 -114 -101.5 -188.5t-198.5 -74.5q-113 0 -175.5 74.5t-46.5 188.5zM364 195 q-10 -73 26.5 -116.5t108.5 -43.5q73 0 122 43t60 117q11 72 -26.5 114.5t-110.5 42.5q-72 0 -121 -42.5t-59 -114.5z" />
<glyph unicode="@" horiz-adv-x="1771" d="M59 549q37 256 190.5 470.5t382.5 338t480 123.5q188 0 343.5 -70t256.5 -191t145 -291.5t16 -363.5q-35 -240 -181 -394.5t-342 -154.5q-4 0 -12.5 0.5t-13.5 0.5l59 -132q7 -17 1 -36t-22 -30q-107 -78 -256 -122.5t-282 -44.5q-187 0 -343 68.5t-258 187t-146.5 285.5 t-17.5 356zM161 549q-33 -226 44.5 -408t244 -284.5t389.5 -102.5q101 0 221 33t210 86l-40 88q-182 -106 -376 -106q-188 0 -329.5 91t-207 250t-37.5 353q29 197 146 364.5t292 266t365 98.5q154 0 272.5 -53.5t192.5 -151.5t100.5 -230.5t4.5 -283.5q-21 -146 -90 -253 t-160 -107q-38 0 -61 18q-43 34 -31 123l88 614h-174l-5 -32q-4 -27 -15 -40t-24 -13.5t-25.5 3.5t-21.5 10l-8 5q-3 5 -9 12.5t-23.5 22.5t-37 26.5t-50.5 21t-64 9.5q-151 0 -264 -121t-139 -303q-13 -93 8 -172.5t66 -132t107.5 -82t131.5 -29.5q141 0 246 124 q20 23 36.5 30t25.5 0.5t15.5 -16.5t8.5 -19l3 -10l2 -15q7 -45 31.5 -70.5t71.5 -36.5q29 -7 73 -7q148 0 262 120t144 326q25 174 -13.5 325.5t-128 258t-227 168t-304.5 61.5t-327.5 -64.5t-286 -174.5t-212 -264t-111.5 -326zM382 549q-24 -167 31.5 -303t175 -212.5 t279.5 -76.5q73 0 159.5 23.5t163.5 69.5q-56 30 -85 88q-123 -101 -269 -101q-91 0 -171.5 38t-137 104.5t-82.5 165t-10 210.5q15 103 59.5 197.5t110.5 168t158 117t193 43.5t180 -54q20 30 52 30h225q-130 119 -346 119q-160 0 -309.5 -84t-250.5 -228.5t-126 -314.5z M741 565q15 102 78.5 182t157.5 80q101 0 145 -79t28 -185q-16 -111 -81.5 -194.5t-167.5 -83.5q-67 0 -107.5 44.5t-51.5 106t-1 129.5zM843 565q-12 -81 11.5 -129.5t61.5 -48.5q46 0 83 46.5t49 129.5q11 76 -13.5 119t-71.5 43q-37 0 -73 -43.5t-47 -116.5zM1413 301h5 q5 0 17 9t29 29.5t33.5 49t31.5 73.5t22 97q32 226 -51 385l-87 -604q-4 -28 0 -39z" />
<glyph unicode="A" horiz-adv-x="1636" d="M-78.5 -18q0.5 16 13.5 38l813 1436q18 31 52 31h487q34 0 43 -32l377 -1436q1 -3 2 -7.5t1 -16.5t-4.5 -21.5t-19 -17t-37.5 -7.5h-505q-16 0 -28.5 10t-15.5 24l-35 169h-467l-85 -169q-17 -34 -53 -34h-488q0 1 -8 -0.5t-18 2.5t-17.5 9.5t-7 21.5zM64 51h374l86 169 q17 34 53 34h539q14 0 27 -9.5t16 -24.5l36 -169h393l-350 1333h-419zM686 516q-1 10 0.5 20t5.5 17l4 7l212 420q13 25 27.5 34.5t26.5 4.5t22 -13.5t16 -17.5l5 -8l87 -420q7 -33 -7.5 -50t-32.5 -18h-19h-299q-22 0 -34.5 7t-13.5 17zM822 594h154l-45 216z" />
<glyph unicode="B" horiz-adv-x="1482" d="M51 0l207 1436q3 22 22 36.5t37 14.5h727q178 0 310 -47q134 -48 202 -143q54 -74 54 -170q0 -26 -5 -54q-13 -92 -68.5 -171t-139.5 -131q91 -56 131 -153q29 -68 28 -147q0 -33 -5 -68q-20 -140 -117 -244t-246.5 -157t-330.5 -53h-762q-22 0 -34 16.5t-10 34.5z M161 51h711q249 0 402 97t175 255q4 28 4 54q1 85 -41 149q-54 84 -163 110q-22 5 -28.5 17t-1 25.5t14.5 26.5t18 21l8 9q99 29 164 99t78 159q3 18 3 35q1 112 -107 188q-124 88 -369 88h-676zM574 348l32 219q2 18 19.5 34.5t39.5 16.5h227q81 0 133 -41q43 -34 43 -89 q0 -12 -2 -25q-11 -76 -74.5 -121t-145.5 -45h-228q-18 0 -32.5 14.5t-11.5 36.5zM651 883l30 204q2 18 19.5 35t39.5 17h227q67 -1 107 -43q32 -34 33 -83q0 -12 -2 -26q-10 -68 -62 -112t-120 -44h-228q-18 0 -32.5 15t-11.5 37zM684 399h176q94 0 104 64q3 22 -16 37.5 t-71 15.5h-176zM761 934h176q57 0 65 53q4 25 -7.5 37t-42.5 12h-176z" />
<glyph unicode="C" horiz-adv-x="1409" d="M83 721q32 223 165.5 401.5t337.5 278.5t439 100q176 0 340.5 -75t263.5 -203q11 -15 8 -35t-16 -33l-322 -326q-8 -8 -18.5 -15t-29.5 -5.5t-32 23.5q-46 78 -118.5 125t-140.5 47q-107 0 -187.5 -76.5t-98.5 -200.5q-4 -30 -4 -57q0 -88 44 -146q58 -78 165 -78 q64 0 150.5 40.5t159.5 107.5q17 15 38 16.5t37 -16.5l232 -293q11 -14 8.5 -34.5t-18.5 -34.5q-148 -139 -338.5 -221.5t-367.5 -82.5q-230 0 -401 102t-250 284q-56 128 -56 278q0 63 10 129zM186 721q-8 -57 -8 -110q0 -87 21 -166q34 -128 114 -219t204.5 -143 t277.5 -52q143 0 301 63.5t287 172.5l-174 219q-82 -65 -173.5 -103.5t-170.5 -38.5q-152 0 -234 110q-64 86 -64 204q0 33 5 69q23 162 137 270.5t265 108.5q85 0 163.5 -43.5t139.5 -120.5l240 243q-90 97 -227.5 155.5t-278.5 58.5q-210 0 -389 -87.5t-293.5 -242 t-142.5 -348.5z" />
<glyph unicode="D" horiz-adv-x="1554" d="M51 0l207 1436q3 22 22 36.5t37 14.5h641q184 0 330.5 -55t241.5 -154q94 -98 134 -242q24 -88 24 -187q0 -63 -10 -130q-33 -231 -164.5 -406t-337.5 -269.5t-458 -94.5h-623q-22 0 -34 16.5t-10 34.5zM161 51h571q346 0 573 181t271 487q9 63 9 120q0 222 -135 365 q-170 180 -507 180h-590zM579 369l101 698q2 18 19.5 34.5t39.5 16.5h155q161 0 243 -113q62 -86 63 -208q0 -39 -7 -82q-25 -175 -132 -286.5t-260 -111.5h-178q-18 0 -32.5 15t-11.5 37zM689 420h127q105 0 179 76.5t95 218.5q6 38 6 72q0 91 -42 149q-58 80 -174 80h-105 z" />
<glyph unicode="E" d="M51 0l207 1436q3 22 22 36.5t37 14.5h1214q22 0 34 -16.5t10 -34.5l-52 -361q-3 -22 -22 -36.5t-37 -14.5h-688l-10 -74h620q22 0 34 -16.5t10 -34.5l-52 -360q-3 -22 -21.5 -37t-36.5 -15h-621l-11 -75h707q22 0 34 -17t9 -35l-52 -360q-3 -22 -21.5 -36.5t-36.5 -14.5 h-1233q-22 0 -34 16.5t-10 34.5zM161 51h1130l38 258h-707q-18 0 -32.5 14.5t-11.5 36.5l26 179q2 18 19.5 34.5t39.5 16.5h620l37 258h-620q-18 0 -32.5 14.5t-11.5 36.5l25 176q2 18 19.5 34.5t39.5 16.5h688l37 258h-1112z" />
<glyph unicode="F" horiz-adv-x="1292" d="M51 0l207 1436q3 22 22 36.5t37 14.5h1155q22 0 34 -16.5t10 -34.5l-52 -361q-3 -22 -22 -36.5t-37 -14.5h-629l-21 -145h586q22 0 34 -17t10 -35l-52 -360q-3 -22 -22 -36.5t-37 -14.5h-585l-60 -416q-3 -22 -22 -36.5t-37 -14.5h-475q-22 0 -34 16.5t-10 34.5zM161 51 h373l60 416q2 18 19 34.5t39 16.5h586l37 258h-586q-18 0 -32 14.5t-11 36.5l35 248q2 18 19.5 34.5t39.5 16.5h629l37 258h-1053z" />
<glyph unicode="G" horiz-adv-x="1511" d="M83 717q33 224 170.5 403.5t348.5 280t454 100.5q178 0 346 -63t275 -171q13 -14 11.5 -35t-16.5 -36l-315 -325q-15 -16 -36.5 -19t-39.5 14q-56 62 -138.5 100t-160.5 38q-116 0 -203.5 -80t-105.5 -207q-4 -29 -4 -56q0 -91 50 -154q65 -81 184 -81q52 0 142 31 l43 299q3 22 21.5 36.5t36.5 14.5h408q22 0 34 -16.5t10 -34.5l-85 -592q-3 -26 -29 -43q-140 -85 -331 -139t-354 -54q-176 0 -321.5 59.5t-240 163.5t-136.5 251q-27 94 -27 196q0 58 9 119zM185 717q-8 -56 -8 -109q0 -132 49 -244q70 -156 223.5 -244.5t363.5 -88.5 q137 0 306 45.5t295 115.5l74 513h-305l-41 -283q-2 -15 -12.5 -28t-25.5 -19q-133 -51 -216 -51q-162 0 -252 112q-71 88 -71 212q0 33 5 69q24 166 145.5 277.5t281.5 111.5q87 0 173.5 -34.5t155.5 -95.5l238 246q-95 80 -237 128.5t-286 48.5q-219 0 -405.5 -88.5 t-304.5 -244t-146 -349.5z" />
<glyph unicode="H" horiz-adv-x="1599" d="M51 0l207 1436q3 22 22 36.5t37 14.5h475q22 0 34 -16.5t10 -34.5l-73 -506h342l73 506q3 22 21.5 36.5t36.5 14.5h475q22 0 34 -16.5t10 -34.5l-207 -1436q-3 -22 -21.5 -36.5t-36.5 -14.5h-475q-22 0 -34 16.5t-10 34.5l67 467h-342l-67 -467q-3 -22 -22 -36.5 t-37 -14.5h-475q-22 0 -34 16.5t-10 34.5zM161 51h373l67 467q2 18 19.5 34.5t39.5 16.5h444q18 0 32.5 -14.5t11.5 -36.5l-67 -467h372l192 1333h-372l-73 -505q-2 -18 -19.5 -35t-39.5 -17h-444q-18 0 -32.5 15t-11.5 37l73 505h-373z" />
<glyph unicode="I" horiz-adv-x="679" d="M51 0l207 1436q3 22 22 36.5t37 14.5h475q22 0 34 -16.5t10 -34.5l-207 -1436q-3 -22 -22 -36.5t-37 -14.5h-475q-22 0 -34 16.5t-10 34.5zM161 51h373l192 1333h-373z" />
<glyph unicode="J" horiz-adv-x="1165" d="M-34.5 227q1.5 18 13.5 32l259 307q8 9 18 16.5t28 8t33 -17.5q63 -73 130 -110t112 -37q31 0 46 14t21 56l136 940q3 22 21.5 36.5t36.5 14.5h478q22 0 33.5 -16.5t9.5 -34.5l-136 -951q-38 -260 -221.5 -408.5t-451.5 -148.5q-354 0 -558 267q-10 14 -8.5 32zM83 234 q175 -203 464 -203q232 0 378 118t177 336l130 899h-375l-128 -888q-11 -78 -62.5 -125t-122.5 -47q-135 0 -271 135z" />
<glyph unicode="K" horiz-adv-x="1583" d="M51 0l207 1436q3 22 22 36.5t37 14.5h475q22 0 34 -16.5t10 -34.5l-52 -360l394 393q18 18 42 18h547q4 0 10.5 -1t20.5 -7t20 -14t1.5 -25t-26.5 -38l-566 -549l403 -826q1 -2 2.5 -4.5t4 -10.5t3.5 -15.5t-1.5 -16.5t-9 -15.5t-20 -11t-33.5 -4.5h-568q-29 0 -40 24 l-200 435l-93 -90l-46 -318q-3 -22 -22 -36.5t-37 -14.5h-475q-22 0 -34 16.5t-10 34.5zM161 51h373l41 287q3 21 18 34l162 156q24 23 43 23q22 0 38 -31l216 -469h446l-381 780q-6 11 -6 22q0 20 20 39l507 492h-409l-482 -479q-36 -32 -55 -24.5t-24 32.5l-6 25l64 446 h-373z" />
<glyph unicode="L" horiz-adv-x="1196" d="M51 0l207 1436q3 22 22 36.5t37 14.5h475q22 0 34 -16.5t10 -34.5l-143 -990h547q22 0 34 -16.5t10 -34.5l-57 -395q-3 -22 -22 -36.5t-37 -14.5h-1073q-22 0 -34 16.5t-10 34.5zM161 51h971l42 293h-547q-18 0 -32.5 14.5t-11.5 36.5l143 989h-373z" />
<glyph unicode="M" horiz-adv-x="1835" d="M51 0l207 1436q3 22 22 36.5t37 14.5h501q15 0 27 -9.5t16 -22.5l175 -636l357 636q19 32 52 32h502q22 0 34 -16.5t10 -34.5l-207 -1436q-3 -22 -22 -36.5t-37 -14.5h-413q-22 0 -34 16.5t-10 34.5l73 507l-203 -386q-7 -15 -22 -24t-30 -9h-311q-16 0 -28 9.5t-16 23.5 l-91 386l-73 -507q-3 -22 -21.5 -36.5t-36.5 -14.5h-414q-22 0 -34 16.5t-10 34.5zM161 51h311l106 735q4 27 29.5 31.5t48.5 -3.5l24 -9l145 -615h240l322 615q8 16 21 20t25.5 -2t24 -14t18.5 -15l7 -8l-106 -735h312l192 1333h-417l-403 -718q-15 -26 -30 -36t-26.5 -5 t-20.5 14t-14 18l-4 9l-196 718h-417z" />
<glyph unicode="N" horiz-adv-x="1599" d="M51 0l207 1436q3 22 22 36.5t37 14.5h397q26 0 38 -20l386 -618l85 587q3 22 21.5 36.5t36.5 14.5h430q22 0 34 -16.5t10 -34.5l-207 -1436q-3 -22 -21.5 -36.5t-36.5 -14.5h-398q-25 0 -37 20l-385 614l-84 -583q-3 -22 -22 -36.5t-37 -14.5h-432q-22 0 -34 16.5 t-10 34.5zM161 51h330l98 682q4 27 15.5 40t24.5 12.5t26 -5t21 -10.5l9 -6l447 -713h321l192 1333h-327l-99 -686q-4 -27 -15.5 -40t-24.5 -12.5t-26 5t-21 10.5l-9 6l-449 717h-321z" />
<glyph unicode="O" horiz-adv-x="1638" d="M83 719q32 225 167.5 404t341.5 278.5t444 99.5q178 0 325 -59t243 -161.5t139 -248.5q28 -93 28 -196q0 -57 -9 -117q-33 -225 -167.5 -406t-341.5 -283t-444 -102q-178 0 -325 59.5t-244 163.5q-96 103 -138 251q-27 94 -28 198q0 58 9 119zM186 719q-8 -56 -8 -108 q0 -133 51 -246q71 -157 226.5 -245.5t368.5 -88.5t394.5 89t297.5 246t144 353q8 55 8 107q0 130 -51 242q-71 156 -227 243.5t-369 87.5q-160 0 -305 -51t-254 -140.5t-182 -216t-94 -272.5zM570 717q24 165 145 277t270 112q147 0 231 -112q65 -87 64 -206q0 -34 -5 -71 q-23 -165 -139.5 -279t-263.5 -114q-148 0 -237 114q-70 90 -70 211q0 33 5 68zM673 717q-4 -27 -4 -52q0 -91 51 -156q65 -83 167 -83q100 0 183.5 81.5t101.5 209.5q4 29 4 56q0 89 -46 151q-60 80 -160 80q-104 0 -191.5 -80.5t-105.5 -206.5z" />
<glyph unicode="P" horiz-adv-x="1404" d="M51 0l207 1436q3 22 22 36.5t37 14.5h673q296 1 446 -149q120 -119 120 -311q0 -50 -8 -105q-40 -281 -234 -440.5t-491 -159.5h-148l-46 -322q-3 -22 -22 -36.5t-37 -14.5h-475q-22 0 -34 16.5t-10 34.5zM161 51h373l46 322q2 18 19.5 34.5t39.5 16.5h198 q262 0 418 128.5t191 369.5q7 47 7 90q-1 159 -95 253q-120 119 -382 119h-623zM632 733l49 342q2 18 19.5 34.5t39.5 16.5h174q96 0 146 -60q39 -47 39 -118q0 -20 -4 -41q-14 -101 -81 -163t-164 -62h-174q-18 0 -32.5 14.5t-11.5 36.5zM742 784h123q56 0 87 29t41 94 q3 18 3 33q0 36 -16 56q-22 28 -81 28h-123z" />
<glyph unicode="Q" horiz-adv-x="1632" d="M83 719q32 225 167.5 404t341.5 278.5t444 99.5q178 0 325 -59t243 -161.5t139 -248.5q28 -93 28 -196q0 -57 -9 -117q-32 -223 -165.5 -403t-334.5 -281q12 -4 24 -4q31 0 92 24t121 64q13 12 37 11t35 -27l117 -281q7 -16 1 -33.5t-21 -29.5q-102 -79 -238 -126 t-259 -47q-170 0 -290.5 94t-164.5 253q-159 15 -288 80t-212.5 167.5t-119.5 241.5q-22 85 -22 177q0 58 9 120zM186 719q-8 -55 -8 -108q0 -125 46 -233q64 -152 206.5 -243t339.5 -102q14 -1 25.5 -10t14.5 -24q32 -144 131.5 -227t244.5 -83q92 0 198.5 33t191.5 88 l-81 195q-138 -77 -223 -77q-93 0 -147 88q-10 17 -10 31q0 29 42 47q202 80 337 245t166 380q8 55 8 107q0 131 -51 242q-71 156 -227 243.5t-369 87.5q-160 0 -305 -51t-254 -140.5t-182 -216t-94 -272.5zM570 717q24 165 145 277t270 112q147 0 231 -112q64 -87 64 -206 q0 -34 -5 -71q-23 -165 -139.5 -279t-263.5 -114q-148 0 -237 114q-70 90 -70 211q0 33 5 68zM673 717q-4 -27 -4 -52q0 -91 51 -156q65 -83 167 -83q100 0 183.5 81.5t101.5 209.5q4 29 4 56q0 90 -46 151q-59 80 -160 80q-104 0 -191.5 -80.5t-105.5 -206.5z" />
<glyph unicode="R" horiz-adv-x="1484" d="M51 0l207 1436q3 22 22 36.5t37 14.5h694q309 -1 465 -149q125 -119 125 -314q0 -49 -8 -102q-22 -152 -93 -272.5t-184 -197.5l196 -425q2 -3 4 -8.5t4 -19t-1.5 -23.5t-19 -18.5t-42.5 -8.5h-537q-15 0 -26.5 9t-15.5 21l-109 343h-94l-46 -322q-3 -22 -22 -36.5 t-37 -14.5h-475q-22 0 -34 16.5t-10 34.5zM161 51h373l46 322q2 18 19.5 34.5t39.5 16.5h178q13 0 25.5 -8t16.5 -22l109 -343h413l-180 389q-8 17 0 38.5t28 32.5q221 125 262 411q7 46 7 88q0 160 -100 254q-126 120 -402 120h-643zM632 733l49 342q2 18 19.5 34.5 t39.5 16.5h219q95 0 145 -60q39 -47 40 -118q0 -20 -4 -41q-14 -101 -81 -163t-164 -62h-219q-18 0 -32.5 14.5t-11.5 36.5zM742 784h168q56 0 87 29t41 94q3 18 3 33q-1 36 -17 56q-22 28 -80 28h-168z" />
<glyph unicode="S" horiz-adv-x="1359" d="M-4 204.5q-1 19.5 9 33.5l227 356q3 6 8.5 12t16 14.5t25.5 7t31 -16.5q89 -84 237.5 -148t246.5 -64q64 0 67 23q2 14 -22 24.5t-65.5 19.5t-96 19.5t-113.5 28t-117 41t-108.5 62.5t-86.5 88.5t-51 122.5q-8 39 -8 83q0 38 6 78q35 239 240 378.5t500 139.5 q176 0 342.5 -47.5t284.5 -130.5q15 -10 17 -30t-8 -35l-224 -360q-12 -19 -32.5 -26.5t-41.5 3.5q-103 61 -236.5 111t-209.5 50q-30 0 -37 -5q0 -1 -1 -3q-2 -13 22 -23t65.5 -19.5t96 -20.5t113.5 -30t117 -44t107.5 -65.5t85.5 -91.5q37 -52 51 -128q8 -40 7 -83 q0 -40 -6 -83q-19 -130 -88 -231t-171.5 -161t-221.5 -90t-248 -30q-199 0 -391.5 63t-324.5 177q-13 11 -14 30.5zM115 231q119 -90 287.5 -142t338.5 -52q160 0 288.5 43.5t216.5 137t107 228.5q4 30 4 57q0 42 -10 79q-17 60 -54.5 98t-89 67.5t-110.5 48t-118.5 35 t-112.5 33.5t-93 38q-41 20 -61 54q-16 26 -15 59q0 9 1 19q5 38 27 62q42 49 128 49q91 0 212 -42.5t237 -106.5l168 270q-104 63 -248 101t-291 38q-265 0 -430.5 -113t-192.5 -303q-4 -28 -4 -54q0 -41 10 -76q18 -57 55.5 -93t89.5 -63.5t111.5 -45t119 -32.5 t112.5 -31.5t93 -38t61 -55.5q16 -25 16 -56q0 -11 -2 -22q-10 -66 -64 -95.5t-120 -29.5q-110 0 -250.5 55.5t-249.5 140.5z" />
<glyph unicode="T" horiz-adv-x="1312" d="M112 1061l54 375q3 22 21.5 36.5t36.5 14.5h1293q22 0 34 -16.5t10 -34.5l-54 -375q-3 -22 -22 -36.5t-37 -14.5h-358l-146 -1010q-3 -22 -21.5 -36.5t-36.5 -14.5h-476q-22 0 -33.5 16.5t-9.5 34.5l145 1010h-356q-22 0 -34 16.5t-10 34.5zM222 1112h356 q18 0 32.5 -14.5t11.5 -36.5l-146 -1010h373l146 1010q2 18 19 34.5t39 16.5h359l39 272h-1190z" />
<glyph unicode="U" horiz-adv-x="1542" d="M118 608l120 828q3 22 21.5 36.5t36.5 14.5h475q22 0 34 -16.5t10 -34.5l-119 -828q-3 -18 -3 -35q-1 -59 33 -97q42 -50 114 -50q68 0 119 47.5t63 134.5l119 828q3 22 21.5 36.5t36.5 14.5h475q22 0 34 -16.5t10 -34.5l-119 -828q-44 -307 -273.5 -493.5t-559.5 -186.5 q-164 0 -295 48.5t-217 136.5q-86 87 -122 215q-23 80 -22 169q0 54 8 111zM221 608q-8 -53 -7 -102q0 -194 120 -318q151 -156 447 -157q293 0 485.5 156t230.5 421l112 776h-373l-112 -776q-18 -124 -103 -204t-196 -80q-113 0 -181 80q-54 63 -54 154q0 24 4 50l111 776 h-372z" />
<glyph unicode="V" horiz-adv-x="1564" d="M143.5 1441q0.5 12 5 21.5t18.5 17t37 7.5h508q17 0 29.5 -10.5t14.5 -25.5l134 -787l360 787q7 16 22.5 26t31.5 10h485q0 -1 8 0t17 -3t17 -9.5t7.5 -21t-11.5 -36.5l-756 -1435q-17 -33 -52 -33h-492q-34 0 -43 33l-338 1435q-1 3 -2 7.5t-0.5 16.5zM263 1384 l314 -1333h421l702 1333h-373l-415 -906q-11 -24 -25 -33t-26 -4.5t-23 12.5t-17 17l-6 8l-155 906h-397z" />
<glyph unicode="W" horiz-adv-x="2295" d="M144.5 1428q-0.5 6 1 16.5t6.5 19.5t18.5 16t33.5 7h508q18 0 30 -11.5t14 -28.5l63 -724l267 722q7 18 22.5 29t32.5 11l464 2q18 0 30 -11.5t14 -28.5l62 -723l268 723q7 18 23 29t33 11h485h7.5t16.5 -2.5t16.5 -9t8 -20t-9.5 -35.5l-676 -1436q-16 -35 -53 -35h-490 q-18 0 -30 11.5t-14 27.5l-56 646l-248 -646q-7 -18 -22.5 -28.5t-32.5 -10.5h-490q-17 0 -29 10t-14 25l-258 1436q-1 2 -1.5 8zM260 1384l239 -1333h412l313 819q8 20 21 27.5t26 3.5t25.5 -10.5t19.5 -13.5l8 -7l72 -819h411l628 1333h-374l-334 -902q-12 -31 -37 -31 t-44 15l-19 16l-78 902l-381 -1l-334 -901q-12 -31 -37 -31t-44 15l-19 16l-78 902h-396z" />
<glyph unicode="X" horiz-adv-x="1583" d="M-70.5 -10.5q3.5 16.5 22.5 39.5l585 701l-356 677q-2 3 -4.5 8.5t-5 19.5t1 24.5t19 19t43.5 8.5h553q29 0 40 -24l127 -268l203 268q18 24 47 24h560q4 0 10 -0.5t19.5 -4.5t20 -11.5t3 -24t-22.5 -39.5l-539 -655l384 -723q2 -3 4.5 -8.5t5 -19.5t-1 -24.5t-19 -19 t-43.5 -8.5h-569q-29 0 -40 23l-154 304l-239 -304q-18 -23 -47 -23h-555q-4 0 -10.5 0.5t-19.5 4.5t-19.5 11.5t-3 24zM95 51h429l273 347q16 21 31 28.5t24.5 4t17 -10.5t10.5 -14l3 -7l176 -348h445l-357 672q-15 26 9 57l497 604h-434l-239 -313q-17 -22 -32 -29.5 t-24.5 -3.5t-17 11t-10.5 15l-3 7l-149 313h-428l329 -626q7 -12 5 -29t-13 -29z" />
<glyph unicode="Y" horiz-adv-x="1472" d="M131 1438q-1 13 2.5 23t19 18t41.5 8h473q31 0 41 -28l176 -464l300 464q18 28 50 28h473q0 -1 9 0.5t19 -3t18.5 -10.5t6 -22.5t-17.5 -39.5l-649 -978l-63 -434q-3 -22 -21.5 -36.5t-36.5 -14.5h-476q-22 0 -33.5 16.5t-9.5 34.5l61 424l-376 988q-2 3 -4 8t-3 18z M264 1384l351 -924q5 -11 3 -24l-56 -385h373l57 395q2 14 9 24l607 914h-357l-340 -524q-16 -25 -31.5 -34.5t-26 -5t-18.5 13t-11 16.5l-4 9l-199 525h-357z" />
<glyph unicode="Z" horiz-adv-x="1398" d="M-10 0l43 297q3 19 17 33l696 690h-533q-22 0 -34 16.5t-10 34.5l52 365q3 22 22 36.5t37 14.5h1278q22 0 34 -16.5t10 -34.5l-43 -297q-3 -19 -18 -34l-695 -689h572q22 0 34 -16.5t10 -34.5l-53 -365q-3 -22 -22 -36.5t-37 -14.5h-1316q-22 0 -34 16.5t-10 34.5z M100 51h1214l38 262h-633q-28 0 -41.5 9t-12 21.5t7 24.5t12.5 21l7 9l767 760l33 226h-1176l-38 -262h594q45 0 51.5 -21t-9.5 -42l-15 -21l-767 -760z" />
<glyph unicode="[" horiz-adv-x="772" d="M15 -254l255 1774q3 22 22 36.5t37 14.5h649q22 0 34 -16.5t10 -34.5l-49 -340q-3 -22 -22 -37t-37 -15h-188l-143 -991h188q22 0 34 -16.5t10 -34.5l-49 -340q-3 -22 -21.5 -36.5t-36.5 -14.5h-650q-22 0 -33.5 16.5t-9.5 34.5zM124 -203h547l34 238h-188 q-18 0 -32.5 14.5t-11.5 36.5l158 1094q2 18 19 34.5t39 16.5h189l34 237h-547z" />
<glyph unicode="\" horiz-adv-x="763" d="M-7.5 1657q0.5 12 5 21t19 16.5t36.5 7.5h385q16 0 28 -10t15 -24l405 -1864q1 -3 2 -7.5t0.5 -16t-5 -20.5t-19 -16.5t-36.5 -7.5h-385q-16 0 -28 10t-15 24l-405 1863q-1 3 -2 7.5t-0.5 16.5zM111 1599l383 -1761h276l-383 1761h-276z" />
<glyph unicode="]" horiz-adv-x="813" d="M-26 -254l49 340q3 22 21.5 36.5t36.5 14.5h189l142 991h-188q-22 0 -34 17t-10 35l49 340q3 22 22 36.5t37 14.5h649q22 0 34 -16.5t10 -34.5l-256 -1774q-3 -22 -21.5 -36.5t-36.5 -14.5h-650q-22 0 -33.5 16.5t-9.5 34.5zM83 -203h547l241 1671h-547l-34 -237h188 q18 0 32.5 -14.5t11.5 -36.5l-157 -1094q-2 -18 -19.5 -34.5t-39.5 -16.5h-188z" />
<glyph unicode="^" horiz-adv-x="1245" d="M45 276q2 16 16 39l491 779q17 28 50 28h365q31 0 41 -28l267 -779q1 -3 3 -8t3 -17.5t-3 -22t-19 -17.5t-40 -8h-320q-15 0 -26.5 8.5t-15.5 21.5l-133 431l-257 -431q-8 -14 -22.5 -22t-28.5 -8h-320q0 1 -8.5 -0.5t-18.5 2.5t-18 10t-6 22zM193 344h204l301 504 q15 26 30.5 35.5t26.5 4.5t19.5 -13.5t13.5 -17.5l4 -9l155 -504h204l-231 676h-301z" />
<glyph unicode="_" horiz-adv-x="1226" d="M-111 -418l35 246q3 22 22 36.5t37 14.5h1226q22 0 34 -16.5t10 -34.5l-35 -246q-3 -22 -22 -36.5t-37 -14.5h-1227q-22 0 -33.5 16.5t-9.5 34.5zM-2 -367h1125l20 144h-1124z" />
<glyph unicode="`" horiz-adv-x="716" d="M206.5 1480.5q0.5 10.5 13 22.5t39.5 20l407 123q18 5 34 -1.5t23 -21.5l163 -387q2 -3 4 -8.5t3.5 -18.5t-2 -23t-18.5 -18.5t-42 -8.5h-328q-21 0 -33 14l-243 264q-3 2 -6.5 6t-9 15.5t-5 22zM363 1452l175 -190h220l-116 274z" />
<glyph unicode="a" horiz-adv-x="1255" d="M27 332q17 120 85.5 208.5t179.5 134.5q-28 9 -32 34l-58 307q-4 19 8.5 38t32.5 26q325 112 586 112q259 0 395 -123q111 -100 111 -264q0 -38 -6 -80l-104 -725q-3 -22 -22 -36.5t-37 -14.5h-452q-22 0 -34 16.5t-10 34.5q-225 -72 -275 -72q-195 0 -295 111 q-79 88 -78 221q0 34 5 72zM130 332q-5 -32 -4 -61q0 -98 55 -160q72 -80 229 -80q187 0 291 120q33 33 52.5 26t28.5 -31l8 -25l-11 -70h351l97 674q5 34 5 64q0 129 -85 206q-105 95 -333 95q-223 0 -501 -89l40 -211q3 2 13 4q179 54 303 54q97 0 153 -45q48 -39 48 -106 q0 -11 -1 -22q-3 -22 -20 -37t-38 -15h-256q-99 -2 -172 -21q-115 -29 -176 -94.5t-77 -175.5zM459 717q44 6 110 8h178q-28 20 -93 20q-80 0 -195 -28zM465 371q10 65 57.5 103t112.5 38h160q18 0 32 -14.5t11 -36.5l-14 -103q-2 -15 -13 -28q-42 -51 -99 -80t-115 -29 q-68 0 -105 42q-29 33 -29 81q0 13 2 27zM567 371q-4 -27 5.5 -37t39.5 -10q63 0 112 51l5 35h-109q-31 0 -40.5 -7.5t-12.5 -31.5z" />
<glyph unicode="b" d="M72 0l219 1520q3 22 21.5 36.5t36.5 14.5h461q22 0 34 -16.5t10 -34.5l-58 -399q113 67 244 67q169 0 286 -80q118 -81 166 -225q31 -93 30 -202q0 -61 -9 -128q-40 -277 -215.5 -449t-426.5 -172q-137 0 -236 71v-3q-3 -22 -22 -36.5t-37 -14.5h-460q-22 0 -34 16.5 t-10 34.5zM181 51h359l9 64q4 28 15 41.5t24.5 13t26 -5t21.5 -10.5l8 -6q84 -113 242 -113q207 0 348.5 138t176.5 380q9 63 9 120q0 165 -78 270q-105 142 -317 142q-151 0 -262 -111q-20 -20 -36.5 -24t-25 4.5t-14.5 20.5t-7 23l-2 10l66 460h-358zM614 565 q16 114 86 191.5t170 77.5t148 -78q36 -58 36 -136q0 -26 -4 -55q-16 -114 -86.5 -191t-171.5 -77q-100 0 -147 77q-35 57 -35 135q0 27 4 56zM716 565q-4 -26 -4 -48q0 -49 18 -77q26 -42 77 -41q52 0 90.5 41.5t50.5 124.5q4 26 4 48q0 49 -18 77q-26 42 -79 41 q-51 0 -89 -41.5t-50 -124.5z" />
<glyph unicode="c" horiz-adv-x="1148" d="M59 555q41 284 244 458.5t491 174.5q196 0 335 -93t191 -261q6 -19 -4.5 -39t-32.5 -29l-389 -156q-20 -8 -39 0t-24 27q-21 76 -85 76q-41 0 -74.5 -38.5t-44.5 -117.5q-4 -29 -4 -52q0 -43 14 -67q22 -38 64 -39q33 0 56 17.5t44 66.5q8 20 28 32.5t47 -0.5l348 -172 q18 -9 22 -28.5t-6 -37.5q-91 -164 -258.5 -254.5t-372.5 -90.5q-286 0 -438 172q-120 136 -120 339q0 54 8 112zM162 555q-8 -53 -7 -101q1 -170 97 -279q124 -140 372 -140q163 0 291.5 61.5t208.5 175.5l-258 128q-70 -103 -180 -103q-94 0 -136 75q-30 54 -29 126 q0 28 4 59q16 109 79.5 183.5t156.5 74.5q105 0 153 -92l289 116q-51 118 -160 182t-264 64q-249 0 -415.5 -143t-201.5 -387z" />
<glyph unicode="d" d="M61 567q40 277 216 449t427 172q136 0 235 -71l58 403q3 22 22 36.5t37 14.5h461q22 0 33.5 -16.5t9.5 -34.5l-219 -1520q-3 -22 -21.5 -36.5t-36.5 -14.5h-461q-21 0 -33.5 15t-10.5 36q-115 -68 -243 -68q-169 0 -287 80q-118 81 -166 225q-31 93 -31 202q0 61 10 128z M164 567q-9 -63 -10 -120q0 -165 79 -270q105 -142 317 -142q151 0 262 111q20 20 36.5 24.5t25 -4.5t14.5 -20.5t8 -21.5l1 -11l-9 -62h358l205 1417h-359l-66 -462q-4 -28 -15 -41.5t-24.5 -13.5t-26 4.5t-20.5 10.5l-9 6q-84 113 -242 113q-207 0 -348.5 -138 t-176.5 -380zM524 555q16 114 86.5 191t171.5 77q100 0 148 -77q36 -58 35 -136q0 -26 -4 -55q-16 -114 -86 -191t-170 -77q-101 0 -149 77q-36 58 -36 136q0 27 4 55zM627 555q-4 -26 -4 -48q1 -49 19 -77q26 -42 78 -41q50 0 88 41.5t50 124.5q4 26 4 48q0 49 -18 77 q-26 42 -77 41q-52 0 -90 -41.5t-50 -124.5z" />
<glyph unicode="e" horiz-adv-x="1257" d="M59 555q41 285 246 459t495 174q17 0 51 -2q192 -11 317 -106q126 -94 170 -256q23 -83 23 -179q0 -90 -20 -191q-4 -20 -21.5 -34t-36.5 -14h-223l157 -181q12 -15 9.5 -35.5t-17.5 -35.5q-233 -222 -578 -222q-305 0 -459 170q-122 135 -122 340q0 54 9 113zM162 555 q-8 -52 -8 -100q0 -173 100 -281q126 -140 392 -139q268 0 457 153l-145 167q-121 -83 -237 -83q-83 0 -138.5 44t-71.5 124q-7 33 7.5 50t32.5 18h18h679q10 68 10 128q0 180 -91 296q-122 154 -382 153q-252 0 -420 -142.5t-203 -387.5zM529.5 664q0.5 9 3.5 16 q29 86 87.5 143.5t139.5 57.5q84 1 126 -63q30 -45 30 -102q0 -24 -5 -50q-4 -18 -21 -33t-37 -15h-278q-20 0 -31 7.5t-13 18.5t-1.5 20zM646 406q33 -31 90 -31q58 0 120 31h-210zM659 721h152q-11 57 -66 57q-49 0 -86 -57z" />
<glyph unicode="f" horiz-adv-x="872" d="M100 768l42 291q3 22 22 36.5t37 14.5h102l7 49q29 198 190 316q158 116 381 116h8q103 0 205 -22.5t173 -62.5q17 -10 20.5 -30t-8.5 -38l-199 -316q-8 -13 -22 -21q19 -16 16 -42l-42 -291q-3 -22 -21.5 -36.5t-36.5 -14.5h-166l-103 -717q-3 -22 -22 -36.5t-37 -14.5 h-459q-22 0 -34 16.5t-10 34.5l104 717h-103q-22 0 -34 16.5t-10 34.5zM210 819h103q18 0 32 -14.5t11 -36.5l-103 -717h356l104 717q2 18 19 34.5t39 16.5h166l27 189h-165q-18 0 -32.5 14.5t-11.5 36.5l4 31q10 66 61 106q48 39 113 39h6q40 0 86 -20l139 220 q-130 54 -290 54h-4q-192 0 -313 -89q-122 -89 -144 -241l-15 -100q-2 -18 -19 -34.5t-39 -16.5h-103zM868 1110h124q-38 23 -70 23q-40 1 -54 -23z" />
<glyph unicode="g" horiz-adv-x="1339" d="M-14.5 -286q-2.5 19 7.5 35l190 310q10 17 29 24.5t36 2.5q-110 74 -158 210q-32 89 -32 196q0 56 9 116q37 256 200.5 418t386.5 162q136 0 229 -63q7 23 24 34.5t34 11.5h459q22 0 33.5 -16.5t9.5 -34.5l-148 -1028q-24 -170 -131.5 -298.5t-270 -195.5t-356.5 -67 q-161 0 -302.5 43.5t-232.5 110.5q-14 10 -16.5 29zM105 -253q80 -49 198.5 -81.5t247.5 -32.5q264 0 438 125.5t204 333.5l141 977h-357l-7 -53q-4 -28 -15 -41.5t-24.5 -13.5t-26 4.5t-20.5 10.5l-9 6q-78 103 -235 103q-178 0 -308 -128t-162 -349q-8 -55 -8 -104 q0 -94 29 -170q44 -115 138 -170q75 -45 180 -45q151 0 257 101q22 21 38.5 25t24.5 -5t13.5 -21t6.5 -23l1 -10l-15 -106q-13 -91 -93.5 -142t-194.5 -51q-163 0 -308 78zM287 63q59 -34 134 -53.5t141 -19.5q154 0 170 88q-110 -62 -238 -62q-116 0 -207 47zM495 596 q16 108 82.5 181t161.5 73t141 -73q33 -54 33 -127q0 -26 -4 -54q-16 -106 -82 -179t-161 -73t-141 73q-34 54 -34 126q0 26 4 53zM598 596q-3 -24 -3 -43q0 -44 16 -69q24 -38 70 -38t80.5 37.5t45.5 112.5q3 24 3 44q0 45 -16 70q-24 38 -70 38t-80.5 -37.5t-45.5 -114.5z " />
<glyph unicode="h" horiz-adv-x="1406" d="M72 0l219 1520q3 22 21.5 36.5t36.5 14.5h461q22 0 34 -16.5t10 -34.5l-62 -427q136 99 303 99q199 0 307 -133q84 -103 84 -254q0 -43 -7 -90l-103 -715q-3 -22 -21.5 -36.5t-36.5 -14.5h-461q-22 0 -34 16.5t-10 34.5l84 582q2 16 2 29q0 73 -69 73q-44 0 -75 -32 t-40 -97l-80 -555q-3 -22 -22 -36.5t-37 -14.5h-460q-22 0 -34 16.5t-10 34.5zM181 51h359l72 504q14 98 77.5 164.5t154.5 66.5q84 0 126 -58q33 -44 32 -106q0 -19 -3 -40l-76 -531h358l96 664q6 40 6 77q0 120 -63 197q-82 101 -239 101q-193 0 -320 -158 q-30 -32 -50 -25.5t-30 30.5l-10 24l73 507h-358z" />
<glyph unicode="i" horiz-adv-x="686" d="M61 0l162 1120q3 22 21.5 36.5t36.5 14.5h461q22 0 34 -16.5t10 -34.5l-161 -1120q-3 -22 -22 -36.5t-37 -14.5h-461q-22 0 -34 16.5t-10 34.5zM171 51h359l146 1018h-358zM267 1440q18 123 110.5 203.5t215.5 80.5t192 -80q55 -64 55 -155q0 -24 -4 -49 q-18 -123 -110 -204t-215 -81t-193 81q-55 64 -55 155q0 24 4 49zM369 1440q-3 -18 -3 -35q0 -59 34 -98q43 -50 125 -50t139.5 50t69.5 133q3 18 3 35q1 58 -33 97q-42 50 -125.5 50t-140.5 -50t-69 -132z" />
<glyph unicode="j" horiz-adv-x="712" d="M-282 -364.5q-5 18.5 3 34.5l148 315q9 20 29.5 32t45.5 -1q48 -24 89 -24q24 -1 32 6t12 37l156 1085q3 22 22 36.5t37 14.5h460q22 0 34 -16.5t10 -34.5l-166 -1155q-29 -199 -184 -317q-151 -115 -367 -115h-7q-196 0 -334 75q-15 9 -20 27.5zM-165 -319 q109 -46 252 -46h4q183 0 298 87q116 89 138 243l160 1104h-359l-149 -1034q-9 -65 -53 -106q-44 -40 -107 -40h-3q-38 0 -78 13zM257 1440q18 125 116 204.5t228 79.5q131 0 205 -80q61 -64 61 -157q0 -23 -4 -47q-18 -124 -115.5 -204.5t-228.5 -80.5q-130 0 -205 80 q-60 65 -60 158q0 23 3 47zM359 1440q-2 -15 -2 -30q0 -61 37 -102q47 -51 139 -51q93 0 154.5 50.5t72.5 132.5q2 16 2 30q0 62 -37 102q-46 50 -139 50q-92 0 -154 -50.5t-73 -131.5z" />
<glyph unicode="k" horiz-adv-x="1355" d="M72 0l219 1520q3 22 21.5 36.5t36.5 14.5h461q22 0 34 -16.5t10 -34.5l-80 -557l198 191q17 17 41 17h520q4 0 10.5 -1.5t20.5 -7.5t20.5 -14.5t1 -25t-27.5 -37.5l-440 -404l288 -655q2 -3 4 -8.5t3.5 -18.5t-2 -23t-19 -18.5t-42.5 -8.5h-546q-32 0 -42 29l-92 266 l-35 -244q-3 -22 -22 -36.5t-37 -14.5h-460q-22 0 -34 16.5t-10 34.5zM181 51h359l35 244q4 21 19 35l64 58q31 25 49 22.5t25 -18.5l7 -17l111 -324h426l-268 611q-5 11 -5 21q0 21 20 40l376 346h-378l-285 -274q-22 -21 -38.5 -25t-24.5 5t-13.5 21t-6.5 22l-1 11l92 639 h-358z" />
<glyph unicode="l" horiz-adv-x="706" d="M72 0l219 1520q3 22 21.5 36.5t36.5 14.5h461q22 0 34 -16.5t10 -34.5l-219 -1520q-3 -22 -22 -36.5t-37 -14.5h-460q-22 0 -34 16.5t-10 34.5zM181 51h359l204 1417h-358z" />
<glyph unicode="m" horiz-adv-x="2113" d="M61 0l162 1120q3 22 21.5 36.5t36.5 14.5h461q22 0 34 -16.5t10 -34.5l-4 -25q133 97 297 97q115 0 203 -49t135 -137q161 186 391 186q196 0 302 -133q82 -103 83 -253q0 -44 -7 -91l-103 -715q-3 -22 -22 -36.5t-37 -14.5h-461q-22 0 -33.5 16.5t-9.5 34.5l83 582 q2 17 2 31q0 71 -63 71q-40 0 -69.5 -31.5t-38.5 -97.5l-80 -555q-3 -22 -22 -36.5t-37 -14.5h-461q-22 0 -33.5 16.5t-9.5 34.5l83 582q2 17 2 31q0 71 -63 71q-40 0 -69.5 -31.5t-38.5 -97.5l-80 -555q-3 -22 -22 -36.5t-37 -14.5h-461q-22 0 -34 16.5t-10 34.5zM171 51 h359l72 504q14 97 75.5 164t150.5 67q81 0 121 -58q31 -45 30 -107q0 -19 -2 -39l-77 -531h359l72 504q14 97 75.5 164t150.5 67q81 0 121 -58q31 -45 30 -107q0 -19 -2 -39l-77 -531h359l95 664q6 41 6 78q1 119 -61 196q-80 101 -235 101q-220 0 -350 -211 q-16 -26 -31.5 -35t-26.5 -3.5t-19.5 14.5t-12.5 18l-4 9q-25 98 -99 153t-186 55q-185 0 -313 -156q-30 -32 -50 -25.5t-30 30.5l-10 24l15 106h-358z" />
<glyph unicode="n" horiz-adv-x="1396" d="M61 0l162 1120q3 22 21.5 36.5t36.5 14.5h461q22 0 34 -16.5t10 -34.5l-4 -27q136 99 303 99q199 0 307 -133q84 -103 84 -254q0 -43 -7 -90l-103 -715q-3 -22 -22 -36.5t-37 -14.5h-460q-22 0 -34 16.5t-10 34.5l84 582q2 16 2 29q0 73 -70 73q-44 0 -74.5 -32 t-39.5 -97l-80 -555q-3 -22 -22 -36.5t-37 -14.5h-461q-22 0 -34 16.5t-10 34.5zM171 51h359l72 504q14 98 77.5 164.5t154.5 66.5q84 0 126 -58q33 -44 32 -106q0 -19 -3 -40l-76 -531h358l96 664q6 40 6 77q1 120 -63 197q-82 101 -240 101q-192 0 -319 -158 q-30 -32 -50 -25.5t-30 30.5l-10 24l15 108h-358z" />
<glyph unicode="o" horiz-adv-x="1327" d="M60 561q27 188 133.5 330.5t273 219.5t368.5 77q307 0 471 -172q131 -137 130 -346q0 -52 -8 -109q-41 -284 -254 -456.5t-520 -172.5t-471 172q-131 138 -131 348q0 52 8 109zM163 561q-7 -50 -7 -95q0 -176 107 -289q135 -142 406 -142t446.5 142t210.5 384q7 50 7 95 q0 176 -107 288q-135 142 -406 141.5t-446.5 -142t-210.5 -382.5zM524 555q16 114 86.5 191t171.5 77t149 -77q36 -58 36 -136q0 -26 -4 -55q-16 -114 -86.5 -191t-171.5 -77t-149 77q-36 58 -36 136q0 27 4 55zM627 555q-4 -26 -4 -48q1 -49 19 -77q26 -42 78 -41.5t90 42 t50 124.5q4 26 4 48q0 49 -18 77q-26 42 -78.5 41.5t-90.5 -42t-50 -124.5z" />
<glyph unicode="p" d="M14 -397l219 1517q3 22 22 36.5t37 14.5h460q21 0 33.5 -14.5t10.5 -35.5q113 67 244 67q169 0 286 -80.5t166 -224.5q31 -93 31 -202q0 -61 -10 -128q-40 -277 -215.5 -449t-426.5 -172q-137 0 -236 71l-57 -400q-3 -22 -22 -37t-37 -15h-461q-22 0 -34 17t-10 35z M124 -346h359l66 461q4 28 15 41.5t24.5 13t26 -5t21.5 -10.5l8 -6q84 -113 242 -113q207 0 348.5 138t176.5 380q9 63 9 120q0 164 -78 270q-105 142 -317 142q-151 0 -262 -111q-20 -20 -36.5 -24t-25 4.5t-14.5 20.5t-7 23l-2 10l9 61h-359zM614 565q16 114 86 191.5 t170 77.5q101 0 148 -78q36 -57 36 -136q0 -26 -4 -55q-16 -114 -86.5 -191t-171.5 -77q-100 0 -147 77q-35 57 -35 135q0 27 4 56zM716 565q-4 -26 -4 -48q0 -48 18 -77q26 -41 77 -41q52 0 90.5 41.5t50.5 124.5q4 26 4 48q0 48 -18 77q-27 41 -79 41q-51 0 -89 -41.5 t-50 -124.5z" />
<glyph unicode="q" d="M61 567q40 277 216 449t427 172q136 0 235 -71l1 3q3 22 21.5 36.5t36.5 14.5h461q22 0 34 -16.5t10 -34.5l-219 -1517q-3 -22 -21.5 -37t-36.5 -15h-461q-22 0 -34 17t-10 35l57 397q-115 -68 -243 -68q-169 0 -286.5 80.5t-166.5 224.5q-31 93 -31 202q0 61 10 128z M164 567q-9 -63 -9 -120q0 -164 78 -270q105 -142 317 -142q151 0 262 111q20 20 36.5 24.5t25 -4.5t14.5 -20.5t8 -21.5l1 -11l-66 -459h358l204 1415h-358l-9 -63q-4 -28 -15 -41.5t-24.5 -13.5t-26 4.5t-20.5 10.5l-9 6q-84 113 -242 113q-207 0 -348.5 -138t-176.5 -380 zM524 555q16 114 86.5 191t171.5 77q100 0 148 -77q35 -58 35 -136q0 -26 -4 -55q-16 -114 -86 -191t-170 -77q-101 0 -149 77q-36 58 -36 136q0 26 4 55zM627 555q-4 -26 -4 -48q0 -48 19 -77q26 -41 78 -41q50 0 88 41.5t50 124.5q4 26 4 48q0 48 -18 77q-26 41 -77 41 q-52 0 -90 -41.5t-50 -124.5z" />
<glyph unicode="r" horiz-adv-x="935" d="M61 0l162 1120q3 22 21.5 36.5t36.5 14.5h461q22 0 34 -16.5t10 -34.5l-4 -30q140 102 305 102q22 0 34 -16.5t10 -34.5l-60 -416q-3 -21 -19.5 -38.5t-46.5 -12.5q-49 7 -78 7q-103 0 -159 -38.5t-66 -107.5l-77 -535q-3 -22 -22 -36.5t-37 -14.5h-461q-22 0 -34 16.5 t-10 34.5zM171 51h359l69 484q17 117 113 182.5t230 65.5q23 0 35 -1l44 304q-160 -21 -271 -158q-30 -32 -50 -25.5t-30 29.5l-10 24l16 113h-358z" />
<glyph unicode="s" horiz-adv-x="1130" d="M-6.5 126.5q-2.5 19.5 8.5 35.5l180 286q15 25 48 29q-99 88 -99 220q0 28 4 57q29 201 198 319.5t410 118.5q281 0 524 -148q16 -10 19 -30.5t-9 -38.5l-192 -284q-12 -19 -38 -26q139 -93 139 -249q0 -27 -4 -56q-29 -199 -201.5 -315.5t-419.5 -116.5q-328 0 -551 169 q-14 10 -16.5 29.5zM113 158q190 -127 463 -127q216 0 349 90.5t155 238.5q3 20 3 38q-1 36 -13 68q-18 46 -55 74.5t-86 51.5t-101.5 36.5t-102 30.5t-88 33.5t-59.5 44.5q-17 23 -17 50q0 7 1 14q7 47 46 67.5t81 20.5q131 0 342 -107l132 196q-207 112 -435 112 q-208 0 -338 -92t-152 -244q-3 -20 -3 -39q0 -44 17 -80q24 -51 70 -80t103.5 -50.5t116 -37t106.5 -33.5q46 -18 74 -46q23 -24 23 -55q0 -7 -1 -14q-12 -83 -133 -83q-181 0 -374 118z" />
<glyph unicode="t" horiz-adv-x="942" d="M76 768l42 291q3 22 21.5 36.5t36.5 14.5h103l38 262q3 22 21.5 36.5t36.5 14.5h459q22 0 34 -16.5t10 -34.5l-38 -262h211q22 0 34 -16.5t10 -34.5l-42 -291q-3 -22 -22 -36.5t-37 -14.5h-211l-41 -287q-4 -26 3.5 -35t28.5 -8q31 0 101 25q15 9 37.5 1.5t25.5 -36.5 l32 -316v-6q0 -33 -32 -50q-145 -77 -356 -77h-7q-205 0 -317 116q-92 95 -93 242q0 36 6 74l51 357h-102q-22 0 -34 16.5t-10 34.5zM186 819h102q18 0 32.5 -14.5t11.5 -36.5l-59 -408q-5 -31 -5 -60q0 -112 68 -182q85 -88 256 -87h4q149 0 267 46l-23 221 q-45 -13 -78 -13h-3q-63 1 -95 41q-26 33 -26 78q0 12 2 26l48 338q2 18 19.5 34.5t39.5 16.5h211l27 189h-211q-18 0 -32.5 14.5t-11.5 36.5l38 262h-356l-38 -262q-2 -18 -19.5 -34.5t-39.5 -16.5h-102z" />
<glyph unicode="u" horiz-adv-x="1376" d="M89 406l103 714q3 22 22 36.5t37 14.5h461q22 0 33.5 -16.5t9.5 -34.5l-83 -581q-3 -18 -3 -33q0 -70 59 -70q38 0 66.5 31.5t38.5 97.5l80 555q3 22 22 36.5t37 14.5h460q22 0 34 -16.5t10 -34.5l-161 -1120q-3 -22 -22 -36.5t-37 -14.5h-461q-22 0 -33.5 16.5 t-9.5 34.5l3 23q-132 -95 -292 -95q-195 0 -300 134q-81 103 -81 252q0 44 7 92zM192 406q-6 -41 -6 -79q0 -119 60 -195q80 -101 232 -101q186 0 308 153q17 21 32 25.5t25 -3.5t18 -19t11 -21l4 -10l-15 -105h359l146 1018h-358l-73 -504q-14 -97 -73.5 -164t-147.5 -67 q-79 0 -118 59q-30 45 -30 107q0 19 3 39l77 530h-359z" />
<glyph unicode="v" horiz-adv-x="1253" d="M87.5 1126.5q0.5 11.5 5 20.5t18.5 16.5t37 7.5h473q18 0 30 -11.5t14 -26.5l56 -509l206 509q6 17 22.5 27.5t32.5 10.5h461q0 -1 7.5 0.5t17 -2.5t17 -9.5t7.5 -20.5t-11 -36l-575 -1121q-16 -33 -53 -33h-471q-16 0 -28.5 9t-15.5 24l-248 1121q-1 3 -2 7.5t-0.5 16z M207 1069l225 -1018h400l522 1018h-347l-268 -664q-9 -22 -22 -30t-26 -4t-25 11.5t-19 15.5l-7 7l-73 664h-360z" />
<glyph unicode="w" horiz-adv-x="2000" d="M87.5 1126.5q0.5 11.5 5 20.5t19 16.5t36.5 7.5h467q17 0 29.5 -11.5t14.5 -26.5l59 -479l192 479q6 17 22.5 27.5t32.5 10.5h426q17 0 29.5 -11.5t14.5 -26.5l60 -481l196 481q7 17 23 27.5t32 10.5h444q0 -1 7.5 0.5t17 -2.5t17 -9.5t7.5 -20.5t-11 -36l-571 -1121 q-17 -33 -53 -33h-450q-17 0 -29.5 11.5t-14.5 26.5l-52 410l-175 -411q-7 -16 -22.5 -26.5t-32.5 -10.5h-450q-16 0 -28.5 10t-15.5 24l-244 1120q-1 3 -2 7.5t-0.5 16zM207 1069l221 -1018h376l235 553q10 22 23.5 30t26 4t24 -11.5t18.5 -15.5l7 -8l70 -552h375l519 1018 h-332l-256 -629q-9 -22 -22.5 -30.5t-26.5 -4.5t-24.5 11.5t-18.5 15.5l-7 7l-78 630h-347l-252 -629q-14 -35 -39 -35t-43 17l-18 17l-77 630h-354z" />
<glyph unicode="x" horiz-adv-x="1339" d="M-70.5 -12q3.5 17 21.5 40l431 546l-255 519q-2 3 -4.5 8.5t-5 19t1 23.5t19 18.5t43.5 8.5h528q32 0 42 -28l62 -176l129 179q19 25 48 25h504h10t19.5 -3.5t20 -11t3.5 -24t-21 -39.5l-405 -517l276 -548q2 -3 4.5 -8.5t4.5 -19t-1.5 -24t-19 -19t-43.5 -8.5h-530 q-32 0 -42 28l-77 208l-157 -211q-19 -25 -48 -25h-506h-10t-19.5 4t-20 11t-3 24zM91 51h383l197 266q31 37 50 37h1q20 0 30 -20l9 -20l97 -263h405l-250 497q-14 27 8 55l365 466h-381l-171 -237q-17 -24 -33 -32.5t-26 -3.5t-17 13.5t-10 17.5l-4 9l-81 233h-403 l230 -468q14 -27 -8 -55z" />
<glyph unicode="y" horiz-adv-x="1277" d="M-134 -295.5q-1 20.5 12 36.5l237 303q5 7 12 12.5t18 11t24 2.5t25 -16q49 -52 107 -52q29 0 44 7t28 25l3 5l-301 1061l-2.5 7.5t-2 17t3.5 22t19 17t39 7.5h473q35 0 43 -34l99 -486l207 483q7 16 22 26.5t32 10.5h459q0 -1 8 0t17 -2.5t17 -9.5t7.5 -21t-11.5 -36 l-634 -1199q-204 -372 -592 -372q-231 0 -398 141q-14 12 -15 32.5zM-11 -273q129 -94 304 -94q166 0 282.5 73t205.5 235l597 1128h-346l-258 -602q-16 -38 -40.5 -38.5t-41.5 17.5l-16 19l-122 604h-359l288 -1014q8 -25 -10 -47l-20 -26q-61 -82 -166 -82q-74 0 -131 41z " />
<glyph unicode="z" horiz-adv-x="1163" d="M0 0l39 268q3 22 18 35l449 422h-330q-22 0 -34 16.5t-10 34.5l50 344q3 22 21.5 36.5t36.5 14.5h1029q22 0 33.5 -16.5t9.5 -34.5l-38 -268q-3 -21 -19 -35l-449 -422h371q22 0 34 -16.5t10 -34.5l-50 -344q-3 -22 -21.5 -36.5t-36.5 -14.5h-1069q-22 0 -34 16.5 t-10 34.5zM110 51h966l35 242h-436q-45 0 -51 21.5t10 43.5l16 21l524 493l29 197h-926l-35 -242h395q28 0 41 -9t11.5 -21.5t-7 -24.5t-12.5 -21l-7 -9l-525 -494z" />
<glyph unicode="{" horiz-adv-x="780" d="M44 459l50 348q3 22 21.5 36.5t36.5 14.5h92q3 0 7 0.5t5 0.5q2 10 3 18l49 333q28 196 146 280.5t353 84.5h180q22 0 34 -16.5t10 -34.5l-49 -338q-3 -22 -22 -36.5t-37 -14.5q-20 0 -34 -0.5t-26.5 -0.5t-20.5 -2.5t-14.5 -3t-10.5 -5.5t-6.5 -6.5t-4.5 -9.5t-2.5 -11 t-2 -14.5t-2.5 -16.5l-23 -158q-29 -197 -154 -274q104 -79 75 -275l-23 -157q-1 -5 -2 -14q-6 -35 3 -43q13 -13 104 -13q22 0 34 -16.5t10 -34.5l-49 -338q-3 -22 -22 -36.5t-37 -14.5h-180q-235 0 -328.5 84t-65.5 280l48 334q2 16 2 18q-2 0 -5 0.5t-6 0.5h-93 q-22 0 -33.5 16.5t-9.5 34.5zM153 510h41q53 0 79 -27q29 -31 19 -94l-49 -334q-16 -107 4 -161t89 -77.5t214 -23.5h129l34 237q-164 13 -141 171l22 157q16 111 -9.5 156.5t-115.5 68.5q-19 5 -24.5 17t0 25.5t14.5 27t17 21.5l8 9q97 23 135 68t54 156l23 158 q23 157 191 170l34 238h-129q-109 0 -175.5 -11.5t-110.5 -43.5t-64 -79.5t-32 -128.5l-48 -333q-10 -65 -46 -95q-33 -26 -86 -26h-41z" />
<glyph unicode="|" horiz-adv-x="667" d="M82 -211l266 1841q3 22 21.5 36.5t36.5 14.5h340q22 0 34 -16.5t10 -34.5l-265 -1841q-3 -22 -22 -36.5t-37 -14.5h-340q-22 0 -34 16.5t-10 34.5zM192 -160h238l250 1739h-237z" />
<glyph unicode="}" horiz-adv-x="780" d="M-68 -258l49 338q3 22 21.5 36.5t36.5 14.5q37 0 57 1.5t34 3.5t20 10.5t8 15t4 25.5q1 9 2 14l23 157q29 198 154 275q-104 79 -75 274l23 158q6 44 3 51q-7 17 -66 19h-42q-22 0 -34 16.5t-10 34.5l49 338q3 22 21.5 36.5t36.5 14.5h181q235 0 328.5 -84.5t65.5 -280.5 l-49 -333q-1 -8 -1 -18q2 0 5 -0.5t6 -0.5h92q22 0 34 -16.5t10 -34.5l-50 -348q-3 -22 -22 -36.5t-37 -14.5h-92q-3 0 -6.5 -0.5t-4.5 -0.5q0 -1 -1.5 -7t-2.5 -11l-48 -334q-28 -196 -146 -280t-353 -84h-180q-22 0 -34 16.5t-10 34.5zM42 -207h129q145 0 220.5 23.5 t110.5 77.5t51 161l48 334q10 64 46 94q34 27 86 27h41l35 246h-41q-53 0 -78 26q-29 31 -19 95l48 333q12 61 7 106t-20 75.5t-54 48.5t-95.5 25.5t-143.5 7.5h-129l-34 -238q163 -13 141 -170l-23 -158q-16 -111 9.5 -156t115.5 -68q19 -5 25 -17t0 -25.5t-14.5 -27 t-16.5 -21.5l-8 -9q-97 -23 -135.5 -68.5t-54.5 -156.5l-23 -157q-23 -158 -190 -171z" />
<glyph unicode="~" horiz-adv-x="1064" d="M113 469q32 222 126 342.5t254 120.5q50 0 96 -13.5t72 -29.5t47 -31t24 -16q6 13 8 32q3 22 22 37t37 15h303q22 0 34 -17t10 -35q-66 -462 -378 -462q-50 0 -96.5 13.5t-72.5 29t-47 30.5t-24 16q-6 -13 -8 -32q-3 -22 -21.5 -36.5t-36.5 -14.5h-306q-22 0 -33.5 16.5 t-9.5 34.5zM223 520h207q13 35 43.5 59.5t68.5 24.5q35 0 65 -14t49 -31t52.5 -31t74.5 -14q101 0 160.5 69t91.5 240h-205q-13 -35 -43 -59.5t-68 -24.5q-35 0 -65 14t-49 31t-52.5 31t-74.5 14q-102 0 -162.5 -69.5t-92.5 -239.5z" />
<glyph unicode="&#xa1;" horiz-adv-x="602" d="M-15 -317l54 376q0 4 2 8l158 531q6 19 22.5 31t34.5 12h275q19 0 31.5 -12.5t12.5 -30.5l5 -531v-8l-54 -376q-3 -22 -22 -37t-37 -15h-438q-22 0 -34 17t-10 35zM95 -266h336l46 321l-5 484h-187l-144 -484zM182 924q16 114 101 188t199 74q113 0 175.5 -74t46.5 -188 q-17 -113 -101 -186.5t-196 -73.5q-114 0 -178 73.5t-47 186.5zM285 924q-11 -72 26.5 -115t110.5 -43q72 0 120.5 43t59.5 115q10 73 -26.5 116t-108.5 43q-74 0 -123 -43t-59 -116z" />
<glyph unicode="&#xa2;" horiz-adv-x="1148" d="M59 555q33 228 174.5 389.5t353.5 218.5l44 299q3 22 21.5 36.5t36.5 14.5h340q22 0 34 -16.5t10 -34.5l-45 -315q108 -41 183 -120.5t109 -192.5q6 -19 -4.5 -39t-32.5 -29l-389 -156q-20 -8 -39 0t-24 27q-21 76 -85 76q-41 0 -74.5 -38.5t-44.5 -117.5 q-12 -81 10 -119.5t64 -38.5q33 0 56 17.5t44 66.5q8 20 28 32.5t47 -0.5l348 -172q18 -9 22 -28.5t-6 -36.5q-62 -111 -160.5 -190t-221.5 -118l-44 -308q-3 -22 -22 -36.5t-37 -14.5h-340q-22 0 -34 16.5t-10 34.5l43 295q-198 54 -292.5 213t-62.5 385zM162 555 q-29 -204 57.5 -337t268.5 -170q16 -3 26.5 -17t7.5 -33l-41 -285h237l43 295q2 16 15 31t30 19q206 53 318 214l-258 128q-70 -103 -180 -103q-94 0 -135.5 75t-25.5 185q16 109 79.5 183.5t156.5 74.5q105 0 153 -92l289 116q-74 167 -254 222q-15 5 -23 18.5t-6 30.5 l43 301h-237l-42 -289q-2 -17 -16 -31.5t-32 -18.5q-192 -39 -318 -175t-156 -342z" />
<glyph unicode="&#xa3;" horiz-adv-x="1159" d="M-10 0l51 354q3 22 21.5 37t36.5 15h93l12 83h-93q-22 0 -34 17t-9 35l45 311q3 22 21.5 36.5t36.5 14.5h92l7 47q37 261 215 409t451 148q140 0 262.5 -46.5t206.5 -134.5q25 -25 3 -60l-222 -349q-11 -17 -37 -26q15 -18 12 -39l-45 -311q-3 -22 -21.5 -37t-36.5 -15 h-275l-12 -83h436q22 0 34 -17t10 -35l-51 -354q-3 -22 -21.5 -36.5t-36.5 -14.5h-1108q-22 0 -34 16.5t-10 34.5zM100 51h1005l36 252h-436q-18 0 -32.5 14.5t-11.5 36.5l27 187q2 18 19.5 34.5t39.5 16.5h274l30 209h-274q-18 0 -32.5 14.5t-11.5 36.5l13 88 q11 77 61 124.5t123 47.5q103 0 208 -91l162 254q-69 62 -168.5 96t-210.5 34q-237 0 -377 -117t-172 -338l-14 -98q-2 -18 -19 -34.5t-39 -16.5h-92l-31 -209h93q18 0 32 -14.5t11 -36.5l-26 -187q-2 -18 -19.5 -34.5t-39.5 -16.5h-92zM843 903h259q-104 107 -186 107 q-35 0 -48.5 -12.5t-19.5 -57.5z" />
<glyph unicode="&#xa4;" horiz-adv-x="1419" d="M13 230q4 21 19 34l211 184q-26 102 -10 214q15 100 64 196l-153 179q-13 18 -9 38.5t19 33.5l293 256q20 15 41 14t32 -14l148 -173q106 41 218 41q110 0 208 -41l199 173q20 15 40.5 14t31.5 -14l220 -256q13 -18 8.5 -38.5t-19.5 -33.5l-205 -179q20 -99 6 -196 q-16 -110 -72 -212l160 -186q13 -18 8.5 -39t-19.5 -34l-293 -256q-20 -15 -40.5 -14t-31.5 14l-163 191q-100 -36 -202 -36q-97 0 -192 35l-216 -190q-20 -15 -41 -14t-32 14l-219 256q-13 18 -9 39zM136 227l157 -183l202 177q28 24 58 11q88 -39 183 -39q100 0 194 40 q35 14 56 -10l153 -179l210 183l-150 175q-9 10 -9.5 26.5t8.5 32.5q61 97 75 201q14 94 -12 189q-9 32 19 56l191 166l-157 184l-186 -163q-12 -10 -28.5 -13.5t-31.5 3.5q-90 46 -196 46q-108 0 -208 -46q-35 -15 -57 10l-139 163l-210 -184l142 -166q22 -28 3 -58 q-53 -89 -68 -187q-15 -109 17 -203q5 -13 -0.5 -30t-18.5 -29zM591 662q13 89 84 152t160 63q88 0 142.5 -63t41.5 -152t-85 -151t-161 -62q-88 0 -141.5 62t-40.5 151zM693 662q-7 -46 20.5 -78.5t74.5 -32.5t84.5 32.5t44.5 78.5t-21.5 79t-75.5 33q-46 0 -83 -32.5 t-44 -79.5z" />
<glyph unicode="&#xa5;" horiz-adv-x="1431" d="M124 303l24 168q5 32 37 47q-28 16 -24 47l24 166q3 22 22 36.5t37 14.5h132l-238 630q-2 3 -4 8t-3 18t2.5 23t19 18t41.5 8h473q31 0 41 -28l176 -464l300 464q18 28 50 28h473q0 -1 9 0.5t19 -3t18.5 -10.5t6 -22.5t-17.5 -39.5l-419 -630h90q22 0 34 -16.5t10 -34.5 l-24 -166q-4 -31 -38 -47q29 -16 25 -47l-25 -168q-3 -22 -21.5 -36.5t-36.5 -14.5h-271l-36 -252q-3 -22 -21.5 -36.5t-36.5 -14.5h-476q-22 0 -33.5 16.5t-9.5 34.5l36 252h-322q-22 0 -33.5 16.5t-9.5 34.5zM233 354h322q18 0 32.5 -14.5t11.5 -36.5l-37 -252h373l36 252 q2 18 19.5 34.5t39.5 16.5h270l10 66h-258q-42 0 -50.5 19t3.5 37l12 19l63 94q17 27 49 27h209l9 64h-123q-26 0 -39.5 7.5t-13.5 19t4 22.5t9 19l6 7l418 629h-357l-340 -524q-16 -25 -31.5 -34.5t-26 -5t-18.5 13t-11 16.5l-4 9l-199 525h-357l238 -629q14 -37 0 -55.5 t-35 -19.5h-21h-166l-9 -64h254q31 0 41 -27l36 -94q14 -37 0 -55.5t-35 -19.5h-21h-303z" />
<glyph unicode="&#xa6;" horiz-adv-x="667" d="M82 -211l100 694q3 22 22 37t37 15h340q22 0 34 -17t10 -35l-100 -694q-3 -22 -22 -36.5t-37 -14.5h-340q-22 0 -34 16.5t-10 34.5zM192 -160h238l85 592h-238zM248 936l100 694q3 22 21.5 36.5t36.5 14.5h340q22 0 34 -16.5t10 -34.5l-100 -694q-3 -22 -22 -36.5 t-37 -14.5h-340q-22 0 -33.5 16.5t-9.5 34.5zM357 987h238l85 592h-237z" />
<glyph unicode="&#xa7;" horiz-adv-x="1200" d="M-30 -38q-2 19 7 34l166 287q9 15 25.5 23.5t33.5 6.5q-147 111 -122 287q26 179 194 290q-50 67 -35 173q27 184 192 297t402 113q271 0 523 -148q17 -9 20 -29.5t-8 -37.5l-178 -285q-19 -29 -50 -29q191 -115 163 -313q-25 -177 -195 -289q51 -68 36 -174 q-27 -184 -195.5 -294t-413.5 -110q-152 0 -294 43t-255 126q-14 10 -16 29zM88 -5q198 -128 462 -128q216 0 344.5 84.5t147.5 216.5q8 55 -2.5 79t-52.5 64q-24 27 -19.5 45.5t22.5 28.5l18 10q171 85 193 236q14 96 -43 158.5t-169 108.5q-28 11 -79.5 25.5t-92 26.5 t-80.5 29.5t-60 44t-15 61.5q5 32 28.5 52t49 26t53.5 6q111 0 298 -86q8 -3 22.5 -10.5t19.5 -9.5l121 194q-214 113 -436 113q-205 0 -330.5 -86.5t-145.5 -220.5q-7 -50 1.5 -77.5t50.5 -61.5q18 -15 23 -29t-1 -24t-14.5 -18t-17.5 -11l-8 -4q-171 -85 -193 -238 q-12 -82 26.5 -138.5t119.5 -99.5q36 -19 111.5 -41.5t133 -39t100 -50t36.5 -77.5q-12 -82 -141 -82q-162 0 -350 107q-3 2 -8 4.5t-10 5.5zM345 236q78 -36 153 -52q-102 31 -153 52zM503 631q14 94 163 94q36 0 67.5 -4t67.5 -15t55 -36t14 -62q-13 -92 -173 -92 q-36 0 -66.5 4t-64.5 15t-51 35.5t-12 60.5zM656 623q32 -4 49 -4q-23 4 -49 4zM869 1052q13 -4 38 -12t33 -11q-45 16 -71 23z" />
<glyph unicode="&#xa8;" horiz-adv-x="716" d="M114 1430q15 103 92 171t180 68t160.5 -68t42.5 -171q-14 -102 -91.5 -170t-180.5 -68t-160 68t-43 170zM216 1430q-9 -62 22.5 -99t93.5 -37t104 37t51 99q9 63 -22.5 100t-93.5 37t-104 -37t-51 -100zM540 1430q15 103 92 171t180 68t160.5 -68t42.5 -171 q-14 -102 -91.5 -170t-180.5 -68t-160 68t-43 170zM642 1430q-9 -62 22.5 -99t93.5 -37t104 37t51 99q9 63 -22.5 100t-93.5 37t-104 -37t-51 -100z" />
<glyph unicode="&#xa9;" horiz-adv-x="1447" d="M82 713q22 150 100 288t191.5 239t261 161.5t301.5 60.5t283.5 -59.5t214 -159.5t122.5 -237.5t16 -288.5q-29 -201 -152.5 -373t-310.5 -274.5t-393 -102.5q-205 0 -361.5 101.5t-229 272.5t-43.5 372zM185 713q-25 -173 37.5 -321t197.5 -235t311 -87q177 0 338.5 88 t268 237t131.5 322q19 130 -14 249t-105.5 205.5t-184.5 137.5t-244 51q-133 0 -260 -52t-225 -139.5t-165 -206.5t-86 -249zM287 713q21 146 109.5 271t224 199t285.5 74q149 0 262.5 -73t166.5 -197t32 -270q-21 -147 -110 -272t-224.5 -199t-286.5 -74q-149 0 -262 73 t-165.5 197.5t-31.5 270.5zM389 713q-17 -119 25.5 -220t134 -160t211.5 -59q186 0 332 130t173 313q17 119 -26 219.5t-135 159.5t-213 59t-230.5 -60t-182 -161.5t-89.5 -220.5zM441 715q24 164 154 272.5t302 108.5q85 0 164 -37t127 -99q11 -14 8.5 -33.5t-16.5 -33.5 l-144 -148q-6 -7 -16.5 -15t-30.5 -7t-34 25q-18 31 -45.5 49t-48.5 18q-37 0 -64 -25.5t-34 -70.5q-7 -47 13 -72.5t57 -25.5q21 0 54.5 15.5t62.5 41.5q17 15 38 16t36 -16l104 -131q11 -14 8.5 -34.5t-17.5 -34.5q-70 -68 -161.5 -107t-178.5 -39q-169 0 -265.5 109 t-72.5 274zM543 715q-18 -123 52 -202t199 -79q112 0 220 80l-46 58q-81 -54 -150 -54q-81 0 -125 58.5t-32 142.5t73 141.5t142 57.5q74 0 134 -62l64 65q-37 33 -89 52.5t-103 19.5q-133 0 -227.5 -78t-111.5 -200z" />
<glyph unicode="&#xaa;" horiz-adv-x="819" d="M135 1139q10 69 49 125t101 88l-41 196q-4 20 8 39.5t35 26.5q213 63 383 63q174 0 270 -79t73 -224l-63 -436q-3 -22 -21.5 -36.5t-36.5 -14.5h-305q-24 0 -39 20q-71 -35 -160 -35q-130 0 -200 74t-53 193zM238 1139q-11 -77 30 -120.5t135 -43.5q105 0 165 63 q34 32 53.5 24.5t26.5 -32.5l7 -24l-3 -17h203l56 386q15 96 -48 148t-208 52q-129 0 -299 -44l22 -103q112 28 186 28q59 0 99.5 -24t41.5 -76q0 -25 -12.5 -39.5t-24 -17.5t-22.5 -3h-158q-123 -1 -181 -40.5t-69 -116.5zM432 1163q7 43 40.5 71t75.5 28h93q18 0 32 -15 t11 -37l-8 -55q-4 -21 -16 -33q-59 -59 -136 -59q-44 0 -71.5 28.5t-20.5 71.5z" />
<glyph unicode="&#xab;" horiz-adv-x="1114" d="M-1 532q-14 27 8 55l311 395q19 24 46 24h369q0 -1 9 0t19.5 -3t18.5 -10.5t5.5 -23t-18.5 -39.5l-257 -371l149 -375q2 -3 4 -8t3 -18t-2.5 -23t-19 -18t-41.5 -8h-368q-29 0 -40 23zM106 559l172 -348h254l-129 324q-10 26 7 49l221 319h-254zM529 532q-14 27 8 55 l311 395q19 24 46 24h369q0 -1 9 0t19.5 -3t18.5 -10.5t5.5 -23t-18.5 -39.5l-257 -371l150 -375q2 -3 4 -8t3 -18t-2.5 -23t-19 -18t-41.5 -8h-369q-29 0 -40 23zM637 559l171 -348h254l-129 324q-10 26 7 49l222 319h-254z" />
<glyph unicode="&#xac;" horiz-adv-x="1214" d="M101 633l42 287q3 22 21.5 36.5t36.5 14.5h1045q22 0 34 -16.5t10 -34.5l-95 -656q-3 -22 -21.5 -36.5t-36.5 -14.5h-328q-22 0 -34 16.5t-10 34.5l46 318h-666q-22 0 -34 16.5t-10 34.5zM211 684h666q18 0 32.5 -14.5t11.5 -36.5l-46 -318h225l80 553h-942z" />
<glyph unicode="&#xad;" horiz-adv-x="778" d="M122 489l41 287q3 22 22 36.5t37 14.5h573q22 0 34 -16.5t10 -34.5l-41 -287q-3 -22 -22 -36.5t-37 -14.5h-573q-22 0 -34 16.5t-10 34.5zM232 541h471l26 184h-471z" />
<glyph unicode="&#xae;" horiz-adv-x="1447" d="M82 713q22 150 100 288t191.5 239t261 161.5t301.5 60.5t283.5 -59.5t214 -159.5t122.5 -237.5t16 -288.5q-29 -201 -152.5 -373t-310.5 -274.5t-393 -102.5q-205 0 -361.5 101.5t-229 272.5t-43.5 372zM185 713q-25 -173 37.5 -321t197.5 -235t311 -87q177 0 338.5 88 t268 237t131.5 322q19 130 -14 249t-105.5 205.5t-184.5 137.5t-244 51q-133 0 -260 -52t-225 -139.5t-165 -206.5t-86 -249zM287 713q21 146 109.5 271t224 199t285.5 74q149 0 262.5 -73t166.5 -197t32 -270q-21 -147 -110 -272t-224.5 -199t-286.5 -74q-149 0 -262 73 t-165.5 197.5t-31.5 270.5zM389 713q-17 -119 25.5 -220t134 -160t211.5 -59q186 0 332 130t173 313q17 119 -26 219.5t-135 159.5t-213 59t-230.5 -60t-182 -161.5t-89.5 -220.5zM470 432l89 617q3 22 21.5 36.5t36.5 14.5h289q142 0 218 -72t58 -199q-18 -131 -112 -209 l76 -161q2 -3 4 -8.5t4 -19t-1.5 -23.5t-19 -18.5t-42.5 -8.5h-231q-15 0 -26.5 9t-15.5 21l-30 94l-11 -73q-3 -22 -22 -36.5t-37 -14.5h-204q-22 0 -34 16.5t-10 34.5zM580 483h102l16 109q2 18 19 34.5t39 16.5h68q13 0 25.5 -8t16.5 -22l41 -130h108l-58 123 q-8 16 -0.5 37.5t27.5 32.5q81 45 96 153q12 82 -33.5 125t-155.5 43h-237zM720 748l21 147q2 18 19.5 34.5t39.5 16.5h84q54 0 82.5 -36t20.5 -89t-46.5 -89t-92.5 -36h-84q-18 0 -32.5 15t-11.5 37zM830 799h33h5q9 0 11.5 2.5t4.5 17.5v2q2 19 0.5 21t-15.5 2h-33z" />
<glyph unicode="&#xaf;" horiz-adv-x="716" d="M184 1278l44 303q3 22 21.5 36.5t36.5 14.5h615q22 0 34 -16.5t10 -34.5l-44 -303q-3 -22 -22 -36.5t-37 -14.5h-614q-22 0 -34 16.5t-10 34.5zM294 1329h512l29 201h-512z" />
<glyph unicode="&#xb0;" horiz-adv-x="819" d="M332 1440q18 124 118 211.5t224 87.5t199 -87.5t57 -211.5t-118 -211.5t-224 -87.5t-199 87.5t-57 211.5zM435 1440q-12 -82 37 -139.5t131 -57.5t147.5 57.5t77.5 139.5t-37 139t-131 57t-147.5 -57t-77.5 -139zM502 1440q7 53 51 91t97 38t85.5 -38t24.5 -91t-51 -91 t-96 -38t-85.5 38t-25.5 91zM605 1440q-2 -11 5 -19t18 -8t19.5 8t10.5 19q1 11 -5.5 18.5t-17.5 7.5t-20 -7.5t-10 -18.5z" />
<glyph unicode="&#xb1;" horiz-adv-x="1064" d="M6 -33l41 287q3 22 21.5 36.5t36.5 14.5h942q22 0 34 -16.5t10 -34.5l-41 -287q-3 -22 -22 -36.5t-37 -14.5h-942q-22 0 -33.5 16.5t-9.5 34.5zM112 707l39 272q3 22 22 36.5t37 14.5h276l38 260q3 22 21.5 36.5t36.5 14.5h287q22 0 34 -16.5t10 -34.5l-38 -260h277 q22 0 34 -16.5t10 -34.5l-39 -272q-3 -22 -22 -37t-37 -15h-277l-37 -260q-3 -22 -22 -36.5t-37 -14.5h-286q-22 0 -34 16.5t-10 34.5l37 260h-276q-22 0 -34 17t-10 35zM115 18h840l27 185h-840zM222 758h276q18 0 32.5 -14.5t11.5 -36.5l-37 -261h184l37 261 q2 18 19.5 34.5t39.5 16.5h277l24 170h-276q-18 0 -32.5 14.5t-11.5 36.5l37 260h-184l-38 -260q-2 -18 -19 -34.5t-39 -16.5h-277z" />
<glyph unicode="&#xb2;" horiz-adv-x="806" d="M89 573l27 191q3 20 21 36l354 305q29 27 41 43q-85 -10 -212 -99q-54 -35 -74 16l-87 221q-7 17 1 37.5t26 30.5q246 145 462 145q102 0 183 -32.5t126.5 -99t32.5 -155.5q-13 -88 -75 -165.5t-167 -164.5l-27 -22h175q22 0 34 -16.5t10 -34.5l-34 -236 q-3 -22 -22 -36.5t-37 -14.5h-714q-22 0 -34 16.5t-10 34.5zM199 625h612l19 133h-254q-28 0 -40.5 9t-10.5 22t8 26t13 22l8 9l135 111q183 151 198 255q11 78 -57.5 131.5t-196.5 53.5q-164 0 -360 -105l50 -127q143 86 238 86q36 0 64 -21t22 -63q-4 -26 -21 -53.5 t-31 -41.5t-41 -39l-338 -291z" />
<glyph unicode="&#xb3;" horiz-adv-x="765" d="M44.5 669q-0.5 19 9.5 33l161 234q17 25 49 27l15 108q3 24 23 39l64 49h-154q-22 0 -34 16.5t-10 34.5l32 222q3 22 22 36.5t37 14.5h651q22 0 34 -16.5t10 -34.5l-25 -172q-3 -24 -23 -39l-131 -101q75 -35 112.5 -106t23.5 -166q-22 -152 -153 -246t-314 -94 q-113 0 -216.5 34.5t-169.5 95.5q-13 12 -13.5 31zM164 693q54 -37 133.5 -60t161.5 -23q149 0 241.5 67.5t107.5 170.5q11 76 -22.5 124.5t-99.5 65.5l-38 10q-26 7 -36.5 18.5t-6.5 23.5t11.5 22.5t15.5 17.5l8 6l190 147l14 97h-549l-17 -118h240q28 0 40 -9.5t10 -22.5 t-8.5 -26t-13.5 -22l-8 -10l-160 -124l-12 -85h117q73 0 101 -43q20 -30 13 -72q-7 -45 -34 -72q-40 -41 -113 -41q-108 0 -190 84l-5 5zM383 860q38 -22 82 -22q22 0 28 3q2 4 2 7v8q-8 4 -27 4h-85z" />
<glyph unicode="&#xb4;" horiz-adv-x="716" d="M170 1196.5q2 16.5 19 39.5l275 387q11 16 29 22t34 1l371 -123q4 -1 9 -2.5t16 -9t15 -16t-3 -24.5t-29 -34l-319 -264q-17 -14 -37 -14h-328h-9.5t-18.5 3.5t-19.5 10.5t-4.5 23.5zM325 1262h219l230 190l-254 84z" />
<glyph unicode="&#xb5;" horiz-adv-x="1417" d="M14 -397l219 1517q3 22 22 36.5t37 14.5h460q22 0 34 -16.5t10 -34.5l-84 -581q-15 -103 57 -103q38 0 66.5 31.5t38.5 97.5l80 555q3 22 22 36.5t37 14.5h460q22 0 34 -16.5t10 -34.5l-161 -1120q-3 -22 -22 -36.5t-37 -14.5h-461q-22 0 -33.5 16.5t-9.5 34.5l3 23 q-79 -57 -169 -79l-49 -341q-3 -22 -22 -37t-37 -15h-461q-22 0 -34 17t-10 35zM124 -346h359l47 332q2 18 17 32.5t34 17.5q145 21 247 148q30 32 50 25.5t30 -29.5l9 -24l-15 -105h359l146 1018h-358l-73 -504q-14 -97 -73.5 -164t-147.5 -67q-79 0 -118 59t-27 146 l77 530h-359z" />
<glyph unicode="&#xb6;" horiz-adv-x="1396" d="M74.5 975.5q0.5 38.5 5.5 75.5q12 81 43 155t86 141t128.5 116.5t176 78.5t222.5 29h785q22 0 34 -16.5t10 -34.5l-250 -1735q-3 -22 -22 -36.5t-37 -14.5h-340q-22 0 -34 16.5t-10 34.5l206 1429h-45l-206 -1429q-3 -22 -21.5 -36.5t-36.5 -14.5h-340q-22 0 -34 16.5 t-10 34.5l110 764q-70 1 -129.5 15t-102.5 39t-76.5 57t-54.5 71t-34.5 79.5t-18.5 83.5t-4.5 81.5zM177 977.5q-2 -38.5 6.5 -77.5t21.5 -75t40.5 -68t63 -55.5t89 -37t118.5 -13.5h45q18 0 32.5 -14.5t11.5 -36.5l-110 -764h237l206 1430q2 18 19.5 34.5t39.5 16.5h147 q18 0 32.5 -14.5t11.5 -36.5l-206 -1430h238l235 1632h-733q-104 0 -190.5 -23t-146 -62t-103 -93.5t-67 -113.5t-33.5 -125q-3 -35 -5 -73.5z" />
<glyph unicode="&#xb7;" horiz-adv-x="542" d="M96 598q17 113 101.5 186.5t196.5 73.5q114 0 178 -73.5t47 -186.5q-16 -114 -101 -188t-199 -74q-113 0 -176 74t-47 188zM199 598q-10 -73 26 -116.5t108 -43.5q74 0 123.5 43.5t59.5 116.5q11 72 -26.5 115t-110.5 43q-72 0 -120.5 -43t-59.5 -115z" />
<glyph unicode="&#xb8;" horiz-adv-x="716" d="M-3 -449.5q-2 19.5 7 34.5l108 184q7 13 22 21q-19 12 -20 33.5t10 34.5l134 202q18 28 50 28h252q0 -1 9 0.5t19 -3t18 -10.5t6 -22.5t-18 -39.5l-64 -94q49 -33 73 -83.5t15 -109.5q-18 -130 -125.5 -206.5t-255.5 -76.5q-121 0 -224 78q-14 10 -16 29.5zM116 -415 q73 -40 136 -40q116 0 183.5 49.5t79.5 131.5q5 37 -16.5 70.5t-66.5 50.5q-20 7 -26 22t-2.5 28t10.5 23l45 66h-135l-60 -91q51 -4 84 -35.5t25 -84.5t-51 -86t-95 -33q-31 0 -61 14zM195 -211q8 -12 22.5 -21.5t24.5 -9.5q13 0 19.5 2.5t7.5 5.5t2 9q1 5 0 8t-9.5 6.5 t-25.5 3.5q-18 0 -41 -4z" />
<glyph unicode="&#xb9;" horiz-adv-x="585" d="M129 1192l35 244q3 22 21.5 36.5t36.5 14.5h476q22 0 33.5 -16.5t9.5 -34.5l-124 -863q-3 -22 -21.5 -36.5t-36.5 -14.5h-320q-22 0 -34 16.5t-10 34.5l82 568h-104q-22 0 -34 16.5t-10 34.5zM239 1243h104q18 0 32.5 -14.5t11.5 -36.5l-82 -567h217l110 759h-373z" />
<glyph unicode="&#xba;" horiz-adv-x="858" d="M157 1276q26 182 168 290.5t344 108.5q203 0 314.5 -108.5t85.5 -290.5q-26 -181 -169 -290t-346 -109q-201 0 -312 109t-85 290zM260 1276q-20 -136 61 -216.5t248 -80.5q168 0 272.5 80t124.5 217q20 138 -61 217.5t-250 79.5q-167 0 -271 -80t-124 -217zM470 1272 q10 69 55 118.5t111 49.5t96.5 -49.5t20.5 -118.5q-10 -68 -55 -117t-111 -49t-96.5 48.5t-20.5 117.5zM572 1272q-9 -64 30 -64t48 64q9 65 -29 65q-40 0 -49 -65z" />
<glyph unicode="&#xbb;" horiz-adv-x="1114" d="M-40.5 144.5q2.5 16.5 18.5 39.5l257 371l-150 375q-2 3 -4 8t-3 18.5t2.5 23.5t19 18t41.5 8h368q28 0 40 -24l197 -400q14 -27 -8 -55l-311 -395q-18 -23 -47 -23h-368q0 1 -9 -0.5t-19.5 3t-18.5 10.5t-5.5 22.5zM113 211h254l271 344l-171 348h-255l129 -324 q10 -26 -7 -49zM489.5 144.5q2.5 16.5 18.5 39.5l257 371l-150 375q-2 3 -4 8t-3 18.5t2.5 23.5t19 18t41.5 8h369q28 0 40 -24l196 -400q14 -27 -8 -55l-311 -395q-18 -23 -46 -23h-369q0 1 -9 -0.5t-19.5 3t-18.5 10.5t-5.5 22.5zM643 211h254l271 344l-171 348h-254 l129 -324q10 -26 -7 -49z" />
<glyph unicode="&#xbc;" horiz-adv-x="1921" d="M109.5 -10.5q3.5 16.5 22.5 39.5l1204 1436q19 22 46 22h428q4 0 10.5 -0.5t19.5 -4.5t19.5 -11.5t3 -24.5t-22.5 -40l-1204 -1435q-19 -22 -45 -22h-428q-4 0 -10.5 0.5t-20 4.5t-20 11.5t-3 24zM129 1192l35 244q3 22 21.5 36.5t36.5 14.5h476q22 0 33.5 -16.5 t9.5 -34.5l-124 -863q-3 -22 -21.5 -36.5t-36.5 -14.5h-320q-22 0 -34 16.5t-10 34.5l82 568h-104q-22 0 -34 16.5t-10 34.5zM239 1243h104q18 0 32.5 -14.5t11.5 -36.5l-82 -567h217l110 759h-373zM275 51h304l1118 1333h-303zM1047 158l29 200q1 11 9 24l330 504 q17 27 50 27h305q0 -1 8.5 0.5t18.5 -2.5t18 -10t6 -22t-16 -39l-162 -256h239q22 0 34 -17t10 -35l-15 -104h61q22 0 34 -16.5t10 -34.5l-31 -219q-3 -22 -22 -37t-37 -15h-61l-16 -106q-3 -22 -21.5 -36.5t-36.5 -14.5h-297q-22 0 -34 16.5t-10 34.5l15 106h-374 q-22 0 -34 17t-10 35zM1157 209h374q18 0 32.5 -14.5t11.5 -36.5l-15 -107h194l16 107q2 18 19 34.5t39 16.5h62l17 117h-62q-18 0 -32.5 14.5t-11.5 36.5l15 104h-194l-15 -104q-2 -18 -19.5 -34.5t-39.5 -16.5h-100q-40 0 -49 18t2 36l11 19l261 412h-192l-305 -465z" />
<glyph unicode="&#xbd;" horiz-adv-x="1966" d="M109.5 -10.5q3.5 16.5 22.5 39.5l1204 1436q19 22 46 22h428q4 0 10.5 -0.5t19.5 -4.5t19.5 -11.5t3 -24.5t-22.5 -40l-1204 -1435q-19 -22 -45 -22h-428q-4 0 -10.5 0.5t-20 4.5t-20 11.5t-3 24zM129 1192l35 244q3 22 21.5 36.5t36.5 14.5h476q22 0 33.5 -16.5 t9.5 -34.5l-124 -863q-3 -22 -21.5 -36.5t-36.5 -14.5h-320q-22 0 -34 16.5t-10 34.5l82 568h-104q-22 0 -34 16.5t-10 34.5zM239 1243h104q18 0 32.5 -14.5t11.5 -36.5l-82 -567h217l110 759h-373zM275 51h304l1118 1333h-303zM1165 0l28 190q3 22 20 37l355 304 q26 24 41 44q-84 -10 -213 -100q-54 -34 -74 17l-87 221q-7 17 1 37t26 30q248 146 463 146q102 0 183 -32.5t126 -99t32 -155.5q-13 -88 -75 -165.5t-167 -164.5l-26 -22h175q22 0 33.5 -16.5t9.5 -34.5l-34 -236q-3 -22 -21.5 -36.5t-36.5 -14.5h-715q-22 0 -34 16.5 t-10 34.5zM1275 51h612l20 133h-254q-28 0 -40.5 9t-10.5 22t8 26.5t14 22.5l7 9l134 111q184 152 199 255q11 77 -57.5 130.5t-196.5 53.5q-167 0 -361 -104l50 -127q143 86 239 86q36 0 64 -21t22 -63q-4 -26 -21 -53.5t-31 -41.5t-41 -39l-339 -291z" />
<glyph unicode="&#xbe;" horiz-adv-x="2039" d="M44.5 669q-0.5 19 9.5 33l161 234q17 25 49 27l15 108q3 24 23 39l64 49h-154q-22 0 -34 16.5t-10 34.5l32 222q3 22 22 36.5t37 14.5h651q22 0 34 -16.5t10 -34.5l-25 -172q-3 -24 -23 -39l-131 -101q75 -35 112.5 -106t23.5 -166q-22 -152 -153 -246t-314 -94 q-113 0 -216.5 34.5t-169.5 95.5q-13 12 -13.5 31zM164 693q54 -37 133.5 -60t161.5 -23q149 0 241.5 67.5t107.5 170.5q11 76 -22.5 124.5t-99.5 65.5l-38 10q-26 7 -36.5 18.5t-6.5 23.5t11.5 22.5t15.5 17.5l8 6l190 147l14 97h-549l-17 -118h240q28 0 40 -9.5t10 -22.5 t-8.5 -26t-13.5 -22l-8 -10l-160 -124l-12 -85h117q73 0 101 -43q20 -30 13 -72q-7 -45 -34 -72q-40 -41 -113 -41q-108 0 -190 84l-5 5zM228.5 -10.5q3.5 16.5 22.5 39.5l1204 1436q19 22 45 22h428q4 0 10.5 -0.5t20 -4.5t20 -11.5t3 -24.5t-22.5 -40l-1204 -1435 q-19 -22 -46 -22h-428q-4 0 -10.5 0.5t-19.5 4.5t-19.5 11.5t-3 24zM383 860q38 -22 82 -22q22 0 28 3q2 4 2 7v8q-8 4 -27 4h-85zM394 51h303l1119 1333h-304zM1166 158l28 200q1 11 9 24l331 504q17 27 50 27h305q0 -1 8.5 0.5t18.5 -2.5t18 -10t6 -22t-16 -39l-162 -256 h239q22 0 34 -17t10 -35l-15 -104h61q22 0 34 -16.5t10 -34.5l-32 -219q-3 -22 -21.5 -37t-36.5 -15h-62l-15 -106q-3 -22 -21.5 -36.5t-36.5 -14.5h-297q-22 0 -34 16.5t-10 34.5l15 106h-375q-22 0 -34 17t-9 35zM1275 209h375q18 0 32.5 -14.5t11.5 -36.5l-15 -107h194 l15 107q2 18 19.5 34.5t39.5 16.5h61l17 117h-61q-18 0 -32.5 14.5t-11.5 36.5l15 104h-194l-16 -104q-2 -18 -19 -34.5t-39 -16.5h-100q-40 0 -49 18t2 36l11 19l261 412h-192l-305 -465z" />
<glyph unicode="&#xbf;" horiz-adv-x="1019" d="M-5 37q10 69 35.5 129t59 104t72 82.5t76 70.5t68.5 61t52.5 60.5t26.5 63.5q3 22 21.5 36.5t36.5 14.5h342q22 0 34 -16.5t10 -34.5q-13 -93 -47.5 -169t-74.5 -122.5t-78 -82t-65.5 -65.5t-31.5 -56t0 -30.5t34 -4.5q33 0 49.5 19.5t26.5 90.5q3 22 21.5 37t36.5 15 h352q22 0 34 -17t10 -35q-38 -266 -209.5 -420.5t-430.5 -154.5q-238 0 -364 112t-97 312zM97 37q-22 -153 72.5 -237.5t301.5 -84.5t339 109t175 313h-251q-19 -73 -67 -117.5t-116 -44.5q-63 0 -96.5 37.5t-24.5 100.5q8 55 35.5 100t63 79t72 69t69 85t47.5 111h-242 q-19 -54 -53.5 -102.5t-72.5 -81.5t-80 -71t-76.5 -72.5t-61 -84.5t-34.5 -108zM398 926q16 114 101 188t199 74q113 0 175.5 -74t46.5 -188q-17 -113 -101.5 -186.5t-196.5 -73.5q-114 0 -177.5 73.5t-46.5 186.5zM500 926q-11 -72 26.5 -115t110.5 -43q72 0 120.5 43 t59.5 115q10 73 -26 116t-108 43q-74 0 -123.5 -43t-59.5 -116z" />
<glyph unicode="&#xc0;" horiz-adv-x="1636" d="M-78.5 -18q0.5 16 13.5 38l813 1436q18 31 52 31h487q34 0 43 -32l377 -1436q1 -3 2 -7.5t1 -16.5t-4.5 -21.5t-19 -17t-37.5 -7.5h-505q-16 0 -28.5 10t-15.5 24l-35 169h-467l-85 -169q-17 -34 -53 -34h-488q0 1 -8 -0.5t-18 2.5t-17.5 9.5t-7 21.5zM64 51h374l86 169 q17 34 53 34h539q14 0 27 -9.5t16 -24.5l36 -169h393l-350 1333h-419zM637.5 1796.5q0.5 10.5 13 22.5t39.5 20l407 123q18 5 33.5 -2t22.5 -22l164 -387q2 -3 4 -8t3.5 -18.5t-2.5 -23.5t-19 -18t-42 -8h-328q-22 0 -33 13l-242 265q-3 2 -6.5 6t-9 15.5t-5 22zM686 516 q-1 10 0.5 20t5.5 17l4 7l212 420q13 25 27.5 34.5t26.5 4.5t22 -13.5t16 -17.5l5 -8l87 -420q7 -33 -7.5 -50t-32.5 -18h-19h-299q-22 0 -34.5 7t-13.5 17zM794 1767l174 -190h220l-116 275zM822 594h154l-45 216z" />
<glyph unicode="&#xc1;" horiz-adv-x="1636" d="M-78.5 -18q0.5 16 13.5 38l813 1436q18 31 52 31h487q34 0 43 -32l377 -1436q1 -3 2 -7.5t1 -16.5t-4.5 -21.5t-19 -17t-37.5 -7.5h-505q-16 0 -28.5 10t-15.5 24l-35 169h-467l-85 -169q-17 -34 -53 -34h-488q0 1 -8 -0.5t-18 2.5t-17.5 9.5t-7 21.5zM64 51h374l86 169 q17 34 53 34h539q14 0 27 -9.5t16 -24.5l36 -169h393l-350 1333h-419zM686 516q-1 10 0.5 20t5.5 17l4 7l212 420q13 25 27.5 34.5t26.5 4.5t22 -13.5t16 -17.5l5 -8l87 -420q7 -33 -7.5 -50t-32.5 -18h-19h-299q-22 0 -34.5 7t-13.5 17zM763.5 1511.5q2.5 16.5 19.5 39.5 l275 387q11 16 29 22.5t34 1.5l372 -123q3 -1 8.5 -2.5t16 -9t14.5 -16t-3 -24.5t-29 -34l-319 -265q-16 -13 -37 -13h-327q0 1 -9.5 0t-19.5 3t-18.5 10.5t-6 23zM822 594h154l-45 216zM919 1577h220l229 190l-254 85z" />
<glyph unicode="&#xc2;" horiz-adv-x="1636" d="M-78.5 -18q0.5 16 13.5 38l813 1436q18 31 52 31h487q34 0 43 -32l377 -1436q1 -3 2 -7.5t1 -16.5t-4.5 -21.5t-19 -17t-37.5 -7.5h-505q-16 0 -28.5 10t-15.5 24l-35 169h-467l-85 -169q-17 -34 -53 -34h-488q0 1 -8 -0.5t-18 2.5t-17.5 9.5t-7 21.5zM64 51h374l86 169 q17 34 53 34h539q14 0 27 -9.5t16 -24.5l36 -169h393l-350 1333h-419zM563 1549.5q4 16.5 24 39.5l296 332q19 21 44 21h344q25 0 38 -21l200 -332q2 -3 4.5 -8.5t5.5 -20t0 -25t-19 -19.5t-44 -9h-307q-27 0 -39 23l-55 105l-85 -105q-20 -23 -46 -23h-307q-4 0 -10.5 0.5 t-20 5t-20.5 12.5t-3 24.5zM686 516q-1 10 0.5 20t5.5 17l4 7l212 420q13 25 27.5 34.5t26.5 4.5t22 -13.5t16 -17.5l5 -8l87 -420q7 -33 -7.5 -50t-32.5 -18h-19h-299q-22 0 -34.5 7t-13.5 17zM733 1610h178l119 145q16 19 30.5 26.5t24 3.5t16.5 -10.5t11 -12.5l3 -7 l76 -145h178l-138 229h-293zM822 594h154l-45 216z" />
<glyph unicode="&#xc3;" horiz-adv-x="1636" d="M-78.5 -18q0.5 16 13.5 38l813 1436q18 31 52 31h487q34 0 43 -32l377 -1436q1 -3 2 -7.5t1 -16.5t-4.5 -21.5t-19 -17t-37.5 -7.5h-505q-16 0 -28.5 10t-15.5 24l-35 169h-467l-85 -169q-17 -34 -53 -34h-488q0 1 -8 -0.5t-18 2.5t-17.5 9.5t-7 21.5zM64 51h374l86 169 q17 34 53 34h539q14 0 27 -9.5t16 -24.5l36 -169h393l-350 1333h-419zM597 1573q29 203 117 314.5t236 111.5q42 0 82.5 -11.5t62.5 -24t44 -27.5t25 -17q4 12 5 23q3 22 21.5 36.5t36.5 14.5h277q22 0 33.5 -16.5t9.5 -34.5q-29 -202 -115 -313t-234 -111q-43 0 -83 11 t-62 23.5t-44 28t-25 16.5q-4 -11 -6 -24q-3 -22 -21.5 -36.5t-36.5 -14.5h-279q-22 0 -34 16.5t-10 34.5zM686 516q-1 10 0.5 20t5.5 17l4 7l212 420q13 25 27.5 34.5t26.5 4.5t22 -13.5t16 -17.5l5 -8l87 -420q7 -33 -7.5 -50t-32.5 -18h-19h-299q-22 0 -34.5 7t-13.5 17z M708 1624h180q13 33 41.5 55.5t63.5 22.5q34 0 61.5 -13t44.5 -28t46.5 -28t66.5 -13q89 0 142 59.5t83 210.5h-179q-13 -31 -42 -53t-64 -22q-33 0 -60.5 12.5t-44.5 28t-46.5 28t-65.5 12.5q-89 0 -143 -60t-84 -212zM822 594h154l-45 216z" />
<glyph unicode="&#xc4;" horiz-adv-x="1636" d="M-78.5 -18q0.5 16 13.5 38l813 1436q18 31 52 31h487q34 0 43 -32l377 -1436q1 -3 2 -7.5t1 -16.5t-4.5 -21.5t-19 -17t-37.5 -7.5h-505q-16 0 -28.5 10t-15.5 24l-35 169h-467l-85 -169q-17 -34 -53 -34h-488q0 1 -8 -0.5t-18 2.5t-17.5 9.5t-7 21.5zM64 51h374l86 169 q17 34 53 34h539q14 0 27 -9.5t16 -24.5l36 -169h393l-350 1333h-419zM620 1745q15 103 92 171.5t180 68.5t160.5 -68.5t42.5 -171.5q-14 -102 -91.5 -170t-180.5 -68t-160 68t-43 170zM686 516q-1 10 0.5 20t5.5 17l4 7l212 420q13 25 27.5 34.5t26.5 4.5t22 -13.5 t16 -17.5l5 -8l87 -420q7 -33 -7.5 -50t-32.5 -18h-19h-299q-22 0 -34.5 7t-13.5 17zM722 1745q-9 -62 22.5 -98.5t93.5 -36.5t104 36.5t51 98.5q9 63 -22.5 100t-93.5 37t-104 -37t-51 -100zM822 594h154l-45 216zM1046 1745q15 103 92 171.5t180 68.5t160.5 -68.5 t42.5 -171.5q-14 -102 -91.5 -170t-180.5 -68t-160 68t-43 170zM1148 1745q-9 -62 22.5 -98.5t93.5 -36.5t104 36.5t51 98.5q9 63 -22.5 100t-93.5 37t-104 -37t-51 -100z" />
<glyph unicode="&#xc5;" horiz-adv-x="1636" d="M-78.5 -18q0.5 16 13.5 38l798 1410q-18 59 -7 129q19 136 127.5 230.5t245.5 94.5t217.5 -94.5t61.5 -230.5q-8 -62 -42 -124l371 -1416q1 -3 2 -7.5t1 -16.5t-4.5 -21.5t-19 -17t-37.5 -7.5h-505q-16 0 -28.5 10t-15.5 24l-35 169h-467l-85 -169q-17 -34 -53 -34h-488 q0 1 -8 -0.5t-18 2.5t-17.5 9.5t-7 21.5zM64 51h374l86 169q17 34 53 34h539q14 0 27 -9.5t16 -24.5l36 -169h393l-358 1365q-5 24 8 43q30 47 37 100q14 95 -41.5 159t-149.5 64q-95 0 -168.5 -64.5t-86.5 -158.5q-9 -61 9 -103q9 -20 -4 -44zM686 516q-1 10 0.5 20t5.5 17 l4 7l212 420q13 25 27.5 34.5t26.5 4.5t22 -13.5t16 -17.5l5 -8l87 -420q7 -33 -7.5 -50t-32.5 -18h-19h-299q-22 0 -34.5 7t-13.5 17zM822 594h154l-45 216zM915 1559q8 58 53.5 97.5t103.5 39.5t91.5 -39.5t25.5 -97.5t-53.5 -98t-103.5 -40t-91.5 40t-25.5 98zM1017 1559 q-2 -16 6 -25.5t24 -9.5q35 0 40 35q5 34 -30 34t-40 -34z" />
<glyph unicode="&#xc6;" horiz-adv-x="2349" d="M-80.5 -14.5q2.5 16.5 18.5 39.5l1006 1436q18 26 48 26h1475q22 0 34 -16.5t10 -34.5l-52 -361q-3 -22 -22 -36.5t-37 -14.5h-688l-10 -74h620q22 0 34 -16.5t10 -34.5l-52 -360q-3 -22 -22 -37t-37 -15h-620l-11 -75h707q22 0 34 -17t9 -35l-52 -360 q-3 -22 -21.5 -36.5t-36.5 -14.5h-1233q-22 0 -34 16.5t-10 34.5l29 199h-362l-140 -222q-17 -28 -50 -28h-492q0 1 -9 0t-19.5 3t-18.5 10.5t-5.5 23zM74 51h373l140 221q19 29 50 29h445q18 0 32.5 -14.5t11.5 -36.5l-29 -199h1130l38 258h-707q-18 0 -32.5 14.5 t-11.5 36.5l26 179q2 18 19 34.5t39 16.5h621l37 258h-620q-18 0 -32.5 14.5t-11.5 36.5l25 176q2 18 19.5 34.5t39.5 16.5h688l37 258h-1393zM793 557.5q-9 18.5 2 36.5l11 18l310 486q18 28 50 28h35q18 0 32 -14.5t11 -36.5l-69 -485q-2 -18 -19.5 -34.5t-39.5 -16.5 h-274q-40 0 -49 18.5zM939 641h141l41 285z" />
<glyph unicode="&#xc7;" horiz-adv-x="1409" d="M83 721q32 223 165.5 401.5t337.5 278.5t439 100q176 0 340.5 -75t263.5 -203q11 -15 8 -35t-16 -33l-322 -326q-8 -8 -18.5 -15t-29.5 -5.5t-32 23.5q-46 78 -118.5 125t-140.5 47q-107 0 -187.5 -76.5t-98.5 -200.5q-18 -126 40.5 -203.5t164.5 -77.5q64 0 150.5 40.5 t159.5 107.5q17 15 38 16.5t37 -16.5l232 -293q11 -14 8 -34.5t-18 -34.5q-113 -107 -255.5 -182t-287.5 -104l-18 -27q49 -33 73 -83.5t15 -109.5q-18 -130 -125.5 -206.5t-255.5 -76.5q-121 0 -224 78q-14 10 -16 29.5t7 34.5l109 184q8 13 21 21q-19 12 -19.5 33.5 t10.5 34.5l61 92q-265 63 -402.5 273t-95.5 498zM186 721q-39 -270 97.5 -457.5t394.5 -225.5q34 -5 41 -23.5t-3 -34.5l-10 -16l-46 -69q50 -4 83 -35.5t25 -84.5t-51 -86t-95 -33q-31 0 -61 14l-50 -85q73 -40 136 -40q116 0 184 49.5t80 131.5q5 37 -17 70.5t-67 50.5 q-20 7 -26 22t-2 27.5t11 23.5l65 96q16 21 40 26q122 21 243.5 79.5t224.5 145.5l-174 219q-82 -65 -173.5 -103.5t-170.5 -38.5q-152 0 -234 110t-59 273q23 162 137 270.5t265 108.5q85 0 163.5 -43.5t139.5 -120.5l240 243q-90 97 -227.5 155.5t-278.5 58.5 q-210 0 -389 -87.5t-293.5 -242t-142.5 -348.5zM590 -211q8 -12 22.5 -21.5t24.5 -9.5q13 0 19.5 2.5t7.5 5.5t2 9q1 5 0 8t-9 6.5t-25 3.5q-19 0 -42 -4z" />
<glyph unicode="&#xc8;" d="M51 0l207 1436q3 22 22 36.5t37 14.5h1214q22 0 34 -16.5t10 -34.5l-52 -361q-3 -22 -22 -36.5t-37 -14.5h-688l-10 -74h620q22 0 34 -16.5t10 -34.5l-52 -360q-3 -22 -21.5 -37t-36.5 -15h-621l-11 -75h707q22 0 34 -17t9 -35l-52 -360q-3 -22 -21.5 -36.5t-36.5 -14.5 h-1233q-22 0 -34 16.5t-10 34.5zM161 51h1130l38 258h-707q-18 0 -32.5 14.5t-11.5 36.5l26 179q2 18 19.5 34.5t39.5 16.5h620l37 258h-620q-18 0 -32.5 14.5t-11.5 36.5l25 176q2 18 19.5 34.5t39.5 16.5h688l37 258h-1112zM530.5 1796.5q0.5 10.5 13 22.5t39.5 20 l407 123q18 5 34 -2t23 -22l163 -387q2 -3 4 -8t3.5 -18.5t-2 -23.5t-18.5 -18t-42 -8h-328q-22 0 -33 13l-243 265q-3 2 -6.5 6t-9 15.5t-5 22zM687 1767l175 -190h220l-116 275z" />
<glyph unicode="&#xc9;" d="M51 0l207 1436q3 22 22 36.5t37 14.5h1214q22 0 34 -16.5t10 -34.5l-52 -361q-3 -22 -22 -36.5t-37 -14.5h-688l-10 -74h620q22 0 34 -16.5t10 -34.5l-52 -360q-3 -22 -21.5 -37t-36.5 -15h-621l-11 -75h707q22 0 34 -17t9 -35l-52 -360q-3 -22 -21.5 -36.5t-36.5 -14.5 h-1233q-22 0 -34 16.5t-10 34.5zM161 51h1130l38 258h-707q-18 0 -32.5 14.5t-11.5 36.5l26 179q2 18 19.5 34.5t39.5 16.5h620l37 258h-620q-18 0 -32.5 14.5t-11.5 36.5l25 176q2 18 19.5 34.5t39.5 16.5h688l37 258h-1112zM657.5 1511.5q2.5 16.5 19.5 39.5l275 387 q11 16 29 22.5t34 1.5l371 -123q4 -1 9 -2.5t16 -9t15 -16t-3 -24.5t-29 -34l-319 -265q-16 -13 -37 -13h-328q0 1 -9 0t-19.5 3t-18.5 10.5t-5.5 23zM813 1577h219l230 190l-254 85z" />
<glyph unicode="&#xca;" d="M51 0l207 1436q3 22 22 36.5t37 14.5h1214q22 0 34 -16.5t10 -34.5l-52 -361q-3 -22 -22 -36.5t-37 -14.5h-688l-10 -74h620q22 0 34 -16.5t10 -34.5l-52 -360q-3 -22 -21.5 -37t-36.5 -15h-621l-11 -75h707q22 0 34 -17t9 -35l-52 -360q-3 -22 -21.5 -36.5t-36.5 -14.5 h-1233q-22 0 -34 16.5t-10 34.5zM161 51h1130l38 258h-707q-18 0 -32.5 14.5t-11.5 36.5l26 179q2 18 19.5 34.5t39.5 16.5h620l37 258h-620q-18 0 -32.5 14.5t-11.5 36.5l25 176q2 18 19.5 34.5t39.5 16.5h688l37 258h-1112zM457 1549.5q4 16.5 24 39.5l295 332 q19 21 44 21h345q25 0 38 -21l200 -332q2 -3 4.5 -8.5t5.5 -20t0 -25t-19 -19.5t-44 -9h-307q-28 0 -40 23l-55 105l-85 -105q-20 -23 -46 -23h-307q-4 0 -10.5 0.5t-20 5t-20 12.5t-2.5 24.5zM627 1610h178l118 145q16 19 30.5 26.5t24 3.5t16.5 -10.5t10 -12.5l4 -7 l77 -145h177l-138 229h-293z" />
<glyph unicode="&#xcb;" d="M51 0l207 1436q3 22 22 36.5t37 14.5h1214q22 0 34 -16.5t10 -34.5l-52 -361q-3 -22 -22 -36.5t-37 -14.5h-688l-10 -74h620q22 0 34 -16.5t10 -34.5l-52 -360q-3 -22 -21.5 -37t-36.5 -15h-621l-11 -75h707q22 0 34 -17t9 -35l-52 -360q-3 -22 -21.5 -36.5t-36.5 -14.5 h-1233q-22 0 -34 16.5t-10 34.5zM161 51h1130l38 258h-707q-18 0 -32.5 14.5t-11.5 36.5l26 179q2 18 19.5 34.5t39.5 16.5h620l37 258h-620q-18 0 -32.5 14.5t-11.5 36.5l25 176q2 18 19.5 34.5t39.5 16.5h688l37 258h-1112zM514 1745q15 103 92 171.5t180 68.5 t160.5 -68.5t42.5 -171.5q-14 -102 -91.5 -170t-180.5 -68t-160 68t-43 170zM616 1745q-9 -62 22.5 -98.5t93.5 -36.5t103.5 36.5t50.5 98.5q9 63 -22 100t-93 37t-104 -37t-51 -100zM940 1745q15 103 92 171.5t180 68.5t160.5 -68.5t42.5 -171.5q-14 -102 -91.5 -170 t-180.5 -68t-160 68t-43 170zM1042 1745q-9 -62 22.5 -98.5t93.5 -36.5t103.5 36.5t50.5 98.5q9 63 -22 100t-93 37t-104 -37t-51 -100z" />
<glyph unicode="&#xcc;" horiz-adv-x="679" d="M51 0l207 1436q3 22 22 36.5t37 14.5h475q22 0 34 -16.5t10 -34.5l-207 -1436q-3 -22 -22 -36.5t-37 -14.5h-475q-22 0 -34 16.5t-10 34.5zM158.5 1796.5q0.5 10.5 13 22.5t39.5 20l406 123q18 5 34 -2t23 -22l163 -387q2 -3 4 -8t3.5 -18.5t-2 -23.5t-18.5 -18t-42 -8 h-328q-22 0 -33 13l-242 265q-3 2 -6.5 6t-9 15.5t-5 22zM161 51h373l192 1333h-373zM314 1767l175 -190h220l-116 275z" />
<glyph unicode="&#xcd;" horiz-adv-x="679" d="M51 0l207 1436q3 22 22 36.5t37 14.5h475q22 0 34 -16.5t10 -34.5l-207 -1436q-3 -22 -22 -36.5t-37 -14.5h-475q-22 0 -34 16.5t-10 34.5zM161 51h373l192 1333h-373zM284.5 1511.5q2.5 16.5 19.5 39.5l275 387q11 16 29 22.5t34 1.5l372 -123q3 -1 8.5 -2.5t16 -9 t14.5 -16t-3 -24.5t-29 -34l-319 -265q-16 -13 -37 -13h-328q0 1 -9 0t-19.5 3t-18.5 10.5t-5.5 23zM440 1577h220l229 190l-254 85z" />
<glyph unicode="&#xce;" horiz-adv-x="679" d="M51 0l207 1436q3 22 22 36.5t37 14.5h475q22 0 34 -16.5t10 -34.5l-207 -1436q-3 -22 -22 -36.5t-37 -14.5h-475q-22 0 -34 16.5t-10 34.5zM84 1549.5q4 16.5 24 39.5l296 332q19 21 44 21h344q25 0 38 -21l200 -332q2 -3 4.5 -8.5t5.5 -20t0 -25t-19 -19.5t-44 -9h-307 q-27 0 -39 23l-55 105l-86 -105q-20 -23 -45 -23h-308q-4 0 -10.5 0.5t-20 5t-20 12.5t-2.5 24.5zM161 51h373l192 1333h-373zM254 1610h178l118 145q16 19 30.5 26.5t24 3.5t16.5 -10.5t11 -12.5l3 -7l77 -145h178l-139 229h-292z" />
<glyph unicode="&#xcf;" horiz-adv-x="679" d="M51 0l207 1436q3 22 22 36.5t37 14.5h475q22 0 34 -16.5t10 -34.5l-207 -1436q-3 -22 -22 -36.5t-37 -14.5h-475q-22 0 -34 16.5t-10 34.5zM141 1745q15 103 92 171.5t180 68.5t160.5 -68.5t42.5 -171.5q-14 -102 -91.5 -170t-180.5 -68t-160 68t-43 170zM161 51h373 l192 1333h-373zM243 1745q-9 -62 22.5 -98.5t93.5 -36.5t104 36.5t51 98.5q9 63 -22.5 100t-93.5 37t-104 -37t-51 -100zM567 1745q15 103 92 171.5t180 68.5t160.5 -68.5t42.5 -171.5q-14 -102 -91.5 -170t-180.5 -68t-160 68t-43 170zM669 1745q-9 -62 22.5 -98.5 t93.5 -36.5t104 36.5t51 98.5q9 63 -22.5 100t-93.5 37t-104 -37t-51 -100z" />
<glyph unicode="&#xd0;" horiz-adv-x="1642" d="M35 596l35 244q3 22 21.5 36.5t36.5 14.5h140l78 545q3 22 22 36.5t37 14.5h641q184 0 331 -55t241 -154t134 -242.5t15 -316.5q-33 -231 -164.5 -406t-338 -269.5t-458.5 -94.5h-623q-22 0 -34 16.5t-10 34.5l79 545h-139q-22 0 -34 16.5t-10 34.5zM144 647h140 q18 0 32.5 -14.5t11.5 -36.5l-79 -545h571q346 0 573 181t271 487q44 305 -126 485t-507 180h-590l-78 -544q-2 -18 -19.5 -35t-39.5 -17h-139zM668 369l32 227q2 18 19.5 34.5t39.5 16.5h201l20 141h-201q-18 0 -32.5 15t-11.5 37l33 227q2 18 19.5 34.5t39.5 16.5h155 q161 0 243 -113t56 -290q-25 -175 -131.5 -286.5t-259.5 -111.5h-179q-18 0 -32 15t-11 37zM777 420h127q105 0 179 76.5t95 218.5t-36.5 221.5t-173.5 79.5h-105l-18 -125h201q22 0 34 -16.5t10 -34.5l-35 -244q-3 -22 -22 -36.5t-37 -14.5h-201z" />
<glyph unicode="&#xd1;" horiz-adv-x="1599" d="M51 0l207 1436q3 22 22 36.5t37 14.5h397q26 0 38 -20l386 -618l85 587q3 22 21.5 36.5t36.5 14.5h430q22 0 34 -16.5t10 -34.5l-207 -1436q-3 -22 -21.5 -36.5t-36.5 -14.5h-398q-25 0 -37 20l-385 614l-84 -583q-3 -22 -22 -36.5t-37 -14.5h-432q-22 0 -34 16.5 t-10 34.5zM161 51h330l98 682q4 27 15.5 40t24.5 12.5t26 -5t21 -10.5l9 -6l447 -713h321l192 1333h-327l-99 -686q-4 -27 -15.5 -40t-24.5 -12.5t-26 5t-21 10.5l-9 6l-449 717h-321zM579 1573q29 204 117 315t235 111q42 0 82.5 -11.5t62.5 -24t44 -27.5t25 -17q4 12 5 23 q3 22 22 36.5t37 14.5h276q22 0 34 -16.5t10 -34.5q-29 -202 -115.5 -313t-234.5 -111q-43 0 -83 11t-62 23.5t-44 28t-25 16.5q-1 -4 -5 -24q-3 -22 -22 -36.5t-37 -14.5h-278q-22 0 -34 16.5t-10 34.5zM690 1624h180q13 33 41 55.5t63 22.5q34 0 62 -13t45 -28t46.5 -28 t66.5 -13q89 0 141.5 59t82.5 211h-178q-13 -31 -42 -53t-64 -22q-33 0 -60.5 12.5t-44.5 28t-47 28t-66 12.5q-89 0 -142.5 -60t-83.5 -212z" />
<glyph unicode="&#xd2;" horiz-adv-x="1638" d="M83 719q32 225 167.5 404t341.5 278.5t444 99.5q178 0 325 -59t243 -161.5t139 -248t19 -313.5q-33 -225 -167.5 -406t-341.5 -283t-444 -102q-178 0 -325 59.5t-243.5 163.5t-139 251.5t-18.5 316.5zM186 719q-28 -197 43 -354t226.5 -245.5t368.5 -88.5t394.5 89 t297.5 246t144 353q28 194 -43 349.5t-227 243t-369 87.5q-160 0 -305 -51t-254 -140.5t-182 -216t-94 -272.5zM570 717q24 165 145 277t270 112q147 0 230.5 -112t59.5 -277q-23 -165 -139.5 -279t-263.5 -114q-148 0 -237 114t-65 279zM616.5 1796.5q0.5 10.5 13 22.5 t39.5 20l407 123q18 5 34 -2t23 -22l163 -387q2 -3 4 -8t3.5 -18.5t-2 -23.5t-18.5 -18t-42 -8h-328q-22 0 -33 13l-243 265q-3 2 -6.5 6t-9 15.5t-5 22zM673 717q-18 -125 47 -208t167 -83q100 0 183.5 81.5t101.5 209.5q18 127 -41.5 207t-160.5 80q-104 0 -191.5 -80.5 t-105.5 -206.5zM773 1767l175 -190h220l-116 275z" />
<glyph unicode="&#xd3;" horiz-adv-x="1638" d="M83 719q32 225 167.5 404t341.5 278.5t444 99.5q178 0 325 -59t243 -161.5t139 -248t19 -313.5q-33 -225 -167.5 -406t-341.5 -283t-444 -102q-178 0 -325 59.5t-243.5 163.5t-139 251.5t-18.5 316.5zM186 719q-28 -197 43 -354t226.5 -245.5t368.5 -88.5t394.5 89 t297.5 246t144 353q28 194 -43 349.5t-227 243t-369 87.5q-160 0 -305 -51t-254 -140.5t-182 -216t-94 -272.5zM570 717q24 165 145 277t270 112q147 0 230.5 -112t59.5 -277q-23 -165 -139.5 -279t-263.5 -114q-148 0 -237 114t-65 279zM673 717q-18 -125 47 -208t167 -83 q100 0 183.5 81.5t101.5 209.5q18 127 -41.5 207t-160.5 80q-104 0 -191.5 -80.5t-105.5 -206.5zM743.5 1511.5q2.5 16.5 19.5 39.5l275 387q11 16 29 22.5t34 1.5l371 -123q4 -1 9 -2.5t16 -9t15 -16t-3 -24.5t-29 -34l-319 -265q-16 -13 -37 -13h-328q0 1 -9 0t-19.5 3 t-18.5 10.5t-5.5 23zM899 1577h219l230 190l-254 85z" />
<glyph unicode="&#xd4;" horiz-adv-x="1638" d="M83 719q32 225 167.5 404t341.5 278.5t444 99.5q178 0 325 -59t243 -161.5t139 -248t19 -313.5q-33 -225 -167.5 -406t-341.5 -283t-444 -102q-178 0 -325 59.5t-243.5 163.5t-139 251.5t-18.5 316.5zM186 719q-28 -197 43 -354t226.5 -245.5t368.5 -88.5t394.5 89 t297.5 246t144 353q28 194 -43 349.5t-227 243t-369 87.5q-160 0 -305 -51t-254 -140.5t-182 -216t-94 -272.5zM543 1549.5q4 16.5 24 39.5l295 332q19 21 44 21h345q25 0 38 -21l200 -332q2 -3 4.5 -8.5t5.5 -20t0 -25t-19 -19.5t-44 -9h-307q-28 0 -40 23l-55 105 l-85 -105q-20 -23 -46 -23h-307q-4 0 -10.5 0.5t-20 5t-20 12.5t-2.5 24.5zM570 717q24 165 145 277t270 112q147 0 230.5 -112t59.5 -277q-23 -165 -139.5 -279t-263.5 -114q-148 0 -237 114t-65 279zM673 717q-18 -125 47 -208t167 -83q100 0 183.5 81.5t101.5 209.5 q18 127 -41.5 207t-160.5 80q-104 0 -191.5 -80.5t-105.5 -206.5zM713 1610h178l118 145q16 19 30.5 26.5t24 3.5t16.5 -10.5t10 -12.5l4 -7l77 -145h177l-138 229h-293z" />
<glyph unicode="&#xd5;" horiz-adv-x="1638" d="M83 719q32 225 167.5 404t341.5 278.5t444 99.5q178 0 325 -59t243 -161.5t139 -248t19 -313.5q-33 -225 -167.5 -406t-341.5 -283t-444 -102q-178 0 -325 59.5t-243.5 163.5t-139 251.5t-18.5 316.5zM186 719q-28 -197 43 -354t226.5 -245.5t368.5 -88.5t394.5 89 t297.5 246t144 353q28 194 -43 349.5t-227 243t-369 87.5q-160 0 -305 -51t-254 -140.5t-182 -216t-94 -272.5zM570 717q24 165 145 277t270 112q147 0 230.5 -112t59.5 -277q-23 -165 -139.5 -279t-263.5 -114q-148 0 -237 114t-65 279zM577 1573q29 204 117 315t235 111 q42 0 82.5 -11.5t62.5 -24t44 -27.5t25 -17q4 12 5 23q3 22 22 36.5t37 14.5h276q22 0 34 -16.5t10 -34.5q-29 -202 -115.5 -313t-234.5 -111q-43 0 -83 11t-62 23.5t-44 28t-25 16.5q-1 -4 -5 -24q-3 -22 -22 -36.5t-37 -14.5h-278q-22 0 -34 16.5t-10 34.5zM673 717 q-18 -125 47 -208t167 -83q100 0 183.5 81.5t101.5 209.5q18 127 -41.5 207t-160.5 80q-104 0 -191.5 -80.5t-105.5 -206.5zM688 1624h180q13 33 41 55.5t63 22.5q34 0 62 -13t45 -28t46.5 -28t66.5 -13q89 0 141.5 59t82.5 211h-178q-13 -31 -42 -53t-64 -22 q-33 0 -60.5 12.5t-44.5 28t-47 28t-66 12.5q-89 0 -142.5 -60t-83.5 -212z" />
<glyph unicode="&#xd6;" horiz-adv-x="1638" d="M83 719q32 225 167.5 404t341.5 278.5t444 99.5q178 0 325 -59t243 -161.5t139 -248t19 -313.5q-33 -225 -167.5 -406t-341.5 -283t-444 -102q-178 0 -325 59.5t-243.5 163.5t-139 251.5t-18.5 316.5zM186 719q-28 -197 43 -354t226.5 -245.5t368.5 -88.5t394.5 89 t297.5 246t144 353q28 194 -43 349.5t-227 243t-369 87.5q-160 0 -305 -51t-254 -140.5t-182 -216t-94 -272.5zM570 717q24 165 145 277t270 112q147 0 230.5 -112t59.5 -277q-23 -165 -139.5 -279t-263.5 -114q-148 0 -237 114t-65 279zM600 1745q15 103 92 171.5t180 68.5 t160.5 -68.5t42.5 -171.5q-14 -102 -91.5 -170t-180.5 -68t-160 68t-43 170zM673 717q-18 -125 47 -208t167 -83q100 0 183.5 81.5t101.5 209.5q18 127 -41.5 207t-160.5 80q-104 0 -191.5 -80.5t-105.5 -206.5zM702 1745q-9 -62 22.5 -98.5t93.5 -36.5t103.5 36.5 t50.5 98.5q9 63 -22 100t-93 37t-104 -37t-51 -100zM1026 1745q15 103 92 171.5t180 68.5t160.5 -68.5t42.5 -171.5q-14 -102 -91.5 -170t-180.5 -68t-160 68t-43 170zM1128 1745q-9 -62 22.5 -98.5t93.5 -36.5t103.5 36.5t50.5 98.5q9 63 -22 100t-93 37t-104 -37t-51 -100 z" />
<glyph unicode="&#xd7;" horiz-adv-x="1064" d="M112 445q4 21 19 34l223 195l-167 195q-13 18 -8.5 38.5t19.5 33.5l232 203q20 15 40.5 14t31.5 -14l167 -195l224 195q20 15 40.5 14t31.5 -14l174 -203q13 -18 8.5 -38.5t-19.5 -33.5l-223 -195l167 -195q13 -18 8.5 -39t-19.5 -34l-232 -203q-20 -15 -40.5 -14 t-31.5 14l-167 196l-223 -196q-20 -15 -41 -14t-32 14l-173 203q-13 18 -9 39zM234 442l112 -130l223 195q15 13 36.5 14t36.5 -14l167 -195l149 130l-167 196q-11 11 -9.5 34t19.5 38l224 195l-112 131l-223 -196q-15 -13 -36.5 -14t-36.5 14l-167 196l-149 -131l167 -195 q11 -11 9.5 -34t-19.5 -38z" />
<glyph unicode="&#xd8;" horiz-adv-x="1638" d="M83 719q32 225 167.5 404t341.5 278.5t444 99.5q28 0 58 -2l85 169q8 15 23.5 24.5t29.5 9.5h260q0 -1 4 0t10 -0.5t13 -3t12.5 -7t8.5 -12t1 -19t-10 -27.5l-109 -217q192 -97 282.5 -280.5t57.5 -416.5q-33 -225 -167.5 -406t-341.5 -283t-444 -102q-63 0 -135 9 l-86 -168q-16 -33 -53 -33h-260q0 1 -7.5 0t-16.5 2.5t-17 9.5t-8 21t11 36l125 245q-162 105 -236 280t-43 389zM186 719q-29 -199 43.5 -356.5t228.5 -243.5q14 -8 19.5 -26t-3.5 -37l-111 -218h151l89 173q9 17 26 26.5t34 6.5q81 -13 161 -13q213 0 394.5 89t297.5 246 t144 353q31 215 -59 379.5t-274 242.5q-17 8 -23.5 26.5t3.5 38.5l98 193h-151l-87 -170q-18 -37 -56 -34q-60 4 -90 4q-160 0 -305 -51t-254 -140.5t-182 -216t-94 -272.5zM570 717q21 145 119.5 251.5t229.5 130.5q43 8 55 -9t2 -38l-9 -21l-269 -532q-13 -27 -27.5 -37.5 t-26 -7.5t-20.5 10.5t-14 15.5l-5 8q-54 102 -35 229zM669 658l151 298q-57 -38 -96.5 -100t-50.5 -139q-5 -35 -4 -59zM787 358.5q0 11.5 2 20t6 15.5l307 610q11 22 23.5 32t23 9.5t19.5 -4.5t14 -9l5 -6q115 -117 88 -309q-23 -165 -139.5 -279t-263.5 -114q-36 0 -47 2 q-19 3 -28.5 12t-9.5 20.5zM921 429q91 14 162.5 93t88.5 195q14 96 -20 169z" />
<glyph unicode="&#xd9;" horiz-adv-x="1542" d="M118 608l120 828q3 22 21.5 36.5t36.5 14.5h475q22 0 34 -16.5t10 -34.5l-119 -828q-12 -83 30.5 -132.5t113.5 -49.5q68 0 119 47.5t63 134.5l119 828q3 22 21.5 36.5t36.5 14.5h475q22 0 34 -16.5t10 -34.5l-119 -828q-44 -307 -273.5 -493.5t-559.5 -186.5 q-164 0 -295 48.5t-216.5 136.5t-122 215.5t-14.5 279.5zM221 608q-38 -264 113 -420.5t447 -156.5q293 0 485.5 156t230.5 421l112 776h-373l-112 -776q-18 -124 -103 -204t-196 -80q-113 0 -181 80t-50 204l111 776h-372zM590.5 1796.5q0.5 10.5 13 22.5t39.5 20l407 123 q18 5 33.5 -2t22.5 -22l164 -387q2 -3 4 -8t3.5 -18.5t-2.5 -23.5t-19 -18t-42 -8h-328q-22 0 -33 13l-242 265q-3 2 -6.5 6t-9 15.5t-5 22zM747 1767l174 -190h220l-116 275z" />
<glyph unicode="&#xda;" horiz-adv-x="1542" d="M118 608l120 828q3 22 21.5 36.5t36.5 14.5h475q22 0 34 -16.5t10 -34.5l-119 -828q-12 -83 30.5 -132.5t113.5 -49.5q68 0 119 47.5t63 134.5l119 828q3 22 21.5 36.5t36.5 14.5h475q22 0 34 -16.5t10 -34.5l-119 -828q-44 -307 -273.5 -493.5t-559.5 -186.5 q-164 0 -295 48.5t-216.5 136.5t-122 215.5t-14.5 279.5zM221 608q-38 -264 113 -420.5t447 -156.5q293 0 485.5 156t230.5 421l112 776h-373l-112 -776q-18 -124 -103 -204t-196 -80q-113 0 -181 80t-50 204l111 776h-372zM716.5 1511.5q2.5 16.5 19.5 39.5l275 387 q11 16 29 22.5t34 1.5l372 -123q3 -1 8.5 -2.5t16 -9t14.5 -16t-3 -24.5t-29 -34l-319 -265q-16 -13 -37 -13h-327q0 1 -9.5 0t-19.5 3t-18.5 10.5t-6 23zM872 1577h220l229 190l-254 85z" />
<glyph unicode="&#xdb;" horiz-adv-x="1542" d="M118 608l120 828q3 22 21.5 36.5t36.5 14.5h475q22 0 34 -16.5t10 -34.5l-119 -828q-12 -83 30.5 -132.5t113.5 -49.5q68 0 119 47.5t63 134.5l119 828q3 22 21.5 36.5t36.5 14.5h475q22 0 34 -16.5t10 -34.5l-119 -828q-44 -307 -273.5 -493.5t-559.5 -186.5 q-164 0 -295 48.5t-216.5 136.5t-122 215.5t-14.5 279.5zM221 608q-38 -264 113 -420.5t447 -156.5q293 0 485.5 156t230.5 421l112 776h-373l-112 -776q-18 -124 -103 -204t-196 -80q-113 0 -181 80t-50 204l111 776h-372zM516 1549.5q4 16.5 24 39.5l296 332q19 21 44 21 h344q25 0 38 -21l200 -332q2 -3 4.5 -8.5t5.5 -20t0 -25t-19 -19.5t-44 -9h-307q-27 0 -39 23l-55 105l-86 -105q-20 -23 -45 -23h-308q-4 0 -10.5 0.5t-20 5t-20 12.5t-2.5 24.5zM686 1610h178l118 145q16 19 30.5 26.5t24 3.5t17 -10.5t10.5 -12.5l4 -7l76 -145h178 l-139 229h-292z" />
<glyph unicode="&#xdc;" horiz-adv-x="1542" d="M118 608l120 828q3 22 21.5 36.5t36.5 14.5h475q22 0 34 -16.5t10 -34.5l-119 -828q-12 -83 30.5 -132.5t113.5 -49.5q68 0 119 47.5t63 134.5l119 828q3 22 21.5 36.5t36.5 14.5h475q22 0 34 -16.5t10 -34.5l-119 -828q-44 -307 -273.5 -493.5t-559.5 -186.5 q-164 0 -295 48.5t-216.5 136.5t-122 215.5t-14.5 279.5zM221 608q-38 -264 113 -420.5t447 -156.5q293 0 485.5 156t230.5 421l112 776h-373l-112 -776q-18 -124 -103 -204t-196 -80q-113 0 -181 80t-50 204l111 776h-372zM573 1745q15 103 92 171.5t180 68.5t160.5 -68.5 t42.5 -171.5q-14 -102 -91.5 -170t-180.5 -68t-160 68t-43 170zM675 1745q-9 -62 22.5 -98.5t93.5 -36.5t104 36.5t51 98.5q9 63 -22.5 100t-93.5 37t-104 -37t-51 -100zM999 1745q15 103 92 171.5t180 68.5t160.5 -68.5t42.5 -171.5q-14 -102 -91.5 -170t-180.5 -68 t-160 68t-43 170zM1101 1745q-9 -62 22.5 -98.5t93.5 -36.5t104 36.5t51 98.5q9 63 -22.5 100t-93.5 37t-104 -37t-51 -100z" />
<glyph unicode="&#xdd;" horiz-adv-x="1472" d="M131 1438q-1 13 2.5 23t19 18t41.5 8h473q31 0 41 -28l176 -464l300 464q18 28 50 28h473q0 -1 9 0.5t19 -3t18.5 -10.5t6 -22.5t-17.5 -39.5l-649 -978l-63 -434q-3 -22 -21.5 -36.5t-36.5 -14.5h-476q-22 0 -33.5 16.5t-9.5 34.5l61 424l-376 988q-2 3 -4 8t-3 18z M264 1384l351 -924q5 -11 3 -24l-56 -385h373l57 395q2 14 9 24l607 914h-357l-340 -524q-16 -25 -31.5 -34.5t-26 -5t-18.5 13t-11 16.5l-4 9l-199 525h-357zM681.5 1511.5q2.5 16.5 19.5 39.5l275 387q11 16 29 22.5t34 1.5l372 -123q3 -1 8.5 -2.5t16 -9t14.5 -16 t-3 -24.5t-29 -34l-318 -265q-16 -13 -38 -13h-327q0 1 -9.5 0t-19.5 3t-18.5 10.5t-6 23zM837 1577h220l230 190l-255 85z" />
<glyph unicode="&#xde;" horiz-adv-x="1429" d="M51 0l207 1436q3 22 22 36.5t37 14.5h475q22 0 34 -16.5t10 -34.5l-18 -125h153q293 0 453 -152t124 -407q-39 -269 -244 -431.5t-499 -162.5h-154l-22 -158q-3 -22 -22 -36.5t-37 -14.5h-475q-22 0 -34 16.5t-10 34.5zM161 51h373l22 158q2 18 19.5 34.5t39.5 16.5h205 q259 0 426.5 133t199.5 359q30 209 -100 332.5t-390 123.5h-204q-18 0 -32.5 15t-11.5 37l18 124h-373zM608 569l48 330q2 18 19 34.5t39 16.5h185q85 0 129 -61t31 -152q-13 -93 -74.5 -156t-147.5 -63h-185q-18 0 -32.5 14.5t-11.5 36.5zM718 621h133q88 0 105 116 q8 56 -12 83.5t-60 27.5h-133z" />
<glyph unicode="&#xdf;" horiz-adv-x="1372" d="M31 0l146 1016q25 173 124 304t253 201t341 70q182 0 315 -56t199 -163.5t45 -251.5q-26 -176 -167 -316q90 -57 132.5 -152t26.5 -208q-22 -151 -121.5 -264.5t-254 -172t-342.5 -58.5h-96q-15 0 -27.5 9t-16.5 24q-8 -15 -24 -24t-29 -9h-460q-22 0 -34 16.5t-10 34.5z M140 51h359l144 1000q13 92 68.5 145t142.5 53q84 0 120 -53.5t23 -144.5q-12 -80 -58.5 -132t-125.5 -64l-32 -222q112 -1 173 -43.5t48 -132.5q-14 -93 -86.5 -138.5t-186.5 -46.5l-31 -221h45q257 0 416.5 107.5t184.5 285.5q14 100 -32.5 181t-140.5 115q-25 9 -34 21.5 t-4.5 24t12 21.5t15.5 16l9 6q70 50 120 129t62 162q24 165 -100 267t-371 102q-248 0 -408 -127.5t-192 -345.5zM644 348q21 27 49 27h47q62 0 96.5 10t46.5 26.5t16 45.5q3 19 0 30.5t-16 22.5t-42.5 15.5t-77.5 4.5h-48q-29 0 -41 27zM728 928q20 26 49 26q65 0 87.5 19 t30.5 78q9 62 -2.5 79t-53.5 17q-49 0 -67 -17.5t-27 -78.5z" />
<glyph unicode="&#xe0;" horiz-adv-x="1255" d="M27 332q17 120 85.5 208.5t179.5 134.5q-28 9 -32 34l-58 307q-4 19 8.5 38t32.5 26q325 112 586 112q259 0 395.5 -123t104.5 -344l-104 -725q-3 -22 -22 -36.5t-37 -14.5h-452q-22 0 -34 16.5t-10 34.5q-225 -72 -275 -72q-195 0 -294.5 111t-73.5 293zM130 332 q-21 -141 51 -221t229 -80q187 0 291 120q33 33 52.5 26t28.5 -31l8 -25l-11 -70h351l97 674q25 175 -80 270t-333 95q-223 0 -501 -89l40 -211q3 2 13 4q179 54 303 54q97 0 153 -45t47 -128q-3 -22 -20 -37t-38 -15h-256q-99 -2 -172 -21q-115 -29 -176 -94.5t-77 -175.5z M403.5 1480.5q0.5 10.5 13 22.5t39.5 20l407 123q18 5 33.5 -1.5t22.5 -21.5l164 -387q2 -3 4 -8.5t3.5 -18.5t-2.5 -23t-19 -18.5t-42 -8.5h-327q-22 0 -34 14l-242 264q-3 2 -6.5 6t-9 15.5t-5 22zM459 717q44 6 110 8h178q-28 20 -93 20q-80 0 -195 -28zM465 371 q10 65 57.5 103t112.5 38h160q18 0 32 -14.5t11 -36.5l-14 -103q-2 -15 -13 -28q-42 -51 -99 -80t-115 -29q-68 0 -105 42t-27 108zM560 1452l175 -190h219l-116 274zM567 371q-4 -27 5.5 -37t39.5 -10q63 0 112 51l5 35h-109q-31 0 -40.5 -7.5t-12.5 -31.5z" />
<glyph unicode="&#xe1;" horiz-adv-x="1255" d="M27 332q17 120 85.5 208.5t179.5 134.5q-28 9 -32 34l-58 307q-4 19 8.5 38t32.5 26q325 112 586 112q259 0 395.5 -123t104.5 -344l-104 -725q-3 -22 -22 -36.5t-37 -14.5h-452q-22 0 -34 16.5t-10 34.5q-225 -72 -275 -72q-195 0 -294.5 111t-73.5 293zM130 332 q-21 -141 51 -221t229 -80q187 0 291 120q33 33 52.5 26t28.5 -31l8 -25l-11 -70h351l97 674q25 175 -80 270t-333 95q-223 0 -501 -89l40 -211q3 2 13 4q179 54 303 54q97 0 153 -45t47 -128q-3 -22 -20 -37t-38 -15h-256q-99 -2 -172 -21q-115 -29 -176 -94.5t-77 -175.5z M459 717q44 6 110 8h178q-28 20 -93 20q-80 0 -195 -28zM465 371q10 65 57.5 103t112.5 38h160q18 0 32 -14.5t11 -36.5l-14 -103q-2 -15 -13 -28q-42 -51 -99 -80t-115 -29q-68 0 -105 42t-27 108zM530 1196.5q2 16.5 19 39.5l275 387q11 16 29.5 22t34.5 1l371 -123 q3 -1 8.5 -2.5t16 -9t14.5 -16t-3 -24.5t-29 -34l-318 -264q-17 -14 -38 -14h-327h-10t-18.5 3.5t-19.5 10.5t-5 23.5zM567 371q-4 -27 5.5 -37t39.5 -10q63 0 112 51l5 35h-109q-31 0 -40.5 -7.5t-12.5 -31.5zM685 1262h220l230 190l-255 84z" />
<glyph unicode="&#xe2;" horiz-adv-x="1255" d="M27 332q17 120 85.5 208.5t179.5 134.5q-28 9 -32 34l-58 307q-4 19 8.5 38t32.5 26q325 112 586 112q259 0 395.5 -123t104.5 -344l-104 -725q-3 -22 -22 -36.5t-37 -14.5h-452q-22 0 -34 16.5t-10 34.5q-225 -72 -275 -72q-195 0 -294.5 111t-73.5 293zM130 332 q-21 -141 51 -221t229 -80q187 0 291 120q33 33 52.5 26t28.5 -31l8 -25l-11 -70h351l97 674q25 175 -80 270t-333 95q-223 0 -501 -89l40 -211q3 2 13 4q179 54 303 54q97 0 153 -45t47 -128q-3 -22 -20 -37t-38 -15h-256q-99 -2 -172 -21q-115 -29 -176 -94.5t-77 -175.5z M329 1234.5q4 16.5 24 39.5l296 332q18 20 44 20h344q25 0 38 -20l200 -332q2 -3 4.5 -8.5t5.5 -20t0 -25t-19 -19.5t-44 -9h-307q-27 0 -39 23l-55 104l-85 -104q-20 -23 -46 -23h-307q-4 0 -10.5 0.5t-20 5t-20.5 12.5t-3 24.5zM459 717q44 6 110 8h178q-28 20 -93 20 q-80 0 -195 -28zM465 371q10 65 57.5 103t112.5 38h160q18 0 32 -14.5t11 -36.5l-14 -103q-2 -15 -13 -28q-42 -51 -99 -80t-115 -29q-68 0 -105 42t-27 108zM500 1294h177l119 146q16 19 30.5 26.5t24 3.5t16.5 -10.5t11 -13.5l3 -6l76 -146h178l-138 230h-293zM567 371 q-4 -27 5.5 -37t39.5 -10q63 0 112 51l5 35h-109q-31 0 -40.5 -7.5t-12.5 -31.5z" />
<glyph unicode="&#xe3;" horiz-adv-x="1255" d="M27 332q17 120 85.5 208.5t179.5 134.5q-28 9 -32 34l-58 307q-4 19 8.5 38t32.5 26q325 112 586 112q259 0 395.5 -123t104.5 -344l-104 -725q-3 -22 -22 -36.5t-37 -14.5h-452q-22 0 -34 16.5t-10 34.5q-225 -72 -275 -72q-195 0 -294.5 111t-73.5 293zM130 332 q-21 -141 51 -221t229 -80q187 0 291 120q33 33 52.5 26t28.5 -31l8 -25l-11 -70h351l97 674q25 175 -80 270t-333 95q-223 0 -501 -89l40 -211q3 2 13 4q179 54 303 54q97 0 153 -45t47 -128q-3 -22 -20 -37t-38 -15h-256q-99 -2 -172 -21q-115 -29 -176 -94.5t-77 -175.5z M363 1257q29 203 117 314.5t236 111.5q42 0 82.5 -11.5t62.5 -24t44 -27.5t25 -17q4 12 5 23q3 22 21.5 36.5t36.5 14.5h277q22 0 34 -16.5t10 -34.5q-29 -202 -115.5 -313t-234.5 -111q-43 0 -83 11.5t-62 24t-44 27.5t-25 17q-3 -10 -6 -25q-3 -22 -21.5 -36.5 t-36.5 -14.5h-279q-22 0 -34 16.5t-10 34.5zM459 717q44 6 110 8h178q-28 20 -93 20q-80 0 -195 -28zM465 371q10 65 57.5 103t112.5 38h160q18 0 32 -14.5t11 -36.5l-14 -103q-2 -15 -13 -28q-42 -51 -99 -80t-115 -29q-68 0 -105 42t-27 108zM474 1309h181q13 33 41 55 t63 22q34 0 62 -12.5t45 -28t46.5 -28t66.5 -12.5q89 0 141.5 59t82.5 211h-179q-13 -32 -42 -54t-64 -22q-33 0 -60.5 13t-44.5 28t-46.5 28t-65.5 13q-89 0 -143 -60t-84 -212zM567 371q-4 -27 5.5 -37t39.5 -10q63 0 112 51l5 35h-109q-31 0 -40.5 -7.5t-12.5 -31.5z" />
<glyph unicode="&#xe4;" horiz-adv-x="1255" d="M27 332q17 120 85.5 208.5t179.5 134.5q-28 9 -32 34l-58 307q-4 19 8.5 38t32.5 26q325 112 586 112q259 0 395.5 -123t104.5 -344l-104 -725q-3 -22 -22 -36.5t-37 -14.5h-452q-22 0 -34 16.5t-10 34.5q-225 -72 -275 -72q-195 0 -294.5 111t-73.5 293zM130 332 q-21 -141 51 -221t229 -80q187 0 291 120q33 33 52.5 26t28.5 -31l8 -25l-11 -70h351l97 674q25 175 -80 270t-333 95q-223 0 -501 -89l40 -211q3 2 13 4q179 54 303 54q97 0 153 -45t47 -128q-3 -22 -20 -37t-38 -15h-256q-99 -2 -172 -21q-115 -29 -176 -94.5t-77 -175.5z M386 1430q15 103 92 171t180 68t160.5 -68t42.5 -171q-14 -102 -91 -170t-180 -68t-160.5 68t-43.5 170zM459 717q44 6 110 8h178q-28 20 -93 20q-80 0 -195 -28zM465 371q10 65 57.5 103t112.5 38h160q18 0 32 -14.5t11 -36.5l-14 -103q-2 -15 -13 -28q-42 -51 -99 -80 t-115 -29q-68 0 -105 42t-27 108zM489 1430q-9 -62 22 -99t93 -37t104 37t51 99q9 63 -22 100t-93 37t-104 -37t-51 -100zM567 371q-4 -27 5.5 -37t39.5 -10q63 0 112 51l5 35h-109q-31 0 -40.5 -7.5t-12.5 -31.5zM812 1430q15 103 92 171t180 68t160.5 -68t42.5 -171 q-14 -102 -91 -170t-180 -68t-160.5 68t-43.5 170zM915 1430q-9 -62 22 -99t93 -37t104 37t51 99q9 63 -22 100t-93 37t-104 -37t-51 -100z" />
<glyph unicode="&#xe5;" horiz-adv-x="1255" d="M27 332q17 120 85.5 208.5t179.5 134.5q-28 9 -32 34l-58 307q-4 19 8.5 38t32.5 26q325 112 586 112q259 0 395.5 -123t104.5 -344l-104 -725q-3 -22 -22 -36.5t-37 -14.5h-452q-22 0 -34 16.5t-10 34.5q-225 -72 -275 -72q-195 0 -294.5 111t-73.5 293zM130 332 q-21 -141 51 -221t229 -80q187 0 291 120q33 33 52.5 26t28.5 -31l8 -25l-11 -70h351l97 674q25 175 -80 270t-333 95q-223 0 -501 -89l40 -211q3 2 13 4q179 54 303 54q97 0 153 -45t47 -128q-3 -22 -20 -37t-38 -15h-256q-99 -2 -172 -21q-115 -29 -176 -94.5t-77 -175.5z M459 717q44 6 110 8h178q-28 20 -93 20q-80 0 -195 -28zM465 371q10 65 57.5 103t112.5 38h160q18 0 32 -14.5t11 -36.5l-14 -103q-2 -15 -13 -28q-42 -51 -99 -80t-115 -29q-68 0 -105 42t-27 108zM533 1440q18 127 120 216t229 89t203 -89t58 -216t-120 -216t-229 -89 t-203 89t-58 216zM567 371q-4 -27 5.5 -37t39.5 -10q63 0 112 51l5 35h-109q-31 0 -40.5 -7.5t-12.5 -31.5zM636 1440q-12 -85 38 -144t135 -59t152.5 59t79.5 144t-38.5 143.5t-135.5 58.5t-152 -58.5t-79 -143.5zM707 1440q8 55 51.5 93t98.5 38t87.5 -38t24.5 -93 t-51.5 -93t-98.5 -38t-87.5 38t-24.5 93zM810 1440q-3 -29 24 -29q13 0 22.5 8t10.5 21q3 28 -25 28q-13 0 -22 -7.5t-10 -20.5z" />
<glyph unicode="&#xe6;" horiz-adv-x="1961" d="M27 332q17 120 85.5 208t180.5 135q-29 9 -33 34l-58 307q-4 19 8.5 38t32.5 26q327 112 588 112q217 0 347 -83q147 79 324 79q17 0 51 -2q193 -11 319.5 -106t171 -256.5t2.5 -369.5q-4 -20 -21.5 -34t-36.5 -14h-224l158 -181q12 -15 9.5 -35.5t-17.5 -35.5 q-233 -222 -580 -222q-289 0 -424 174q-178 -180 -470 -180q-213 0 -326 111t-87 295zM130 332q-20 -139 63 -221t262 -82q283 0 426 188q16 21 30.5 28.5t24.5 4t17 -10t11 -13.5l3 -7q101 -184 382 -184q270 0 459 153l-146 167q-120 -83 -238 -83q-83 0 -139 44t-72 124 q-7 33 7.5 50t32.5 18h18h682q41 270 -81.5 423.5t-383.5 153.5q-169 0 -296 -79q-31 -19 -58 1q-108 83 -318 83q-219 0 -503 -90l40 -210l3 1q2 1 4.5 2t4.5 1q181 54 308 54q98 0 155.5 -45t47.5 -128q-3 -22 -20.5 -37t-38.5 -15h-260q-95 -1 -174 -22 q-114 -29 -175.5 -94.5t-77.5 -174.5zM458 717q45 6 113 8h181q-31 20 -94 20q-84 0 -200 -28zM465 371q9 65 58 103t114 38h164q18 0 32.5 -14.5t11.5 -36.5l-15 -103q-1 -13 -14 -29q-43 -51 -101 -79.5t-116 -28.5q-67 0 -105.5 42t-28.5 108zM567 371q-4 -25 6 -36 t41 -11q64 0 116 52l5 34h-113q-32 0 -42 -8t-13 -31zM1231 657q1 12 5 23q29 86 87 143.5t139 57.5q85 0 128.5 -63t25.5 -152q-4 -18 -21 -33t-37 -15h-281q-26 0 -36.5 13.5t-9.5 25.5zM1349 406q33 -31 89 -31q60 0 122 31h-211zM1361 721h155q-10 57 -69 57 q-49 0 -86 -57z" />
<glyph unicode="&#xe7;" horiz-adv-x="1148" d="M59 555q41 284 244 458.5t491 174.5q196 0 335 -93t191 -261q6 -19 -4.5 -39t-32.5 -29l-389 -156q-20 -8 -39 0t-24 27q-21 76 -85 76q-41 0 -74.5 -38.5t-44.5 -117.5q-12 -81 10 -119.5t64 -38.5q33 0 56 17.5t44 66.5q8 20 28 32.5t47 -0.5l348 -172q18 -9 22 -28 t-6 -37q-70 -126 -187.5 -210t-265.5 -117l-22 -32q49 -33 73 -83.5t15 -109.5q-18 -130 -125 -206.5t-255 -76.5q-122 0 -225 78q-14 10 -16 29.5t7 34.5l109 184q8 13 21 21q-19 12 -19.5 33.5t10.5 34.5l64 97q-203 53 -300.5 212t-64.5 388zM162 555q-31 -213 65 -348.5 t294 -164.5q34 -5 41 -23.5t-3 -34.5l-10 -16l-49 -73q50 -4 83.5 -35.5t25.5 -84.5t-51.5 -86t-95.5 -33q-30 0 -60 14l-50 -85q73 -40 135 -40q116 0 184 49.5t80 131.5q5 37 -16.5 70.5t-66.5 50.5q-20 7 -26 22t-2.5 27.5t10.5 23.5l67 100q14 21 40 26q241 44 367 226 l-258 128q-70 -103 -180 -103q-94 0 -135.5 75t-25.5 185q16 109 79.5 183.5t156.5 74.5q105 0 153 -92l289 116q-51 118 -160 182t-264 64q-249 0 -415.5 -143t-201.5 -387zM430 -211q8 -12 22.5 -21.5t24.5 -9.5q13 0 19.5 2.5t7.5 5.5t2 9q1 5 0 8t-9 6.5t-25 3.5 q-19 0 -42 -4z" />
<glyph unicode="&#xe8;" horiz-adv-x="1257" d="M59 555q41 285 246 459t495 174q17 0 51 -2q192 -11 317.5 -106t170 -256.5t2.5 -369.5q-4 -20 -21.5 -34t-36.5 -14h-223l157 -181q12 -15 9.5 -35.5t-17.5 -35.5q-233 -222 -578 -222q-304 0 -458.5 170.5t-113.5 452.5zM162 555q-35 -241 91.5 -380.5t392.5 -139.5 q268 0 457 153l-145 167q-121 -83 -237 -83q-83 0 -138.5 44t-71.5 124q-7 33 7.5 50t32.5 18h18h679q41 270 -81 423.5t-382 153.5q-252 0 -420 -142.5t-203 -387.5zM393.5 1480.5q0.5 10.5 13 22.5t39.5 20l407 123q18 5 33.5 -1.5t22.5 -21.5l164 -387q2 -3 4 -8.5 t3.5 -18.5t-2.5 -23t-19 -18.5t-42 -8.5h-328q-21 0 -33 14l-242 264q-3 2 -6.5 6t-9 15.5t-5 22zM529.5 664q0.5 9 3.5 16q29 86 87.5 143.5t139.5 57.5q84 0 126.5 -63.5t24.5 -151.5q-4 -18 -21 -33t-37 -15h-278q-20 0 -31 7.5t-13 18.5t-1.5 20zM550 1452l174 -190h220 l-116 274zM646 406q33 -31 90 -31q58 0 120 31h-210zM659 721h152q-11 57 -66 57q-49 0 -86 -57z" />
<glyph unicode="&#xe9;" horiz-adv-x="1257" d="M59 555q41 285 246 459t495 174q17 0 51 -2q192 -11 317.5 -106t170 -256.5t2.5 -369.5q-4 -20 -21.5 -34t-36.5 -14h-223l157 -181q12 -15 9.5 -35.5t-17.5 -35.5q-233 -222 -578 -222q-304 0 -458.5 170.5t-113.5 452.5zM162 555q-35 -241 91.5 -380.5t392.5 -139.5 q268 0 457 153l-145 167q-121 -83 -237 -83q-83 0 -138.5 44t-71.5 124q-7 33 7.5 50t32.5 18h18h679q41 270 -81 423.5t-382 153.5q-252 0 -420 -142.5t-203 -387.5zM520 1196.5q2 16.5 19 39.5l275 387q11 16 29 22t34 1l372 -123q3 -1 8.5 -2.5t16 -9t14.5 -16t-3 -24.5 t-29 -34l-319 -264q-17 -14 -37 -14h-327h-10t-18.5 3.5t-19.5 10.5t-5 23.5zM529.5 664q0.5 9 3.5 16q29 86 87.5 143.5t139.5 57.5q84 0 126.5 -63.5t24.5 -151.5q-4 -18 -21 -33t-37 -15h-278q-20 0 -31 7.5t-13 18.5t-1.5 20zM646 406q33 -31 90 -31q58 0 120 31h-210z M659 721h152q-11 57 -66 57q-49 0 -86 -57zM675 1262h220l229 190l-254 84z" />
<glyph unicode="&#xea;" horiz-adv-x="1257" d="M59 555q41 285 246 459t495 174q17 0 51 -2q192 -11 317.5 -106t170 -256.5t2.5 -369.5q-4 -20 -21.5 -34t-36.5 -14h-223l157 -181q12 -15 9.5 -35.5t-17.5 -35.5q-233 -222 -578 -222q-304 0 -458.5 170.5t-113.5 452.5zM162 555q-35 -241 91.5 -380.5t392.5 -139.5 q268 0 457 153l-145 167q-121 -83 -237 -83q-83 0 -138.5 44t-71.5 124q-7 33 7.5 50t32.5 18h18h679q41 270 -81 423.5t-382 153.5q-252 0 -420 -142.5t-203 -387.5zM319 1234.5q4 16.5 24 39.5l296 332q18 20 44 20h344q25 0 38 -20l200 -332q2 -3 4.5 -8.5t5.5 -20t0 -25 t-19 -19.5t-44 -9h-307q-27 0 -39 23l-55 104l-86 -104q-20 -23 -45 -23h-308q-4 0 -10.5 0.5t-20 5t-20 12.5t-2.5 24.5zM489 1294h178l118 146q16 19 30.5 26.5t24 3.5t17 -10.5t11.5 -13.5l3 -6l76 -146h178l-139 230h-292zM529.5 664q0.5 9 3.5 16q29 86 87.5 143.5 t139.5 57.5q84 0 126.5 -63.5t24.5 -151.5q-4 -18 -21 -33t-37 -15h-278q-20 0 -31 7.5t-13 18.5t-1.5 20zM646 406q33 -31 90 -31q58 0 120 31h-210zM659 721h152q-11 57 -66 57q-49 0 -86 -57z" />
<glyph unicode="&#xeb;" horiz-adv-x="1257" d="M59 555q41 285 246 459t495 174q17 0 51 -2q192 -11 317.5 -106t170 -256.5t2.5 -369.5q-4 -20 -21.5 -34t-36.5 -14h-223l157 -181q12 -15 9.5 -35.5t-17.5 -35.5q-233 -222 -578 -222q-304 0 -458.5 170.5t-113.5 452.5zM162 555q-35 -241 91.5 -380.5t392.5 -139.5 q268 0 457 153l-145 167q-121 -83 -237 -83q-83 0 -138.5 44t-71.5 124q-7 33 7.5 50t32.5 18h18h679q41 270 -81 423.5t-382 153.5q-252 0 -420 -142.5t-203 -387.5zM376 1430q15 103 92 171t180 68t160.5 -68t42.5 -171q-14 -102 -91.5 -170t-180.5 -68t-160 68t-43 170z M478 1430q-9 -62 22.5 -99t93.5 -37t104 37t51 99q9 63 -22.5 100t-93.5 37t-104 -37t-51 -100zM529.5 664q0.5 9 3.5 16q29 86 87.5 143.5t139.5 57.5q84 0 126.5 -63.5t24.5 -151.5q-4 -18 -21 -33t-37 -15h-278q-20 0 -31 7.5t-13 18.5t-1.5 20zM646 406q33 -31 90 -31 q58 0 120 31h-210zM659 721h152q-11 57 -66 57q-49 0 -86 -57zM802 1430q15 103 92 171t180 68t160.5 -68t42.5 -171q-14 -102 -91.5 -170t-180.5 -68t-160 68t-43 170zM904 1430q-9 -62 22.5 -99t93.5 -37t104 37t51 99q9 63 -22.5 100t-93.5 37t-104 -37t-51 -100z" />
<glyph unicode="&#xec;" horiz-adv-x="686" d="M61 0l162 1120q3 22 21.5 36.5t36.5 14.5h461q22 0 34 -16.5t10 -34.5l-161 -1120q-3 -22 -22 -36.5t-37 -14.5h-461q-22 0 -34 16.5t-10 34.5zM116.5 1480.5q0.5 10.5 13 22.5t39.5 20l407 123q18 5 34 -1.5t23 -21.5l163 -387q2 -3 4 -8.5t3.5 -18.5t-2.5 -23 t-19 -18.5t-42 -8.5h-327q-21 0 -33 14l-243 264q-3 2 -6.5 6t-9 15.5t-5 22zM171 51h359l146 1018h-358zM273 1452l175 -190h219l-115 274z" />
<glyph unicode="&#xed;" horiz-adv-x="686" d="M61 0l162 1120q3 22 21.5 36.5t36.5 14.5h461q22 0 34 -16.5t10 -34.5l-161 -1120q-3 -22 -22 -36.5t-37 -14.5h-461q-22 0 -34 16.5t-10 34.5zM171 51h359l146 1018h-358zM244 1196.5q2 16.5 19 39.5l274 387q11 16 29.5 22t34.5 1l371 -123q3 -1 8.5 -2.5t16 -9 t14.5 -16t-3 -24.5t-29 -34l-318 -264q-17 -14 -37 -14h-328h-9.5t-18.5 3.5t-19.5 10.5t-4.5 23.5zM399 1262h219l230 190l-254 84z" />
<glyph unicode="&#xee;" horiz-adv-x="686" d="M43 1234.5q4 16.5 24 39.5l295 332q18 20 44 20h344q25 0 38 -20l200 -332l2.5 -5t4.5 -11.5t4.5 -16t-0.5 -17t-8.5 -16.5t-20 -11.5t-34.5 -4.5h-308q-27 0 -39 23l-55 104l-85 -104q-20 -23 -46 -23h-307q-4 0 -10.5 0.5t-20 5t-20 12.5t-2.5 24.5zM61 0l162 1120 q3 22 21.5 36.5t36.5 14.5h461q22 0 34 -16.5t10 -34.5l-161 -1120q-3 -22 -22 -36.5t-37 -14.5h-461q-22 0 -34 16.5t-10 34.5zM171 51h359l146 1018h-358zM213 1294h178l118 146q16 19 30.5 26.5t24 3.5t16.5 -10.5t10 -13.5l4 -6l77 -146h177l-138 230h-293z" />
<glyph unicode="&#xef;" horiz-adv-x="686" d="M61 0l162 1120q3 22 21.5 36.5t36.5 14.5h461q22 0 34 -16.5t10 -34.5l-161 -1120q-3 -22 -22 -36.5t-37 -14.5h-461q-22 0 -34 16.5t-10 34.5zM99 1430q15 103 92.5 171t180.5 68t160.5 -68t42.5 -171q-14 -102 -91.5 -170t-180.5 -68t-160.5 68t-43.5 170zM171 51h359 l146 1018h-358zM202 1430q-9 -62 22.5 -99t93.5 -37t103.5 37t50.5 99q9 63 -22 100t-93 37t-104 -37t-51 -100zM525 1430q15 103 92.5 171t180.5 68t160.5 -68t42.5 -171q-14 -102 -91.5 -170t-180.5 -68t-160.5 68t-43.5 170zM628 1430q-9 -62 22.5 -99t93.5 -37t103.5 37 t50.5 99q9 63 -22 100t-93 37t-104 -37t-51 -100z" />
<glyph unicode="&#xf0;" horiz-adv-x="1263" d="M34 465q22 152 106 269t215 178q-1 3 -1 5l-40 205q-4 20 9 39.5t32 25.5l136 45q-65 40 -150 79q-4 2 -9 5t-15 12.5t-12.5 19.5t7.5 25t36 29l336 182q21 12 43 5q179 -63 321 -174l296 98q20 7 38.5 -2.5t22.5 -29.5l39 -207q4 -20 -9 -39.5t-32 -25.5l-134 -44 q147 -250 105 -544q-45 -312 -266 -502.5t-537 -190.5q-274 0 -423 147t-114 390zM137 465q-29 -199 90.5 -316.5t358.5 -117.5q277 0 461.5 159t223.5 431q42 295 -128 536q-18 31 -10.5 49t26.5 25l19 7l155 51l-21 110l-271 -90q-26 -9 -46 8q-126 103 -294 167 l-222 -120q86 -46 163 -103q21 -16 26.5 -31t-2.5 -25.5t-18.5 -18.5t-20.5 -12l-10 -4l-192 -63l21 -108l325 106q32 10 51 -12q99 -114 129 -237q9 -36 -13 -51t-48 -11l-26 3q-35 30 -106.5 49.5t-149.5 19.5q-54 0 -102 -9q-151 -27 -248.5 -129.5t-120.5 -262.5z M478 487q12 80 72.5 129.5t141.5 49.5q84 0 132 -50.5t36 -130.5t-73.5 -130t-144.5 -50q-82 0 -129 50.5t-35 131.5zM580 487q-11 -79 77 -79q90 0 101 77q5 38 -14 58t-67 20q-86 0 -97 -76zM665 967q74 -5 129 -20q-18 29 -36 51z" />
<glyph unicode="&#xf1;" horiz-adv-x="1396" d="M61 0l162 1120q3 22 21.5 36.5t36.5 14.5h461q22 0 34 -16.5t10 -34.5l-4 -27q136 99 303 99q199 0 307 -133t77 -344l-103 -715q-3 -22 -22 -36.5t-37 -14.5h-460q-22 0 -34 16.5t-10 34.5l84 582q15 102 -68 102q-44 0 -74.5 -32t-39.5 -97l-80 -555q-3 -22 -22 -36.5 t-37 -14.5h-461q-22 0 -34 16.5t-10 34.5zM171 51h359l72 504q14 98 77.5 164.5t154.5 66.5q83 0 125.5 -58t29.5 -146l-76 -531h358l96 664q25 173 -57.5 274t-239.5 101q-192 0 -319 -158q-30 -32 -50 -25.5t-30 30.5l-10 24l15 108h-358zM470 1257q29 204 117 315 t235 111q42 0 82.5 -11.5t62.5 -24t44 -27.5t25 -17q4 12 5 23q3 22 22 36.5t37 14.5h276q22 0 34 -16.5t10 -34.5q-29 -202 -115.5 -313t-234.5 -111q-43 0 -83 11.5t-62 24t-44 27.5t-25 17q-1 -3 -5 -25q-3 -22 -22 -36.5t-37 -14.5h-278q-22 0 -34 16.5t-10 34.5z M581 1309h180q13 33 41 55t63 22q34 0 62 -12.5t45 -28t46.5 -28t66.5 -12.5q89 0 141.5 59t82.5 211h-178q-13 -32 -42 -54t-64 -22q-41 0 -73 20.5t-65.5 41t-79.5 20.5q-89 0 -142.5 -60t-83.5 -212z" />
<glyph unicode="&#xf2;" horiz-adv-x="1327" d="M60 561q27 188 133.5 330.5t273 219.5t368.5 77q307 0 470.5 -171.5t122.5 -455.5t-254 -456.5t-520 -172.5t-471 172.5t-123 456.5zM163 561q-35 -242 100 -384t406 -142t446.5 142t210.5 384q35 241 -100 382.5t-406 141.5t-446.5 -141.5t-210.5 -382.5zM436.5 1480.5 q0.5 10.5 13 22.5t39.5 20l407 123q18 5 33.5 -1.5t22.5 -21.5l164 -387q2 -3 4 -8.5t3.5 -18.5t-2.5 -23t-19 -18.5t-42 -8.5h-328q-21 0 -33 14l-242 264q-3 2 -6.5 6t-9 15.5t-5 22zM524 555q16 114 86.5 191t171.5 77t149 -77t32 -191t-86.5 -191t-171.5 -77t-149 77 t-32 191zM593 1452l174 -190h220l-116 274zM627 555q-12 -83 14.5 -124.5t78.5 -41.5t90 41.5t50 124.5t-14.5 124.5t-78.5 41.5t-90 -41.5t-50 -124.5z" />
<glyph unicode="&#xf3;" horiz-adv-x="1327" d="M60 561q27 188 133.5 330.5t273 219.5t368.5 77q307 0 470.5 -171.5t122.5 -455.5t-254 -456.5t-520 -172.5t-471 172.5t-123 456.5zM163 561q-35 -242 100 -384t406 -142t446.5 142t210.5 384q35 241 -100 382.5t-406 141.5t-446.5 -141.5t-210.5 -382.5zM524 555 q16 114 86.5 191t171.5 77t149 -77t32 -191t-86.5 -191t-171.5 -77t-149 77t-32 191zM563 1196.5q2 16.5 19 39.5l275 387q11 16 29 22t34 1l372 -123q3 -1 8.5 -2.5t16 -9t14.5 -16t-3 -24.5t-29 -34l-319 -264q-17 -14 -37 -14h-327h-10t-18.5 3.5t-19.5 10.5t-5 23.5z M627 555q-12 -83 14.5 -124.5t78.5 -41.5t90 41.5t50 124.5t-14.5 124.5t-78.5 41.5t-90 -41.5t-50 -124.5zM718 1262h220l229 190l-254 84z" />
<glyph unicode="&#xf4;" horiz-adv-x="1327" d="M60 561q27 188 133.5 330.5t273 219.5t368.5 77q307 0 470.5 -171.5t122.5 -455.5t-254 -456.5t-520 -172.5t-471 172.5t-123 456.5zM163 561q-35 -242 100 -384t406 -142t446.5 142t210.5 384q35 241 -100 382.5t-406 141.5t-446.5 -141.5t-210.5 -382.5zM362 1234.5 q4 16.5 24 39.5l296 332q18 20 44 20h344q25 0 38 -20l200 -332q2 -3 4.5 -8.5t5.5 -20t0 -25t-19 -19.5t-44 -9h-307q-27 0 -39 23l-55 104l-86 -104q-20 -23 -45 -23h-308q-4 0 -10.5 0.5t-20 5t-20 12.5t-2.5 24.5zM524 555q16 114 86.5 191t171.5 77t149 -77t32 -191 t-86.5 -191t-171.5 -77t-149 77t-32 191zM532 1294h178l118 146q16 19 30.5 26.5t24 3.5t17 -10.5t10.5 -13.5l4 -6l76 -146h178l-139 230h-292zM627 555q-12 -83 14.5 -124.5t78.5 -41.5t90 41.5t50 124.5t-14.5 124.5t-78.5 41.5t-90 -41.5t-50 -124.5z" />
<glyph unicode="&#xf5;" horiz-adv-x="1327" d="M60 561q27 188 133.5 330.5t273 219.5t368.5 77q307 0 470.5 -171.5t122.5 -455.5t-254 -456.5t-520 -172.5t-471 172.5t-123 456.5zM163 561q-35 -242 100 -384t406 -142t446.5 142t210.5 384q35 241 -100 382.5t-406 141.5t-446.5 -141.5t-210.5 -382.5zM396 1257 q29 204 117 315t235 111q42 0 82.5 -11.5t62.5 -24t44.5 -28t25.5 -16.5q4 12 5 23q3 22 21.5 36.5t36.5 14.5h277q22 0 33.5 -16.5t9.5 -34.5q-29 -202 -115 -313t-234 -111q-43 0 -83 11.5t-62.5 24t-44.5 28t-25 16.5q-1 -3 -5 -25q-3 -22 -21.5 -36.5t-36.5 -14.5h-279 q-22 0 -34 16.5t-10 34.5zM507 1309h180q13 32 41.5 54.5t63.5 22.5q34 0 61.5 -12.5t44.5 -28t46.5 -28t66.5 -12.5q89 0 141.5 59t82.5 211h-178q-13 -32 -42 -54t-64 -22q-33 0 -60.5 13t-44.5 28t-46.5 28t-65.5 13q-89 0 -143 -60t-84 -212zM524 555q16 114 86.5 191 t171.5 77t149 -77t32 -191t-86.5 -191t-171.5 -77t-149 77t-32 191zM627 555q-12 -83 14.5 -124.5t78.5 -41.5t90 41.5t50 124.5t-14.5 124.5t-78.5 41.5t-90 -41.5t-50 -124.5z" />
<glyph unicode="&#xf6;" horiz-adv-x="1327" d="M60 561q27 188 133.5 330.5t273 219.5t368.5 77q307 0 470.5 -171.5t122.5 -455.5t-254 -456.5t-520 -172.5t-471 172.5t-123 456.5zM163 561q-35 -242 100 -384t406 -142t446.5 142t210.5 384q35 241 -100 382.5t-406 141.5t-446.5 -141.5t-210.5 -382.5zM419 1430 q15 103 92 171t180 68t160.5 -68t42.5 -171q-14 -102 -91.5 -170t-180.5 -68t-160 68t-43 170zM521 1430q-9 -62 22.5 -99t93.5 -37t104 37t51 99q9 63 -22.5 100t-93.5 37t-104 -37t-51 -100zM524 555q16 114 86.5 191t171.5 77t149 -77t32 -191t-86.5 -191t-171.5 -77 t-149 77t-32 191zM627 555q-12 -83 14.5 -124.5t78.5 -41.5t90 41.5t50 124.5t-14.5 124.5t-78.5 41.5t-90 -41.5t-50 -124.5zM845 1430q15 103 92 171t180 68t160.5 -68t42.5 -171q-14 -102 -91.5 -170t-180.5 -68t-160 68t-43 170zM947 1430q-9 -62 22.5 -99t93.5 -37 t104 37t51 99q9 63 -22.5 100t-93.5 37t-104 -37t-51 -100z" />
<glyph unicode="&#xf7;" horiz-adv-x="1064" d="M87 530l41 287q3 22 22 36.5t37 14.5h942q22 0 33.5 -16.5t9.5 -34.5l-41 -287q-3 -22 -21.5 -36.5t-36.5 -14.5h-943q-22 0 -33.5 16.5t-9.5 34.5zM196 582h840l27 184h-840zM320 303q15 103 92 171.5t180 68.5t160.5 -68.5t42.5 -171.5q-14 -102 -91.5 -169.5 t-180.5 -67.5t-160 67.5t-43 169.5zM423 303q-9 -62 22 -98.5t93 -36.5t104 36.5t51 98.5q9 63 -22 100t-93 37t-104 -37t-51 -100zM426 1040q15 103 92 171.5t180 68.5t161 -68.5t43 -171.5q-14 -102 -91.5 -169.5t-180.5 -67.5t-160.5 67.5t-43.5 169.5zM529 1040 q-9 -62 22 -98.5t93 -36.5t104 36.5t51 98.5q9 63 -22 100.5t-93 37.5t-104 -37.5t-51 -100.5z" />
<glyph unicode="&#xf8;" horiz-adv-x="1327" d="M60 561q27 188 133.5 330.5t273 219.5t368.5 77q22 0 62 -2l102 216q7 16 22.5 26t31.5 10h180h7.5t16.5 -2.5t16.5 -9t8 -20t-9.5 -35.5l-117 -247q158 -74 229.5 -221t43.5 -342q-41 -284 -254 -456.5t-520 -172.5q-24 0 -58 2l-111 -235q-7 -16 -22.5 -25.5 t-31.5 -9.5h-180h-7.5t-16.5 2.5t-16.5 9t-8 20t9.5 35.5l125 264q-160 75 -232.5 222.5t-44.5 343.5zM163 561q-26 -180 44 -305.5t222 -182.5q17 -6 24 -25t-2 -40l-115 -241h73l112 237q7 15 23.5 25.5t33.5 9.5q60 -4 91 -4q271 0 446.5 142t210.5 384q26 179 -42.5 304 t-219.5 180q-17 6 -24.5 25t1.5 40l107 225h-73l-104 -220q-8 -16 -25 -26.5t-35 -8.5q-35 5 -91 5q-271 0 -446.5 -141.5t-210.5 -382.5zM494 555q18 130 96 216.5t190 90.5q36 1 46 -15.5t2 -34.5l-7 -17l-207 -436q-13 -27 -27 -38.5t-25 -8t-20.5 10t-14.5 14.5l-5 8 q-47 82 -28 210zM595 545l86 183q-68 -54 -85 -173q0 -2 -0.5 -5.5t-0.5 -4.5zM657.5 270q-1.5 10 0 20.5t4.5 17.5l4 7l207 436q13 27 27 38t25 8t20.5 -10t14.5 -15l5 -8q46 -85 28 -209q-18 -130 -96 -216.5t-190 -90.5q-23 -1 -35.5 5.5t-14 16.5zM806 382q68 54 85 173 q0 2 0.5 5.5t0.5 4.5z" />
<glyph unicode="&#xf9;" horiz-adv-x="1376" d="M89 406l103 714q3 22 22 36.5t37 14.5h461q22 0 33.5 -16.5t9.5 -34.5l-83 -581q-15 -103 56 -103q38 0 66.5 31.5t38.5 97.5l80 555q3 22 22 36.5t37 14.5h460q22 0 34 -16.5t10 -34.5l-161 -1120q-3 -22 -22 -36.5t-37 -14.5h-461q-22 0 -33.5 16.5t-9.5 34.5l3 23 q-132 -95 -292 -95q-195 0 -300 133.5t-74 344.5zM192 406q-25 -173 54.5 -274t231.5 -101q186 0 308 153q17 21 32 25.5t25 -3.5t18 -19t11 -21l4 -10l-15 -105h359l146 1018h-358l-73 -504q-14 -97 -73.5 -164t-147.5 -67q-79 0 -118 59t-27 146l77 530h-359z M448.5 1480.5q0.5 10.5 13 22.5t39.5 20l407 123q18 5 33.5 -1.5t22.5 -21.5l164 -387q2 -3 4 -8.5t3.5 -18.5t-2.5 -23t-19 -18.5t-42 -8.5h-327q-22 0 -34 14l-242 264q-3 2 -6.5 6t-9 15.5t-5 22zM605 1452l175 -190h219l-116 274z" />
<glyph unicode="&#xfa;" horiz-adv-x="1376" d="M89 406l103 714q3 22 22 36.5t37 14.5h461q22 0 33.5 -16.5t9.5 -34.5l-83 -581q-15 -103 56 -103q38 0 66.5 31.5t38.5 97.5l80 555q3 22 22 36.5t37 14.5h460q22 0 34 -16.5t10 -34.5l-161 -1120q-3 -22 -22 -36.5t-37 -14.5h-461q-22 0 -33.5 16.5t-9.5 34.5l3 23 q-132 -95 -292 -95q-195 0 -300 133.5t-74 344.5zM192 406q-25 -173 54.5 -274t231.5 -101q186 0 308 153q17 21 32 25.5t25 -3.5t18 -19t11 -21l4 -10l-15 -105h359l146 1018h-358l-73 -504q-14 -97 -73.5 -164t-147.5 -67q-79 0 -118 59t-27 146l77 530h-359zM575 1196.5 q2 16.5 19 39.5l275 387q11 16 29.5 22t34.5 1l371 -123q3 -1 8.5 -2.5t16 -9t14.5 -16t-3 -24.5t-29 -34l-318 -264q-17 -14 -37 -14h-328h-10t-18.5 3.5t-19.5 10.5t-5 23.5zM730 1262h220l230 190l-255 84z" />
<glyph unicode="&#xfb;" horiz-adv-x="1376" d="M89 406l103 714q3 22 22 36.5t37 14.5h461q22 0 33.5 -16.5t9.5 -34.5l-83 -581q-15 -103 56 -103q38 0 66.5 31.5t38.5 97.5l80 555q3 22 22 36.5t37 14.5h460q22 0 34 -16.5t10 -34.5l-161 -1120q-3 -22 -22 -36.5t-37 -14.5h-461q-22 0 -33.5 16.5t-9.5 34.5l3 23 q-132 -95 -292 -95q-195 0 -300 133.5t-74 344.5zM192 406q-25 -173 54.5 -274t231.5 -101q186 0 308 153q17 21 32 25.5t25 -3.5t18 -19t11 -21l4 -10l-15 -105h359l146 1018h-358l-73 -504q-14 -97 -73.5 -164t-147.5 -67q-79 0 -118 59t-27 146l77 530h-359zM375 1234.5 q4 16.5 24 39.5l295 332q18 20 44 20h344q25 0 38 -20l200 -332q2 -3 4.5 -8.5t5.5 -20t0 -25t-19 -19.5t-44 -9h-307q-27 0 -39 23l-55 104l-85 -104q-20 -23 -46 -23h-307q-4 0 -10.5 0.5t-20 5t-20 12.5t-2.5 24.5zM545 1294h177l119 146q16 19 30.5 26.5t24 3.5 t16.5 -10.5t10 -13.5l4 -6l76 -146h178l-138 230h-293z" />
<glyph unicode="&#xfc;" horiz-adv-x="1376" d="M89 406l103 714q3 22 22 36.5t37 14.5h461q22 0 33.5 -16.5t9.5 -34.5l-83 -581q-15 -103 56 -103q38 0 66.5 31.5t38.5 97.5l80 555q3 22 22 36.5t37 14.5h460q22 0 34 -16.5t10 -34.5l-161 -1120q-3 -22 -22 -36.5t-37 -14.5h-461q-22 0 -33.5 16.5t-9.5 34.5l3 23 q-132 -95 -292 -95q-195 0 -300 133.5t-74 344.5zM192 406q-25 -173 54.5 -274t231.5 -101q186 0 308 153q17 21 32 25.5t25 -3.5t18 -19t11 -21l4 -10l-15 -105h359l146 1018h-358l-73 -504q-14 -97 -73.5 -164t-147.5 -67q-79 0 -118 59t-27 146l77 530h-359zM431 1430 q15 103 92 171t180 68t160.5 -68t42.5 -171q-14 -102 -91 -170t-180 -68t-160.5 68t-43.5 170zM534 1430q-9 -62 22 -99t93 -37t104 37t51 99q9 63 -22 100t-93 37t-104 -37t-51 -100zM857 1430q15 103 92 171t180 68t160.5 -68t42.5 -171q-14 -102 -91 -170t-180 -68 t-160.5 68t-43.5 170zM960 1430q-9 -62 22 -99t93 -37t104 37t51 99q9 63 -22 100t-93 37t-104 -37t-51 -100z" />
<glyph unicode="&#xfd;" horiz-adv-x="1277" d="M-134 -295.5q-1 20.5 12 36.5l237 303q5 7 12 12.5t18 11t24 2.5t25 -16q49 -52 107 -52q29 0 44 7t28 25l3 5l-301 1061l-2.5 7.5t-2 17t3.5 22t19 17t39 7.5h473q35 0 43 -34l99 -486l207 483q7 16 22 26.5t32 10.5h459q0 -1 8 0t17 -2.5t17 -9.5t7.5 -21t-11.5 -36 l-634 -1199q-204 -372 -592 -372q-231 0 -398 141q-14 12 -15 32.5zM-11 -273q129 -94 304 -94q166 0 282.5 73t205.5 235l597 1128h-346l-258 -602q-16 -38 -40.5 -38.5t-41.5 17.5l-16 19l-122 604h-359l288 -1014q8 -25 -10 -47l-20 -26q-61 -82 -166 -82q-74 0 -131 41z M538 1196.5q2 16.5 19 39.5l275 387q11 16 29.5 22t34.5 1l371 -123q3 -1 8.5 -2.5t16 -9t14.5 -16t-3 -24.5t-29 -34l-318 -264q-17 -14 -37 -14h-328h-10t-18.5 3.5t-19.5 10.5t-5 23.5zM694 1262h219l230 190l-254 84z" />
<glyph unicode="&#xfe;" d="M14 -397l277 1917q3 22 21.5 36.5t36.5 14.5h461q22 0 34 -16.5t10 -34.5l-58 -399q113 67 244 67q169 0 286 -80.5t165.5 -224.5t21.5 -330q-40 -277 -215.5 -449t-426.5 -172q-137 0 -236 71l-57 -400q-3 -22 -22 -37t-37 -15h-461q-22 0 -34 17t-10 35zM124 -346h359 l66 461q4 28 15 41.5t24.5 13t26 -5t21.5 -10.5l8 -6q84 -113 242 -113q207 0 348.5 138t176.5 380q36 248 -69 390t-317 142q-151 0 -262 -111q-20 -20 -36.5 -24t-25 4.5t-14.5 20.5t-7 23l-2 10l66 460h-358zM614 565q16 114 86 191.5t170 77.5q101 0 148.5 -77.5 t31.5 -191.5t-86.5 -191t-171.5 -77q-100 0 -147 77t-31 191zM716 565q-12 -83 14 -124.5t77 -41.5q52 0 90.5 41.5t50.5 124.5t-14.5 124.5t-78.5 41.5q-51 0 -89 -41.5t-50 -124.5z" />
<glyph unicode="&#xff;" horiz-adv-x="1277" d="M-134 -295.5q-1 20.5 12 36.5l237 303q5 7 12 12.5t18 11t24 2.5t25 -16q49 -52 107 -52q29 0 44 7t28 25l3 5l-301 1061l-2.5 7.5t-2 17t3.5 22t19 17t39 7.5h473q35 0 43 -34l99 -486l207 483q7 16 22 26.5t32 10.5h459q0 -1 8 0t17 -2.5t17 -9.5t7.5 -21t-11.5 -36 l-634 -1199q-204 -372 -592 -372q-231 0 -398 141q-14 12 -15 32.5zM-11 -273q129 -94 304 -94q166 0 282.5 73t205.5 235l597 1128h-346l-258 -602q-16 -38 -40.5 -38.5t-41.5 17.5l-16 19l-122 604h-359l288 -1014q8 -25 -10 -47l-20 -26q-61 -82 -166 -82q-74 0 -131 41z M394 1430q15 103 92.5 171t180.5 68t160.5 -68t42.5 -171q-14 -102 -91.5 -170t-180.5 -68t-160.5 68t-43.5 170zM497 1430q-9 -62 22 -99t93 -37t104 37t51 99q9 63 -22 100t-93 37t-104 -37t-51 -100zM820 1430q15 103 92 171t180 68t161 -68t43 -171q-14 -102 -91.5 -170 t-180.5 -68t-160.5 68t-43.5 170zM923 1430q-9 -62 22 -99t93 -37t104 37t51 99q9 63 -22 100t-93 37t-104 -37t-51 -100z" />
<glyph unicode="&#x152;" horiz-adv-x="2308" d="M83 715q32 219 165.5 396t339.5 276.5t443 99.5h1395q22 0 34 -16.5t10 -34.5l-52 -361q-3 -22 -22 -36.5t-37 -14.5h-688l-10 -74h620q22 0 34 -16.5t10 -34.5l-52 -360q-3 -22 -22 -37t-37 -15h-620l-11 -75h707q22 0 34 -17t9 -35l-52 -360q-3 -22 -21.5 -36.5 t-36.5 -14.5h-1413q-176 0 -323 57.5t-243.5 157.5t-140.5 243t-20 308zM185 715q-27 -190 44.5 -341.5t227.5 -237t368 -85.5h1361l38 258h-707q-18 0 -32.5 14.5t-11.5 36.5l26 179q2 18 19.5 34.5t39.5 16.5h620l37 258h-620q-18 0 -32.5 14.5t-11.5 36.5l25 176 q2 18 19.5 34.5t39.5 16.5h688l37 258h-1343q-213 0 -394 -87t-296 -239.5t-142 -342.5zM570 713q24 166 138.5 278.5t267.5 112.5h180q18 0 32.5 -14.5t11.5 -36.5l-97 -676q-3 -20 -20 -35.5t-38 -15.5l-181 -2q-153 0 -235.5 112t-58.5 277zM672 713q-19 -128 40 -207.5 t166 -79.5l130 1l82 574h-129q-107 0 -189 -79.5t-100 -208.5z" />
<glyph unicode="&#x153;" horiz-adv-x="2045" d="M60 561q27 188 133.5 330.5t273 219.5t368.5 77q236 0 368 -127q159 127 381 127q17 0 51 -2q193 -11 320 -105.5t172 -256.5t3 -370q-4 -20 -21.5 -34t-36.5 -14h-224l158 -181q13 -14 10 -35.5t-19 -35.5q-238 -222 -581 -222q-234 0 -360 126q-169 -126 -402 -126 q-307 0 -471 172.5t-123 456.5zM163 561q-35 -242 100 -384t406 -142q221 0 367 130q21 17 41.5 16t32.5 -17q98 -129 320 -129q272 0 462 153l-146 167q-124 -83 -240 -83q-83 0 -140 43.5t-75 123.5q-8 34 6.5 51t32.5 18h19h688q41 269 -82 423t-385 154 q-209 0 -344 -130q-15 -14 -31 -17t-26.5 2t-17.5 14q-104 131 -331 131q-271 0 -446.5 -141.5t-210.5 -382.5zM524 555q16 114 86.5 191t171.5 77t149 -77t32 -191t-86.5 -191t-171.5 -77t-149 77t-32 191zM627 555q-12 -83 14.5 -124.5t78.5 -41.5t90 41.5t50 124.5 t-14.5 124.5t-78.5 41.5t-90 -41.5t-50 -124.5zM1309.5 664q0.5 9 3.5 16q30 86 89.5 143.5t141.5 57.5q85 0 129.5 -63t25.5 -152q-4 -18 -20.5 -33t-36.5 -15h-287q-20 0 -31 7.5t-13 18.5t-1.5 20zM1429 406q34 -31 91 -31q56 0 123 31h-214zM1440 721h160q-11 57 -71 57 q-52 0 -89 -57z" />
<glyph unicode="&#x178;" horiz-adv-x="1472" d="M131 1438q-1 13 2.5 23t19 18t41.5 8h473q31 0 41 -28l176 -464l300 464q18 28 50 28h473q0 -1 9 0.5t19 -3t18.5 -10.5t6 -22.5t-17.5 -39.5l-649 -978l-63 -434q-3 -22 -21.5 -36.5t-36.5 -14.5h-476q-22 0 -33.5 16.5t-9.5 34.5l61 424l-376 988q-2 3 -4 8t-3 18z M264 1384l351 -924q5 -11 3 -24l-56 -385h373l57 395q2 14 9 24l607 914h-357l-340 -524q-16 -25 -31.5 -34.5t-26 -5t-18.5 13t-11 16.5l-4 9l-199 525h-357zM538 1745q15 103 92 171.5t180 68.5t160.5 -68.5t42.5 -171.5q-14 -102 -91.5 -170t-180.5 -68t-160 68t-43 170z M641 1745q-9 -62 22 -98.5t93 -36.5t104 36.5t51 98.5q9 63 -22 100t-93 37t-104 -37t-51 -100zM964 1745q15 103 92 171.5t180 68.5t160.5 -68.5t42.5 -171.5q-14 -102 -91.5 -170t-180.5 -68t-160 68t-43 170zM1067 1745q-9 -62 22 -98.5t93 -36.5t104 36.5t51 98.5 q9 63 -22.5 100t-93.5 37t-103.5 -37t-50.5 -100z" />
<glyph unicode="&#x2c6;" horiz-adv-x="716" d="M57 1234.5q4 16.5 24 39.5l296 332q18 20 44 20h344q25 0 38 -20l200 -332q2 -3 4.5 -8.5t5.5 -20t0 -25t-19 -19.5t-44 -9h-307q-27 0 -39 23l-56 104l-85 -104q-20 -23 -45 -23h-308q-4 0 -10.5 0.5t-20 5t-20 12.5t-2.5 24.5zM227 1294h178l118 146q16 19 30.5 26.5 t24 3.5t16.5 -10.5t10 -13.5l4 -6l77 -146h178l-139 230h-292z" />
<glyph unicode="&#x2dc;" horiz-adv-x="716" d="M91 1257q29 204 117 315t235 111q42 0 82.5 -11.5t62.5 -24t44 -27.5t25 -17q4 12 5 23q3 22 22 36.5t37 14.5h276q22 0 34 -16.5t10 -34.5q-29 -202 -115.5 -313t-234.5 -111q-43 0 -83 11.5t-62 24t-44 27.5t-25 17q-1 -3 -5 -25q-3 -22 -22 -36.5t-37 -14.5h-278 q-22 0 -34 16.5t-10 34.5zM202 1309h180q13 32 41.5 54.5t63.5 22.5q34 0 61.5 -12.5t44.5 -28t46.5 -28t66.5 -12.5q89 0 141.5 59t82.5 211h-178q-13 -32 -42 -54t-64 -22q-33 0 -60.5 13t-44.5 28t-46.5 28t-65.5 13q-89 0 -143 -60t-84 -212z" />
<glyph unicode="&#x2000;" horiz-adv-x="999" />
<glyph unicode="&#x2001;" horiz-adv-x="1999" />
<glyph unicode="&#x2002;" horiz-adv-x="999" />
<glyph unicode="&#x2003;" horiz-adv-x="1999" />
<glyph unicode="&#x2004;" horiz-adv-x="666" />
<glyph unicode="&#x2005;" horiz-adv-x="499" />
<glyph unicode="&#x2006;" horiz-adv-x="333" />
<glyph unicode="&#x2007;" horiz-adv-x="333" />
<glyph unicode="&#x2008;" horiz-adv-x="249" />
<glyph unicode="&#x2009;" horiz-adv-x="399" />
<glyph unicode="&#x200a;" horiz-adv-x="111" />
<glyph unicode="&#x2010;" horiz-adv-x="778" d="M122 489l41 287q3 22 22 36.5t37 14.5h573q22 0 34 -16.5t10 -34.5l-41 -287q-3 -22 -22 -36.5t-37 -14.5h-573q-22 0 -34 16.5t-10 34.5zM232 541h471l26 184h-471z" />
<glyph unicode="&#x2011;" horiz-adv-x="778" d="M122 489l41 287q3 22 22 36.5t37 14.5h573q22 0 34 -16.5t10 -34.5l-41 -287q-3 -22 -22 -36.5t-37 -14.5h-573q-22 0 -34 16.5t-10 34.5zM232 541h471l26 184h-471z" />
<glyph unicode="&#x2012;" horiz-adv-x="778" d="M122 489l41 287q3 22 22 36.5t37 14.5h573q22 0 34 -16.5t10 -34.5l-41 -287q-3 -22 -22 -36.5t-37 -14.5h-573q-22 0 -34 16.5t-10 34.5zM232 541h471l26 184h-471z" />
<glyph unicode="&#x2013;" horiz-adv-x="839" d="M10 428l42 287q3 22 21.5 36.5t36.5 14.5h840q22 0 34 -16.5t10 -34.5l-41 -287q-3 -22 -22 -36.5t-37 -14.5h-840q-22 0 -34 16.5t-10 34.5zM120 479h738l26 185h-737z" />
<glyph unicode="&#x2014;" horiz-adv-x="1249" d="M10 428l42 287q3 22 21.5 36.5t36.5 14.5h1250q22 0 33.5 -16.5t9.5 -34.5l-41 -287q-3 -22 -21.5 -36.5t-36.5 -14.5h-1250q-22 0 -34 16.5t-10 34.5zM120 479h1147l27 185h-1147z" />
<glyph unicode="&#x2018;" horiz-adv-x="542" d="M132 1014q14 100 92 193l215 258q19 22 46 22h213q0 -1 8 0t17.5 -3t17 -10t7 -21t-12.5 -37l-125 -225q59 -68 44 -175q-16 -113 -101.5 -186.5t-197.5 -73.5q-106 0 -173 69.5t-50 188.5zM234 1014q-11 -76 27.5 -116t107.5 -40q72 0 122.5 43.5t60.5 114.5 q11 79 -40 117q-13 10 -16 28t6 34l105 189h-110l-197 -235q-57 -68 -66 -135z" />
<glyph unicode="&#x2019;" horiz-adv-x="542" d="M96.5 789q0.5 15 12.5 37l124 225q-59 68 -44 176q16 113 102 186.5t198 73.5q106 0 173 -69.5t50 -188.5q-14 -98 -93 -193l-215 -258q-19 -22 -45 -22h-213q0 1 -8 0t-17.5 2.5t-17 9.5t-7 21zM237 858h110l197 236q56 67 65 135q11 76 -27.5 115.5t-107.5 39.5 q-72 0 -122.5 -43t-60.5 -114q-11 -78 41 -117q13 -10 16 -28t-6 -34z" />
<glyph unicode="&#x201a;" horiz-adv-x="542" d="M-52.5 -243q0.5 15 12.5 37l124 225q-59 68 -44 176q16 113 102 186.5t198 73.5q106 0 173 -69.5t50 -188.5q-14 -100 -92 -193l-216 -258q-19 -22 -45 -22h-213q0 1 -8 0t-17.5 2.5t-17 9.5t-7 21zM88 -174h110l197 236q56 67 65 135q11 76 -27.5 115.5t-107.5 39.5 q-72 0 -122 -43t-60 -114q-11 -80 40 -118q13 -10 16 -28t-6 -34z" />
<glyph unicode="&#x201c;" horiz-adv-x="989" d="M132 1014q14 100 92 193l215 258q19 22 46 22h213q0 -1 8 0t17.5 -3t17 -10t7 -21t-12.5 -37l-125 -225q59 -68 44 -175q-16 -113 -101.5 -186.5t-197.5 -73.5q-106 0 -173 69.5t-50 188.5zM234 1014q-11 -76 27.5 -116t107.5 -40q72 0 122.5 43.5t60.5 114.5 q11 79 -40 117q-13 10 -16 28t6 34l105 189h-110l-197 -235q-57 -68 -66 -135zM578 1014q14 100 92 193l216 258q19 22 45 22h213q0 -1 8 0t17.5 -3t17 -10t7 -21t-12.5 -37l-124 -225q59 -68 44 -175q-16 -113 -102 -186.5t-198 -73.5q-106 0 -173 69.5t-50 188.5z M681 1014q-11 -76 27.5 -116t107.5 -40q72 0 121.5 43.5t60.5 114.5q11 79 -40 117q-13 10 -16 28t6 34l105 189h-110l-197 -235q-56 -67 -65 -135z" />
<glyph unicode="&#x201d;" horiz-adv-x="989" d="M96.5 789q0.5 15 12.5 37l124 225q-59 68 -44 176q16 113 102 186.5t198 73.5q106 0 173 -69.5t50 -188.5q-14 -98 -93 -193l-215 -258q-19 -22 -45 -22h-213q0 1 -8 0t-17.5 2.5t-17 9.5t-7 21zM237 858h110l197 236q56 67 65 135q11 76 -27.5 115.5t-107.5 39.5 q-72 0 -122.5 -43t-60.5 -114q-11 -78 41 -117q13 -10 16 -28t-6 -34zM542.5 789q0.5 15 12.5 37l125 225q-59 68 -44 176q16 113 101.5 186.5t197.5 73.5q106 0 173 -69.5t50 -188.5q-14 -100 -92 -193l-215 -258q-19 -22 -46 -22h-213q0 1 -8 0t-17.5 2.5t-17 9.5t-7 21z M683 858h110l197 236q57 68 66 135q11 76 -27.5 115.5t-108.5 39.5q-72 0 -122 -43t-60 -114q-11 -79 40 -117q13 -10 16 -28t-6 -34z" />
<glyph unicode="&#x201e;" horiz-adv-x="989" d="M-52.5 -243q0.5 15 12.5 37l124 225q-59 68 -44 176q16 113 102 186.5t198 73.5q106 0 173 -69.5t50 -188.5q-14 -100 -92 -193l-216 -258q-19 -22 -45 -22h-213q0 1 -8 0t-17.5 2.5t-17 9.5t-7 21zM88 -174h110l197 236q56 67 65 135q11 76 -27.5 115.5t-107.5 39.5 q-72 0 -122 -43t-60 -114q-11 -80 40 -118q13 -10 16 -28t-6 -34zM393.5 -243q0.5 15 12.5 37l125 225q-59 68 -44 176q16 113 101.5 186.5t197.5 73.5q106 0 173 -69.5t50 -188.5q-14 -100 -92 -193l-215 -258q-19 -22 -46 -22h-213q0 1 -8 0t-17.5 2.5t-17 9.5t-7 21z M535 -174h109l197 236q57 68 66 135q11 76 -27.5 115.5t-107.5 39.5q-72 0 -122.5 -43t-60.5 -114q-11 -80 40 -118q13 -10 16 -28t-6 -34z" />
<glyph unicode="&#x2022;" horiz-adv-x="753" d="M94 582q22 158 140.5 261t276.5 103q161 0 250 -102.5t66 -261.5q-23 -161 -142 -265t-280 -104q-159 0 -246.5 104t-64.5 265zM196 582q-17 -121 44.5 -194t179.5 -73q122 0 205 73t100 194q17 118 -45.5 190t-183.5 72q-118 0 -200.5 -72t-99.5 -190z" />
<glyph unicode="&#x2026;" horiz-adv-x="1525" d="M38 195q17 113 101.5 186.5t196.5 73.5q114 0 178 -73.5t47 -186.5q-17 -114 -101.5 -188.5t-198.5 -74.5q-113 0 -176 74.5t-47 188.5zM141 195q-10 -73 26 -116.5t108 -43.5q74 0 123.5 43.5t59.5 116.5q11 72 -26.5 114.5t-110.5 42.5q-72 0 -121 -42.5t-59 -114.5z M530 195q17 113 101 186.5t196 73.5q114 0 178 -73.5t47 -186.5q-17 -114 -101.5 -188.5t-198.5 -74.5q-113 0 -175.5 74.5t-46.5 188.5zM632 195q-10 -73 26.5 -116.5t108.5 -43.5q74 0 123.5 43.5t59.5 116.5q11 72 -26.5 114.5t-110.5 42.5q-72 0 -121.5 -42.5 t-59.5 -114.5zM1021 195q17 113 101.5 186.5t196.5 73.5q114 0 178 -73.5t47 -186.5q-17 -114 -101.5 -188.5t-198.5 -74.5q-113 0 -176 74.5t-47 188.5zM1124 195q-10 -73 26 -116.5t108 -43.5q74 0 123.5 43.5t59.5 116.5q11 72 -26.5 114.5t-110.5 42.5q-72 0 -121 -42.5 t-59 -114.5z" />
<glyph unicode="&#x202f;" horiz-adv-x="399" />
<glyph unicode="&#x2039;" horiz-adv-x="583" d="M-1 532q-14 27 8 55l311 395q19 24 46 24h369q0 -1 9 0t19.5 -3t18.5 -10.5t5.5 -23t-18.5 -39.5l-257 -371l149 -375q2 -3 4 -8t3 -18t-2.5 -23t-19 -18t-41.5 -8h-368q-29 0 -40 23zM106 559l172 -348h254l-129 324q-10 26 7 49l221 319h-254z" />
<glyph unicode="&#x203a;" horiz-adv-x="583" d="M-40.5 144.5q2.5 16.5 18.5 39.5l257 371l-150 375q-2 3 -4 8t-3 18.5t2.5 23.5t19 18t41.5 8h368q28 0 40 -24l197 -400q14 -27 -8 -55l-311 -395q-18 -23 -47 -23h-368q0 1 -9 -0.5t-19.5 3t-18.5 10.5t-5.5 22.5zM113 211h254l271 344l-171 348h-255l129 -324 q10 -26 -7 -49z" />
<glyph unicode="&#x205f;" horiz-adv-x="499" />
<glyph unicode="&#x20ac;" horiz-adv-x="1585" d="M63 510l24 168q4 31 38 47q-28 16 -24 47l24 166q3 22 22 36.5t37 14.5h159q118 233 349 372.5t509 139.5q176 0 340.5 -75t263.5 -203q11 -15 8 -35t-16 -33l-321 -326q-8 -8 -18.5 -15t-29.5 -5.5t-32 23.5q-18 31 -45 61l-17 -121q-4 -31 -38 -47q28 -16 24 -47 l-19 -136q40 29 64 52q17 15 38 16.5t37 -16.5l232 -293q11 -14 8.5 -34.5t-18.5 -34.5q-148 -139 -338.5 -221.5t-367.5 -82.5q-276 0 -462 145.5t-230 385.5h-157q-22 0 -34 16.5t-10 34.5zM173 561h143q15 0 28.5 -10.5t15.5 -27.5q29 -222 193 -357t418 -135 q143 0 301 63.5t287 172.5l-174 219q-69 -54 -134 -86q-114 -56 -210 -56q-83 0 -148 35.5t-103 99.5q-19 39 -7.5 57t35.5 22l25 3h358l10 66h-424q-18 0 -32 13t-13 32q0 7 6 55q3 27 10 52q5 18 21.5 31t35.5 13h424l9 64h-362q-28 0 -41.5 8.5t-12.5 20.5t6 23.5 t12 20.5l6 8q57 66 133.5 102t161.5 36q105 0 203 -69q56 -39 99 -95l240 243q-90 97 -227.5 155.5t-278.5 58.5q-258 0 -464.5 -130.5t-302.5 -345.5q-7 -15 -22.5 -25.5t-32.5 -10.5h-145l-9 -64h117q30 0 39 -18.5t3 -38.5q-1 -3 -8 -44l-4 -42q-2 -23 -20 -38t-39 -15 h-117zM980 459q39 -13 76 -13q31 0 78 13h-154zM1048 989h165q-41 15 -77 15q-46 0 -88 -15z" />
<glyph unicode="&#x2122;" horiz-adv-x="1886" d="M95 1174l38 262q3 22 22 36.5t37 14.5h745q22 0 34 -16.5t10 -34.5l-38 -262q-3 -22 -21.5 -37t-36.5 -15h-158l-79 -549q-3 -22 -22 -36.5t-37 -14.5h-329q-22 0 -34 16.5t-10 34.5l79 549h-156q-22 0 -34 17t-10 35zM205 1225h156q18 0 32.5 -14.5t11.5 -36.5l-79 -549 h227l79 549q2 18 19.5 34.5t39.5 16.5h157l23 159h-643zM816 573l124 863q3 22 22 36.5t37 14.5h356q15 0 27 -9.5t16 -22.5l74 -279l157 279q19 32 52 32h356q22 0 34 -16.5t10 -34.5l-124 -863q-3 -22 -22 -36.5t-37 -14.5h-295q-22 0 -34 16.5t-10 34.5l14 97l-16 -32 q-8 -15 -23.5 -24.5t-29.5 -9.5h-227q-16 0 -28 10t-15 24l-7 32l-14 -97q-3 -22 -21.5 -36.5t-36.5 -14.5h-295q-22 0 -34 16.5t-10 34.5zM926 625h192l49 342q4 26 29.5 30.5t49.5 -4.5l23 -9l59 -277h155l138 277q8 16 21 20t25.5 -1.5t24 -13.5t18.5 -15l8 -7l-49 -342 h193l109 759h-271l-203 -361q-15 -26 -30 -35.5t-26 -4.5t-20 13.5t-13 17.5l-5 9l-97 361h-271z" />
<glyph unicode="&#x25fc;" horiz-adv-x="1167" d="M0 0v1167h1167v-1167h-1167z" />
</font>
</defs>
</svg>
